<svg xmlns="http://www.w3.org/2000/svg" xmlns:svg="http://www.w3.org/2000/svg" id="svg2" width="960" height="450" fill="none" stroke="none" stroke-linecap="square" stroke-miterlimit="10" version="1.1" viewBox="0 0 960 450"><desc id="desc3">用于预测推荐影片的深度神经网络的新示意图。</desc><metadata id="metadata903"/><clipPath id="g20ee068a31_12_341.0"><path id="path5" d="M 0,0 960,0 960,540 0,540 0,0 Z" clip-rule="nonzero"/></clipPath><path id="path4610" fill="#b4a7d6" fill-rule="evenodd" d="m 491.61022,100.28504 v 0 c 0,-4.28783 3.47595,-7.76378 7.76376,-7.76378 v 0 c 2.05909,0 4.03385,0.81796 5.48984,2.27396 1.45599,1.45599 2.27396,3.43074 2.27396,5.48982 v 0 c 0,4.28781 -3.47599,7.76378 -7.7638,7.76378 v 0 c -4.28781,0 -7.76376,-3.47597 -7.76376,-7.76378 z"/><path id="path4417" fill="#b4a7d6" fill-rule="evenodd" d="m 491.61022,100.28504 v 0 c 0,-4.28783 3.47595,-7.76378 7.76376,-7.76378 v 0 c 2.05909,0 4.03385,0.81796 5.48984,2.27396 1.45599,1.45599 2.27396,3.43074 2.27396,5.48982 v 0 c 0,4.28781 -3.47599,7.76378 -7.7638,7.76378 v 0 c -4.28781,0 -7.76376,-3.47597 -7.76376,-7.76378 z"/><path id="path4419" fill-rule="evenodd" stroke="#424242" stroke-linecap="butt" stroke-linejoin="round" stroke-width="1" d="m 491.61022,100.28504 v 0 c 0,-4.28783 3.47595,-7.76378 7.76376,-7.76378 v 0 c 2.05909,0 4.03385,0.81796 5.48984,2.27396 1.45599,1.45599 2.27396,3.43074 2.27396,5.48982 v 0 c 0,4.28781 -3.47599,7.76378 -7.7638,7.76378 v 0 c -4.28781,0 -7.76376,-3.47597 -7.76376,-7.76378 z"/><path id="path4423" fill="#ead1dc" fill-rule="evenodd" d="m 378.09579,184.92649 v 0 c 0,-6.54913 5.30911,-11.85828 11.85825,-11.85828 v 0 c 3.14502,0 6.16122,1.24936 8.38507,3.47321 2.22384,2.22388 3.4732,5.24005 3.4732,8.38507 v 0 c 0,6.54913 -5.30911,11.85828 -11.85827,11.85828 v 0 c -6.54914,0 -11.85825,-5.30915 -11.85825,-11.85828 z"/><path id="path4425" fill-rule="evenodd" stroke="#424242" stroke-linecap="butt" stroke-linejoin="round" stroke-width="1" d="m 378.09579,184.92649 v 0 c 0,-6.54913 5.30911,-11.85828 11.85825,-11.85828 v 0 c 3.14502,0 6.16122,1.24936 8.38507,3.47321 2.22384,2.22388 3.4732,5.24005 3.4732,8.38507 v 0 c 0,6.54913 -5.30911,11.85828 -11.85827,11.85828 v 0 c -6.54914,0 -11.85825,-5.30915 -11.85825,-11.85828 z"/><path id="path4427" fill="#ead1dc" fill-rule="evenodd" d="m 409.33199,184.92649 v 0 c 0,-6.54913 5.30914,-11.85828 11.85828,-11.85828 v 0 c 3.14502,0 6.16119,1.24936 8.38507,3.47321 2.22384,2.22388 3.4732,5.24005 3.4732,8.38507 v 0 c 0,6.54913 -5.30914,11.85828 -11.85827,11.85828 v 0 c -6.54914,0 -11.85828,-5.30915 -11.85828,-11.85828 z"/><path id="path4429" fill-rule="evenodd" stroke="#424242" stroke-linecap="butt" stroke-linejoin="round" stroke-width="1" d="m 409.33199,184.92649 v 0 c 0,-6.54913 5.30914,-11.85828 11.85828,-11.85828 v 0 c 3.14502,0 6.16119,1.24936 8.38507,3.47321 2.22384,2.22388 3.4732,5.24005 3.4732,8.38507 v 0 c 0,6.54913 -5.30914,11.85828 -11.85827,11.85828 v 0 c -6.54914,0 -11.85828,-5.30915 -11.85828,-11.85828 z"/><path id="path4431" fill="#ead1dc" fill-rule="evenodd" d="m 440.56823,184.92649 v 0 c 0,-6.54913 5.30911,-11.85828 11.85825,-11.85828 v 0 c 3.14502,0 6.16122,1.24936 8.38507,3.47321 2.22384,2.22388 3.4732,5.24005 3.4732,8.38507 v 0 c 0,6.54913 -5.30911,11.85828 -11.85827,11.85828 v 0 c -6.54914,0 -11.85825,-5.30915 -11.85825,-11.85828 z"/><path id="path4433" fill-rule="evenodd" stroke="#424242" stroke-linecap="butt" stroke-linejoin="round" stroke-width="1" d="m 440.56823,184.92649 v 0 c 0,-6.54913 5.30911,-11.85828 11.85825,-11.85828 v 0 c 3.14502,0 6.16122,1.24936 8.38507,3.47321 2.22384,2.22388 3.4732,5.24005 3.4732,8.38507 v 0 c 0,6.54913 -5.30911,11.85828 -11.85827,11.85828 v 0 c -6.54914,0 -11.85825,-5.30915 -11.85825,-11.85828 z"/><path id="path4435" fill="#ead1dc" fill-rule="evenodd" d="m 471.80443,184.92649 v 0 c 0,-6.54913 5.30914,-11.85828 11.85828,-11.85828 v 0 c 3.14499,0 6.16119,1.24936 8.38507,3.47321 2.22384,2.22388 3.4732,5.24005 3.4732,8.38507 v 0 c 0,6.54913 -5.30914,11.85828 -11.85827,11.85828 v 0 c -6.54914,0 -11.85828,-5.30915 -11.85828,-11.85828 z"/><path id="path4437" fill-rule="evenodd" stroke="#424242" stroke-linecap="butt" stroke-linejoin="round" stroke-width="1" d="m 471.80443,184.92649 v 0 c 0,-6.54913 5.30914,-11.85828 11.85828,-11.85828 v 0 c 3.14499,0 6.16119,1.24936 8.38507,3.47321 2.22384,2.22388 3.4732,5.24005 3.4732,8.38507 v 0 c 0,6.54913 -5.30914,11.85828 -11.85827,11.85828 v 0 c -6.54914,0 -11.85828,-5.30915 -11.85828,-11.85828 z"/><path id="path4439" fill="#d9ead3" fill-rule="evenodd" d="m 308.12728,257.39106 v 0 c 0,-6.54913 5.30911,-11.85828 11.85828,-11.85828 v 0 c 3.14498,0 6.16119,1.24936 8.38504,3.47321 2.22387,2.22388 3.4732,5.24005 3.4732,8.38507 v 0 c 0,6.54913 -5.30911,11.85828 -11.85824,11.85828 v 0 c -6.54917,0 -11.85828,-5.30915 -11.85828,-11.85828 z"/><path id="path4441" fill-rule="evenodd" stroke="#424242" stroke-linecap="butt" stroke-linejoin="round" stroke-width="1" d="m 308.12728,257.39106 v 0 c 0,-6.54913 5.30911,-11.85828 11.85828,-11.85828 v 0 c 3.14498,0 6.16119,1.24936 8.38504,3.47321 2.22387,2.22388 3.4732,5.24005 3.4732,8.38507 v 0 c 0,6.54913 -5.30911,11.85828 -11.85824,11.85828 v 0 c -6.54917,0 -11.85828,-5.30915 -11.85828,-11.85828 z"/><path id="path4443" fill="#d9ead3" fill-rule="evenodd" d="m 342.48949,257.39106 v 0 c 0,-6.54913 5.30911,-11.85828 11.85825,-11.85828 v 0 c 3.14502,0 6.16122,1.24936 8.38507,3.47321 2.22384,2.22388 3.4732,5.24005 3.4732,8.38507 v 0 c 0,6.54913 -5.30914,11.85828 -11.85827,11.85828 v 0 c -6.54914,0 -11.85825,-5.30915 -11.85825,-11.85828 z"/><path id="path4445" fill-rule="evenodd" stroke="#424242" stroke-linecap="butt" stroke-linejoin="round" stroke-width="1" d="m 342.48949,257.39106 v 0 c 0,-6.54913 5.30911,-11.85828 11.85825,-11.85828 v 0 c 3.14502,0 6.16122,1.24936 8.38507,3.47321 2.22384,2.22388 3.4732,5.24005 3.4732,8.38507 v 0 c 0,6.54913 -5.30914,11.85828 -11.85827,11.85828 v 0 c -6.54914,0 -11.85825,-5.30915 -11.85825,-11.85828 z"/><path id="path4447" fill="#d9ead3" fill-rule="evenodd" d="m 376.85168,257.39106 v 0 c 0,-6.54913 5.30914,-11.85828 11.85828,-11.85828 v 0 c 3.14502,0 6.16119,1.24936 8.38507,3.47321 2.22384,2.22388 3.4732,5.24005 3.4732,8.38507 v 0 c 0,6.54913 -5.30914,11.85828 -11.85827,11.85828 v 0 c -6.54914,0 -11.85828,-5.30915 -11.85828,-11.85828 z"/><path id="path4449" fill-rule="evenodd" stroke="#424242" stroke-linecap="butt" stroke-linejoin="round" stroke-width="1" d="m 376.85168,257.39106 v 0 c 0,-6.54913 5.30914,-11.85828 11.85828,-11.85828 v 0 c 3.14502,0 6.16119,1.24936 8.38507,3.47321 2.22384,2.22388 3.4732,5.24005 3.4732,8.38507 v 0 c 0,6.54913 -5.30914,11.85828 -11.85827,11.85828 v 0 c -6.54914,0 -11.85828,-5.30915 -11.85828,-11.85828 z"/><path id="path4451" fill="#fff2cc" fill-rule="evenodd" d="m 535.4291,361.39106 v 0 c 0,-6.54913 5.30914,-11.85828 11.85828,-11.85828 v 0 c 3.14502,0 6.16119,1.24936 8.38507,3.47321 2.22387,2.22388 3.4732,5.24005 3.4732,8.38507 v 0 c 0,6.54913 -5.30914,11.85828 -11.85827,11.85828 v 0 c -6.54914,0 -11.85828,-5.30915 -11.85828,-11.85828 z"/><path id="path4453" fill-rule="evenodd" stroke="#424242" stroke-linecap="butt" stroke-linejoin="round" stroke-width="1" d="m 535.4291,361.39106 v 0 c 0,-6.54913 5.30914,-11.85828 11.85828,-11.85828 v 0 c 3.14502,0 6.16119,1.24936 8.38507,3.47321 2.22387,2.22388 3.4732,5.24005 3.4732,8.38507 v 0 c 0,6.54913 -5.30914,11.85828 -11.85827,11.85828 v 0 c -6.54914,0 -11.85828,-5.30915 -11.85828,-11.85828 z"/><path id="path4455" fill="#fff2cc" fill-rule="evenodd" d="m 659.78872,361.39106 v 0 c 0,-6.54913 5.30908,-11.85828 11.85821,-11.85828 v 0 c 3.14502,0 6.16126,1.24936 8.38508,3.47321 2.22387,2.22388 3.4732,5.24005 3.4732,8.38507 v 0 c 0,6.54913 -5.30908,11.85828 -11.85827,11.85828 v 0 c -6.54914,0 -11.85822,-5.30915 -11.85822,-11.85828 z"/><path id="path4457" fill-rule="evenodd" stroke="#424242" stroke-linecap="butt" stroke-linejoin="round" stroke-width="1" d="m 659.78872,361.39106 v 0 c 0,-6.54913 5.30908,-11.85828 11.85821,-11.85828 v 0 c 3.14502,0 6.16126,1.24936 8.38508,3.47321 2.22387,2.22388 3.4732,5.24005 3.4732,8.38507 v 0 c 0,6.54913 -5.30908,11.85828 -11.85827,11.85828 v 0 c -6.54914,0 -11.85822,-5.30915 -11.85822,-11.85828 z"/><path id="path4459" fill="#cfe2f3" fill-rule="evenodd" d="m 147.55509,355.64562 v 0 c 0,-4.28781 3.47597,-7.76376 7.76378,-7.76376 v 0 c 2.05908,0 4.03383,0.81796 5.48982,2.27395 1.45599,1.456 2.27396,3.43073 2.27396,5.48981 v 0 c 0,4.28784 -3.47595,7.76379 -7.76378,7.76379 v 0 c -4.28781,0 -7.76378,-3.47595 -7.76378,-7.76379 z"/><path id="path4461" fill-rule="evenodd" stroke="#424242" stroke-linecap="butt" stroke-linejoin="round" stroke-width="1" d="m 147.55509,355.64562 v 0 c 0,-4.28781 3.47597,-7.76376 7.76378,-7.76376 v 0 c 2.05908,0 4.03383,0.81796 5.48982,2.27395 1.45599,1.456 2.27396,3.43073 2.27396,5.48981 v 0 c 0,4.28784 -3.47595,7.76379 -7.76378,7.76379 v 0 c -4.28781,0 -7.76378,-3.47595 -7.76378,-7.76379 z"/><path id="path4463" fill="#ead1dc" fill-rule="evenodd" d="m 395.55511,140.31231 v 0 c 0,-6.54913 5.30911,-11.85826 11.85825,-11.85826 v 0 c 3.14502,0 6.16122,1.24934 8.38507,3.4732 2.22384,2.22387 3.4732,5.24006 3.4732,8.38506 v 0 c 0,6.54915 -5.30911,11.85828 -11.85827,11.85828 v 0 c -6.54914,0 -11.85825,-5.30913 -11.85825,-11.85828 z"/><path id="path4465" fill-rule="evenodd" stroke="#424242" stroke-linecap="butt" stroke-linejoin="round" stroke-width="1" d="m 395.55511,140.31231 v 0 c 0,-6.54913 5.30911,-11.85826 11.85825,-11.85826 v 0 c 3.14502,0 6.16122,1.24934 8.38507,3.4732 2.22384,2.22387 3.4732,5.24006 3.4732,8.38506 v 0 c 0,6.54915 -5.30911,11.85828 -11.85827,11.85828 v 0 c -6.54914,0 -11.85825,-5.30913 -11.85825,-11.85828 z"/><path id="path4467" fill="#ead1dc" fill-rule="evenodd" d="m 426.79131,140.31231 v 0 c 0,-6.54913 5.30914,-11.85826 11.85828,-11.85826 v 0 c 3.14498,0 6.16119,1.24934 8.38507,3.4732 2.22384,2.22387 3.4732,5.24006 3.4732,8.38506 v 0 c 0,6.54915 -5.30914,11.85828 -11.85827,11.85828 v 0 c -6.54914,0 -11.85828,-5.30913 -11.85828,-11.85828 z"/><path id="path4469" fill-rule="evenodd" stroke="#424242" stroke-linecap="butt" stroke-linejoin="round" stroke-width="1" d="m 426.79131,140.31231 v 0 c 0,-6.54913 5.30914,-11.85826 11.85828,-11.85826 v 0 c 3.14498,0 6.16119,1.24934 8.38507,3.4732 2.22384,2.22387 3.4732,5.24006 3.4732,8.38506 v 0 c 0,6.54915 -5.30914,11.85828 -11.85827,11.85828 v 0 c -6.54914,0 -11.85828,-5.30913 -11.85828,-11.85828 z"/><path id="path4471" fill="#ead1dc" fill-rule="evenodd" d="m 458.02756,140.31231 v 0 c 0,-6.54913 5.30911,-11.85826 11.85825,-11.85826 v 0 c 3.14502,0 6.16122,1.24934 8.38507,3.4732 2.22384,2.22387 3.4732,5.24006 3.4732,8.38506 v 0 c 0,6.54915 -5.30911,11.85828 -11.85827,11.85828 v 0 c -6.54914,0 -11.85825,-5.30913 -11.85825,-11.85828 z"/><path id="path4473" fill-rule="evenodd" stroke="#424242" stroke-linecap="butt" stroke-linejoin="round" stroke-width="1" d="m 458.02756,140.31231 v 0 c 0,-6.54913 5.30911,-11.85826 11.85825,-11.85826 v 0 c 3.14502,0 6.16122,1.24934 8.38507,3.4732 2.22384,2.22387 3.4732,5.24006 3.4732,8.38506 v 0 c 0,6.54915 -5.30911,11.85828 -11.85827,11.85828 v 0 c -6.54914,0 -11.85825,-5.30913 -11.85825,-11.85828 z"/><path id="path4475" fill="#000" fill-opacity="0" fill-rule="evenodd" d="m 159.04066,351.07608 160.9449,-81.82675"/><path id="path4477" fill-rule="evenodd" stroke="#424242" stroke-linecap="butt" stroke-linejoin="round" stroke-width="1" d="m 159.04066,351.07608 160.9449,-81.82675"/><path id="path4479" fill="#000" fill-opacity="0" fill-rule="evenodd" d="M 149.82905,350.15582 354.333,269.24243"/><path id="path4481" fill-rule="evenodd" stroke="#424242" stroke-linecap="butt" stroke-linejoin="round" stroke-width="1" d="M 149.82905,350.15582 354.333,269.24243"/><path id="path4483" fill="#000" fill-opacity="0" fill-rule="evenodd" d="M 155.31887,347.88187 388.7047,269.23621"/><path id="path4485" fill-rule="evenodd" stroke="#424242" stroke-linecap="butt" stroke-linejoin="round" stroke-width="1" d="M 155.31887,347.88187 388.7047,269.23621"/><path id="path4487" fill="#cfe2f3" fill-rule="evenodd" d="m 163.55509,355.64562 v 0 c 0,-4.28781 3.47597,-7.76376 7.76378,-7.76376 v 0 c 2.05908,0 4.03383,0.81796 5.48982,2.27395 1.45599,1.456 2.27396,3.43073 2.27396,5.48981 v 0 c 0,4.28784 -3.47595,7.76379 -7.76378,7.76379 v 0 c -4.28781,0 -7.76378,-3.47595 -7.76378,-7.76379 z"/><path id="path4489" fill-rule="evenodd" stroke="#424242" stroke-linecap="butt" stroke-linejoin="round" stroke-width="1" d="m 163.55509,355.64562 v 0 c 0,-4.28781 3.47597,-7.76376 7.76378,-7.76376 v 0 c 2.05908,0 4.03383,0.81796 5.48982,2.27395 1.45599,1.456 2.27396,3.43073 2.27396,5.48981 v 0 c 0,4.28784 -3.47595,7.76379 -7.76378,7.76379 v 0 c -4.28781,0 -7.76378,-3.47595 -7.76378,-7.76379 z"/><path id="path4491" fill="#000" fill-opacity="0" fill-rule="evenodd" d="m 171.31887,347.88187 148.6614,-78.64566"/><path id="path4493" fill-rule="evenodd" stroke="#424242" stroke-linecap="butt" stroke-linejoin="round" stroke-width="1" d="m 171.31887,347.88187 148.6614,-78.64566"/><path id="path4495" fill="#000" fill-opacity="0" fill-rule="evenodd" d="M 165.82905,350.15582 354.333,269.24243"/><path id="path4497" fill-rule="evenodd" stroke="#424242" stroke-linecap="butt" stroke-linejoin="round" stroke-width="1" d="M 165.82905,350.15582 354.333,269.24243"/><path id="path4499" fill="#000" fill-opacity="0" fill-rule="evenodd" d="M 171.31887,347.88187 388.7047,269.23621"/><path id="path4501" fill-rule="evenodd" stroke="#424242" stroke-linecap="butt" stroke-linejoin="round" stroke-width="1" d="M 171.31887,347.88187 388.7047,269.23621"/><path id="path4503" fill="#cfe2f3" fill-rule="evenodd" d="m 179.55509,355.64562 v 0 c 0,-4.28781 3.47597,-7.76376 7.76378,-7.76376 v 0 c 2.05908,0 4.03383,0.81796 5.48982,2.27395 1.45599,1.456 2.27396,3.43073 2.27396,5.48981 v 0 c 0,4.28784 -3.47595,7.76379 -7.76378,7.76379 v 0 c -4.28781,0 -7.76378,-3.47595 -7.76378,-7.76379 z"/><path id="path4505" fill-rule="evenodd" stroke="#424242" stroke-linecap="butt" stroke-linejoin="round" stroke-width="1" d="m 179.55509,355.64562 v 0 c 0,-4.28781 3.47597,-7.76376 7.76378,-7.76376 v 0 c 2.05908,0 4.03383,0.81796 5.48982,2.27395 1.45599,1.456 2.27396,3.43073 2.27396,5.48981 v 0 c 0,4.28784 -3.47595,7.76379 -7.76378,7.76379 v 0 c -4.28781,0 -7.76378,-3.47595 -7.76378,-7.76379 z"/><path id="path4507" fill="#000" fill-opacity="0" fill-rule="evenodd" d="M 187.31887,347.88187 354.34249,269.23621"/><path id="path4509" fill-rule="evenodd" stroke="#424242" stroke-linecap="butt" stroke-linejoin="round" stroke-width="1" d="M 187.31887,347.88187 354.34249,269.23621"/><path id="path4511" fill="#000" fill-opacity="0" fill-rule="evenodd" d="m 187.31887,347.88187 132.6614,-78.64566"/><path id="path4513" fill-rule="evenodd" stroke="#424242" stroke-linecap="butt" stroke-linejoin="round" stroke-width="1" d="m 187.31887,347.88187 132.6614,-78.64566"/><path id="path4515" fill="#000" fill-opacity="0" fill-rule="evenodd" d="M 187.31887,347.88187 388.7047,269.23621"/><path id="path4517" fill-rule="evenodd" stroke="#424242" stroke-linecap="butt" stroke-linejoin="round" stroke-width="1" d="M 187.31887,347.88187 388.7047,269.23621"/><path id="path4519" fill="#cfe2f3" fill-rule="evenodd" d="m 195.55509,355.64562 v 0 c 0,-4.28781 3.47597,-7.76376 7.76378,-7.76376 v 0 c 2.05908,0 4.03383,0.81796 5.48982,2.27395 1.45599,1.456 2.27396,3.43073 2.27396,5.48981 v 0 c 0,4.28784 -3.47595,7.76379 -7.76378,7.76379 v 0 c -4.28781,0 -7.76378,-3.47595 -7.76378,-7.76379 z"/><path id="path4521" fill-rule="evenodd" stroke="#424242" stroke-linecap="butt" stroke-linejoin="round" stroke-width="1" d="m 195.55509,355.64562 v 0 c 0,-4.28781 3.47597,-7.76376 7.76378,-7.76376 v 0 c 2.05908,0 4.03383,0.81796 5.48982,2.27395 1.45599,1.456 2.27396,3.43073 2.27396,5.48981 v 0 c 0,4.28784 -3.47595,7.76379 -7.76378,7.76379 v 0 c -4.28781,0 -7.76378,-3.47595 -7.76378,-7.76379 z"/><path id="path4523" fill="#000" fill-opacity="0" fill-rule="evenodd" d="M 203.31887,347.88187 319.98028,269.23621"/><path id="path4525" fill-rule="evenodd" stroke="#424242" stroke-linecap="butt" stroke-linejoin="round" stroke-width="1" d="M 203.31887,347.88187 319.98028,269.23621"/><path id="path4527" fill="#000" fill-opacity="0" fill-rule="evenodd" d="M 197.82905,350.15582 388.69518,269.24243"/><path id="path4529" fill-rule="evenodd" stroke="#424242" stroke-linecap="butt" stroke-linejoin="round" stroke-width="1" d="M 197.82905,350.15582 388.69518,269.24243"/><path id="path4531" fill="#000" fill-opacity="0" fill-rule="evenodd" d="M 203.31887,347.88187 354.34249,269.23621"/><path id="path4533" fill-rule="evenodd" stroke="#424242" stroke-linecap="butt" stroke-linejoin="round" stroke-width="1" d="M 203.31887,347.88187 354.34249,269.23621"/><path id="path4535" fill="#cfe2f3" fill-rule="evenodd" d="m 211.55509,355.64562 v 0 c 0,-4.28781 3.47597,-7.76376 7.76378,-7.76376 v 0 c 2.05908,0 4.03383,0.81796 5.48982,2.27395 1.45599,1.456 2.27396,3.43073 2.27396,5.48981 v 0 c 0,4.28784 -3.47595,7.76379 -7.76378,7.76379 v 0 c -4.28781,0 -7.76378,-3.47595 -7.76378,-7.76379 z"/><path id="path4537" fill-rule="evenodd" stroke="#424242" stroke-linecap="butt" stroke-linejoin="round" stroke-width="1" d="m 211.55509,355.64562 v 0 c 0,-4.28781 3.47597,-7.76376 7.76378,-7.76376 v 0 c 2.05908,0 4.03383,0.81796 5.48982,2.27395 1.45599,1.456 2.27396,3.43073 2.27396,5.48981 v 0 c 0,4.28784 -3.47595,7.76379 -7.76378,7.76379 v 0 c -4.28781,0 -7.76378,-3.47595 -7.76378,-7.76379 z"/><path id="path4539" fill="#000" fill-opacity="0" fill-rule="evenodd" d="M 219.31887,347.88187 319.98028,269.23621"/><path id="path4541" fill-rule="evenodd" stroke="#424242" stroke-linecap="butt" stroke-linejoin="round" stroke-width="1" d="M 219.31887,347.88187 319.98028,269.23621"/><path id="path4543" fill="#000" fill-opacity="0" fill-rule="evenodd" d="M 213.82905,350.15582 354.333,269.24243"/><path id="path4545" fill-rule="evenodd" stroke="#424242" stroke-linecap="butt" stroke-linejoin="round" stroke-width="1" d="M 213.82905,350.15582 354.333,269.24243"/><path id="path4547" fill="#000" fill-opacity="0" fill-rule="evenodd" d="M 219.31887,347.88187 388.7047,269.23621"/><path id="path4549" fill-rule="evenodd" stroke="#424242" stroke-linecap="butt" stroke-linejoin="round" stroke-width="1" d="M 219.31887,347.88187 388.7047,269.23621"/><path id="path4551" fill="#cfe2f3" fill-rule="evenodd" d="m 227.55509,355.64562 v 0 c 0,-4.28781 3.47597,-7.76376 7.76378,-7.76376 v 0 c 2.05908,0 4.03383,0.81796 5.48982,2.27395 1.45599,1.456 2.27396,3.43073 2.27396,5.48981 v 0 c 0,4.28784 -3.47595,7.76379 -7.76378,7.76379 v 0 c -4.28781,0 -7.76378,-3.47595 -7.76378,-7.76379 z"/><path id="path4553" fill-rule="evenodd" stroke="#424242" stroke-linecap="butt" stroke-linejoin="round" stroke-width="1" d="m 227.55509,355.64562 v 0 c 0,-4.28781 3.47597,-7.76376 7.76378,-7.76376 v 0 c 2.05908,0 4.03383,0.81796 5.48982,2.27395 1.45599,1.456 2.27396,3.43073 2.27396,5.48981 v 0 c 0,4.28784 -3.47595,7.76379 -7.76378,7.76379 v 0 c -4.28781,0 -7.76378,-3.47595 -7.76378,-7.76379 z"/><path id="path4555" fill="#000" fill-opacity="0" fill-rule="evenodd" d="m 241.0564,351.07608 78.92915,-81.82675"/><path id="path4557" fill-rule="evenodd" stroke="#424242" stroke-linecap="butt" stroke-linejoin="round" stroke-width="1" d="m 241.0564,351.07608 78.92915,-81.82675"/><path id="path4559" fill="#000" fill-opacity="0" fill-rule="evenodd" d="M 229.82905,350.15582 354.333,269.24243"/><path id="path4561" fill-rule="evenodd" stroke="#424242" stroke-linecap="butt" stroke-linejoin="round" stroke-width="1" d="M 229.82905,350.15582 354.333,269.24243"/><path id="path4563" fill="#000" fill-opacity="0" fill-rule="evenodd" d="M 235.31887,347.88187 388.7047,269.23621"/><path id="path4565" fill-rule="evenodd" stroke="#424242" stroke-linecap="butt" stroke-linejoin="round" stroke-width="1" d="M 235.31887,347.88187 388.7047,269.23621"/><path id="path4567" fill="#cfe2f3" fill-rule="evenodd" d="m 243.55509,355.64562 v 0 c 0,-4.28781 3.47597,-7.76376 7.76378,-7.76376 v 0 c 2.05908,0 4.03383,0.81796 5.48984,2.27395 1.45599,1.456 2.27395,3.43073 2.27395,5.48981 v 0 c 0,4.28784 -3.47596,7.76379 -7.76379,7.76379 v 0 c -4.28781,0 -7.76378,-3.47595 -7.76378,-7.76379 z"/><path id="path4569" fill-rule="evenodd" stroke="#424242" stroke-linecap="butt" stroke-linejoin="round" stroke-width="1" d="m 243.55509,355.64562 v 0 c 0,-4.28781 3.47597,-7.76376 7.76378,-7.76376 v 0 c 2.05908,0 4.03383,0.81796 5.48984,2.27395 1.45599,1.456 2.27395,3.43073 2.27395,5.48981 v 0 c 0,4.28784 -3.47596,7.76379 -7.76379,7.76379 v 0 c -4.28781,0 -7.76378,-3.47595 -7.76378,-7.76379 z"/><path id="path4571" fill="#000" fill-opacity="0" fill-rule="evenodd" d="m 251.31887,347.88187 68.66141,-78.64566"/><path id="path4573" fill-rule="evenodd" stroke="#424242" stroke-linecap="butt" stroke-linejoin="round" stroke-width="1" d="m 251.31887,347.88187 68.66141,-78.64566"/><path id="path4575" fill="#000" fill-opacity="0" fill-rule="evenodd" d="M 245.82905,350.15582 354.333,269.24243"/><path id="path4577" fill-rule="evenodd" stroke="#424242" stroke-linecap="butt" stroke-linejoin="round" stroke-width="1" d="M 245.82905,350.15582 354.333,269.24243"/><path id="path4579" fill="#000" fill-opacity="0" fill-rule="evenodd" d="M 251.31887,347.88187 388.7047,269.23621"/><path id="path4581" fill-rule="evenodd" stroke="#424242" stroke-linecap="butt" stroke-linejoin="round" stroke-width="1" d="M 251.31887,347.88187 388.7047,269.23621"/><path id="path4583" fill="#cfe2f3" fill-rule="evenodd" d="m 259.55511,355.64562 v 0 c 0,-4.28781 3.47595,-7.76376 7.76376,-7.76376 v 0 c 2.05909,0 4.03385,0.81796 5.48984,2.27395 1.45599,1.456 2.27396,3.43073 2.27396,5.48981 v 0 c 0,4.28784 -3.47599,7.76379 -7.7638,7.76379 v 0 c -4.28781,0 -7.76376,-3.47595 -7.76376,-7.76379 z"/><path id="path4585" fill-rule="evenodd" stroke="#424242" stroke-linecap="butt" stroke-linejoin="round" stroke-width="1" d="m 259.55511,355.64562 v 0 c 0,-4.28781 3.47595,-7.76376 7.76376,-7.76376 v 0 c 2.05909,0 4.03385,0.81796 5.48984,2.27395 1.45599,1.456 2.27396,3.43073 2.27396,5.48981 v 0 c 0,4.28784 -3.47599,7.76379 -7.7638,7.76379 v 0 c -4.28781,0 -7.76376,-3.47595 -7.76376,-7.76379 z"/><path id="path4587" fill="#000" fill-opacity="0" fill-rule="evenodd" d="m 267.31886,347.88187 52.66141,-78.64566"/><path id="path4589" fill-rule="evenodd" stroke="#424242" stroke-linecap="butt" stroke-linejoin="round" stroke-width="1" d="m 267.31886,347.88187 52.66141,-78.64566"/><path id="path4591" fill="#000" fill-opacity="0" fill-rule="evenodd" d="M 261.82906,350.15582 354.333,269.24243"/><path id="path4593" fill-rule="evenodd" stroke="#424242" stroke-linecap="butt" stroke-linejoin="round" stroke-width="1" d="M 261.82906,350.15582 354.333,269.24243"/><path id="path4595" fill="#000" fill-opacity="0" fill-rule="evenodd" d="M 267.31886,347.88187 388.70469,269.23621"/><path id="path4597" fill-rule="evenodd" stroke="#424242" stroke-linecap="butt" stroke-linejoin="round" stroke-width="1" d="M 267.31886,347.88187 388.70469,269.23621"/><path id="path4599" fill="#cfe2f3" fill-rule="evenodd" d="m 275.55511,355.64562 v 0 c 0,-4.28781 3.47595,-7.76376 7.76376,-7.76376 v 0 c 2.05909,0 4.03385,0.81796 5.48984,2.27395 1.45599,1.456 2.27396,3.43073 2.27396,5.48981 v 0 c 0,4.28784 -3.47599,7.76379 -7.7638,7.76379 v 0 c -4.28781,0 -7.76376,-3.47595 -7.76376,-7.76379 z"/><path id="path4601" fill-rule="evenodd" stroke="#424242" stroke-linecap="butt" stroke-linejoin="round" stroke-width="1" d="m 275.55511,355.64562 v 0 c 0,-4.28781 3.47595,-7.76376 7.76376,-7.76376 v 0 c 2.05909,0 4.03385,0.81796 5.48984,2.27395 1.45599,1.456 2.27396,3.43073 2.27396,5.48981 v 0 c 0,4.28784 -3.47599,7.76379 -7.7638,7.76379 v 0 c -4.28781,0 -7.76376,-3.47595 -7.76376,-7.76379 z"/><path id="path4603" fill="#000" fill-opacity="0" fill-rule="evenodd" d="m 283.31886,347.88187 36.66141,-78.64566"/><path id="path4605" fill-rule="evenodd" stroke="#424242" stroke-linecap="butt" stroke-linejoin="round" stroke-width="1" d="m 283.31886,347.88187 36.66141,-78.64566"/><path id="path4607" fill="#000" fill-opacity="0" fill-rule="evenodd" d="M 277.82906,350.15582 354.333,269.24243"/><path id="path4609" fill-rule="evenodd" stroke="#424242" stroke-linecap="butt" stroke-linejoin="round" stroke-width="1" d="M 277.82906,350.15582 354.333,269.24243"/><path id="path4611" fill="#000" fill-opacity="0" fill-rule="evenodd" d="M 283.31886,347.88187 388.70469,269.23621"/><path id="path4613" fill-rule="evenodd" stroke="#424242" stroke-linecap="butt" stroke-linejoin="round" stroke-width="1" d="M 283.31886,347.88187 388.70469,269.23621"/><path id="path4615" fill="#cfe2f3" fill-rule="evenodd" d="m 291.55511,355.64562 v 0 c 0,-4.28781 3.47595,-7.76376 7.76376,-7.76376 v 0 c 2.05909,0 4.03385,0.81796 5.48984,2.27395 1.45599,1.456 2.27396,3.43073 2.27396,5.48981 v 0 c 0,4.28784 -3.47599,7.76379 -7.7638,7.76379 v 0 c -4.28781,0 -7.76376,-3.47595 -7.76376,-7.76379 z"/><path id="path4617" fill-rule="evenodd" stroke="#424242" stroke-linecap="butt" stroke-linejoin="round" stroke-width="1" d="m 291.55511,355.64562 v 0 c 0,-4.28781 3.47595,-7.76376 7.76376,-7.76376 v 0 c 2.05909,0 4.03385,0.81796 5.48984,2.27395 1.45599,1.456 2.27396,3.43073 2.27396,5.48981 v 0 c 0,4.28784 -3.47599,7.76379 -7.7638,7.76379 v 0 c -4.28781,0 -7.76376,-3.47595 -7.76376,-7.76379 z"/><path id="path4619" fill="#000" fill-opacity="0" fill-rule="evenodd" d="m 299.31886,347.88187 20.66141,-78.64566"/><path id="path4621" fill-rule="evenodd" stroke="#424242" stroke-linecap="butt" stroke-linejoin="round" stroke-width="1" d="m 299.31886,347.88187 20.66141,-78.64566"/><path id="path4623" fill="#000" fill-opacity="0" fill-rule="evenodd" d="M 293.82906,350.15582 354.333,269.24243"/><path id="path4625" fill-rule="evenodd" stroke="#424242" stroke-linecap="butt" stroke-linejoin="round" stroke-width="1" d="M 293.82906,350.15582 354.333,269.24243"/><path id="path4627" fill="#000" fill-opacity="0" fill-rule="evenodd" d="m 299.31886,347.88187 89.38583,-78.64566"/><path id="path4629" fill-rule="evenodd" stroke="#424242" stroke-linecap="butt" stroke-linejoin="round" stroke-width="1" d="m 299.31886,347.88187 89.38583,-78.64566"/><path id="path4631" fill="#cfe2f3" fill-rule="evenodd" d="m 307.55511,355.64562 v 0 c 0,-4.28781 3.47595,-7.76376 7.76376,-7.76376 v 0 c 2.05909,0 4.03385,0.81796 5.48984,2.27395 1.45599,1.456 2.27396,3.43073 2.27396,5.48981 v 0 c 0,4.28784 -3.47599,7.76379 -7.7638,7.76379 v 0 c -4.28781,0 -7.76376,-3.47595 -7.76376,-7.76379 z"/><path id="path4633" fill-rule="evenodd" stroke="#424242" stroke-linecap="butt" stroke-linejoin="round" stroke-width="1" d="m 307.55511,355.64562 v 0 c 0,-4.28781 3.47595,-7.76376 7.76376,-7.76376 v 0 c 2.05909,0 4.03385,0.81796 5.48984,2.27395 1.45599,1.456 2.27396,3.43073 2.27396,5.48981 v 0 c 0,4.28784 -3.47599,7.76379 -7.7638,7.76379 v 0 c -4.28781,0 -7.76376,-3.47595 -7.76376,-7.76379 z"/><path id="path4635" fill="#000" fill-opacity="0" fill-rule="evenodd" d="m 315.31886,347.88187 73.38583,-78.64566"/><path id="path4637" fill-rule="evenodd" stroke="#424242" stroke-linecap="butt" stroke-linejoin="round" stroke-width="1" d="m 315.31886,347.88187 73.38583,-78.64566"/><path id="path4639" fill="#000" fill-opacity="0" fill-rule="evenodd" d="m 309.82906,350.15582 78.86612,-80.91339"/><path id="path4641" fill-rule="evenodd" stroke="#424242" stroke-linecap="butt" stroke-linejoin="round" stroke-width="1" d="m 309.82906,350.15582 78.86612,-80.91339"/><path id="path4643" fill="#000" fill-opacity="0" fill-rule="evenodd" d="m 315.31886,347.88187 39.02362,-78.64566"/><path id="path4645" fill-rule="evenodd" stroke="#424242" stroke-linecap="butt" stroke-linejoin="round" stroke-width="1" d="m 315.31886,347.88187 39.02362,-78.64566"/><path id="path4647" fill="#cfe2f3" fill-rule="evenodd" d="m 323.55511,355.64562 v 0 c 0,-4.28781 3.47595,-7.76376 7.76376,-7.76376 v 0 c 2.05909,0 4.03385,0.81796 5.48984,2.27395 1.45599,1.456 2.27396,3.43073 2.27396,5.48981 v 0 c 0,4.28784 -3.47599,7.76379 -7.7638,7.76379 v 0 c -4.28781,0 -7.76376,-3.47595 -7.76376,-7.76379 z"/><path id="path4649" fill-rule="evenodd" stroke="#424242" stroke-linecap="butt" stroke-linejoin="round" stroke-width="1" d="m 323.55511,355.64562 v 0 c 0,-4.28781 3.47595,-7.76376 7.76376,-7.76376 v 0 c 2.05909,0 4.03385,0.81796 5.48984,2.27395 1.45599,1.456 2.27396,3.43073 2.27396,5.48981 v 0 c 0,4.28784 -3.47599,7.76379 -7.7638,7.76379 v 0 c -4.28781,0 -7.76376,-3.47595 -7.76376,-7.76379 z"/><path id="path4651" fill="#000" fill-opacity="0" fill-rule="evenodd" d="M 331.31886,347.88187 319.98027,269.23621"/><path id="path4653" fill-rule="evenodd" stroke="#424242" stroke-linecap="butt" stroke-linejoin="round" stroke-width="1" d="M 331.31886,347.88187 319.98027,269.23621"/><path id="path4655" fill="#000" fill-opacity="0" fill-rule="evenodd" d="M 325.82906,350.15582 354.333,269.24243"/><path id="path4657" fill-rule="evenodd" stroke="#424242" stroke-linecap="butt" stroke-linejoin="round" stroke-width="1" d="M 325.82906,350.15582 354.333,269.24243"/><path id="path4659" fill="#000" fill-opacity="0" fill-rule="evenodd" d="m 331.31886,347.88187 57.38583,-78.64566"/><path id="path4661" fill-rule="evenodd" stroke="#424242" stroke-linecap="butt" stroke-linejoin="round" stroke-width="1" d="m 331.31886,347.88187 57.38583,-78.64566"/><path id="path4663" fill="#cfe2f3" fill-rule="evenodd" d="m 339.55511,355.64562 v 0 c 0,-4.28781 3.47595,-7.76376 7.76376,-7.76376 v 0 c 2.05909,0 4.03385,0.81796 5.48984,2.27395 1.45599,1.456 2.27396,3.43073 2.27396,5.48981 v 0 c 0,4.28784 -3.47599,7.76379 -7.7638,7.76379 v 0 c -4.28781,0 -7.76376,-3.47595 -7.76376,-7.76379 z"/><path id="path4665" fill-rule="evenodd" stroke="#424242" stroke-linecap="butt" stroke-linejoin="round" stroke-width="1" d="m 339.55511,355.64562 v 0 c 0,-4.28781 3.47595,-7.76376 7.76376,-7.76376 v 0 c 2.05909,0 4.03385,0.81796 5.48984,2.27395 1.45599,1.456 2.27396,3.43073 2.27396,5.48981 v 0 c 0,4.28784 -3.47599,7.76379 -7.7638,7.76379 v 0 c -4.28781,0 -7.76376,-3.47595 -7.76376,-7.76379 z"/><path id="path4667" fill="#000" fill-opacity="0" fill-rule="evenodd" d="M 347.31886,347.88187 319.98027,269.23621"/><path id="path4669" fill-rule="evenodd" stroke="#424242" stroke-linecap="butt" stroke-linejoin="round" stroke-width="1" d="M 347.31886,347.88187 319.98027,269.23621"/><path id="path4671" fill="#000" fill-opacity="0" fill-rule="evenodd" d="M 341.82906,350.15582 354.333,269.24243"/><path id="path4673" fill-rule="evenodd" stroke="#424242" stroke-linecap="butt" stroke-linejoin="round" stroke-width="1" d="M 341.82906,350.15582 354.333,269.24243"/><path id="path4675" fill="#000" fill-opacity="0" fill-rule="evenodd" d="m 347.31886,347.88187 41.38583,-78.64566"/><path id="path4677" fill-rule="evenodd" stroke="#424242" stroke-linecap="butt" stroke-linejoin="round" stroke-width="1" d="m 347.31886,347.88187 41.38583,-78.64566"/><path id="path4679" fill="#cfe2f3" fill-rule="evenodd" d="m 355.55511,355.64562 v 0 c 0,-4.28781 3.47595,-7.76376 7.76376,-7.76376 v 0 c 2.05909,0 4.03385,0.81796 5.48984,2.27395 1.45599,1.456 2.27396,3.43073 2.27396,5.48981 v 0 c 0,4.28784 -3.47599,7.76379 -7.7638,7.76379 v 0 c -4.28781,0 -7.76376,-3.47595 -7.76376,-7.76379 z"/><path id="path4681" fill-rule="evenodd" stroke="#424242" stroke-linecap="butt" stroke-linejoin="round" stroke-width="1" d="m 355.55511,355.64562 v 0 c 0,-4.28781 3.47595,-7.76376 7.76376,-7.76376 v 0 c 2.05909,0 4.03385,0.81796 5.48984,2.27395 1.45599,1.456 2.27396,3.43073 2.27396,5.48981 v 0 c 0,4.28784 -3.47599,7.76379 -7.7638,7.76379 v 0 c -4.28781,0 -7.76376,-3.47595 -7.76376,-7.76379 z"/><path id="path4683" fill="#000" fill-opacity="0" fill-rule="evenodd" d="M 363.31886,347.88187 319.98027,269.23621"/><path id="path4685" fill-rule="evenodd" stroke="#424242" stroke-linecap="butt" stroke-linejoin="round" stroke-width="1" d="M 363.31886,347.88187 319.98027,269.23621"/><path id="path4687" fill="#000" fill-opacity="0" fill-rule="evenodd" d="M 357.82906,350.15582 354.333,269.24243"/><path id="path4689" fill-rule="evenodd" stroke="#424242" stroke-linecap="butt" stroke-linejoin="round" stroke-width="1" d="M 357.82906,350.15582 354.333,269.24243"/><path id="path4691" fill="#000" fill-opacity="0" fill-rule="evenodd" d="m 363.31886,347.88187 25.38583,-78.64566"/><path id="path4693" fill-rule="evenodd" stroke="#424242" stroke-linecap="butt" stroke-linejoin="round" stroke-width="1" d="m 363.31886,347.88187 25.38583,-78.64566"/><path id="path4695" fill="#cfe2f3" fill-rule="evenodd" d="m 371.55511,355.64562 v 0 c 0,-4.28781 3.47595,-7.76376 7.76376,-7.76376 v 0 c 2.05909,0 4.03385,0.81796 5.48984,2.27395 1.45599,1.456 2.27396,3.43073 2.27396,5.48981 v 0 c 0,4.28784 -3.47599,7.76379 -7.7638,7.76379 v 0 c -4.28781,0 -7.76376,-3.47595 -7.76376,-7.76379 z"/><path id="path4697" fill-rule="evenodd" stroke="#424242" stroke-linecap="butt" stroke-linejoin="round" stroke-width="1" d="m 371.55511,355.64562 v 0 c 0,-4.28781 3.47595,-7.76376 7.76376,-7.76376 v 0 c 2.05909,0 4.03385,0.81796 5.48984,2.27395 1.45599,1.456 2.27396,3.43073 2.27396,5.48981 v 0 c 0,4.28784 -3.47599,7.76379 -7.7638,7.76379 v 0 c -4.28781,0 -7.76376,-3.47595 -7.76376,-7.76379 z"/><path id="path4699" fill="#000" fill-opacity="0" fill-rule="evenodd" d="M 379.31886,347.88187 319.98027,269.23621"/><path id="path4701" fill-rule="evenodd" stroke="#424242" stroke-linecap="butt" stroke-linejoin="round" stroke-width="1" d="M 379.31886,347.88187 319.98027,269.23621"/><path id="path4703" fill="#000" fill-opacity="0" fill-rule="evenodd" d="M 373.82906,350.15582 354.333,269.24243"/><path id="path4705" fill-rule="evenodd" stroke="#424242" stroke-linecap="butt" stroke-linejoin="round" stroke-width="1" d="M 373.82906,350.15582 354.333,269.24243"/><path id="path4707" fill="#000" fill-opacity="0" fill-rule="evenodd" d="m 379.31886,347.88187 9.38583,-78.64566"/><path id="path4709" fill-rule="evenodd" stroke="#424242" stroke-linecap="butt" stroke-linejoin="round" stroke-width="1" d="m 379.31886,347.88187 9.38583,-78.64566"/><path id="path4711" fill="#cfe2f3" fill-rule="evenodd" d="M 96.279152,374.5774 H 474.24629 v 31.3071 H 96.279152 Z"/><path id="path4715" fill="#cfe2f3" fill-rule="evenodd" d="m 449.61022,356.28504 v 0 c 0,-4.28781 3.47595,-7.76379 7.76376,-7.76379 v 0 c 2.05909,0 4.03385,0.81799 5.48984,2.27395 1.45599,1.456 2.27396,3.43076 2.27396,5.48984 v 0 c 0,4.28781 -3.47599,7.76376 -7.7638,7.76376 v 0 c -4.28781,0 -7.76376,-3.47595 -7.76376,-7.76376 z"/><path id="path4717" fill-rule="evenodd" stroke="#424242" stroke-linecap="butt" stroke-linejoin="round" stroke-width="1" d="m 449.61022,356.28504 v 0 c 0,-4.28781 3.47595,-7.76379 7.76376,-7.76379 v 0 c 2.05909,0 4.03385,0.81799 5.48984,2.27395 1.45599,1.456 2.27396,3.43076 2.27396,5.48984 v 0 c 0,4.28781 -3.47599,7.76376 -7.7638,7.76376 v 0 c -4.28781,0 -7.76376,-3.47595 -7.76376,-7.76376 z"/><path id="path4719" fill="#000" fill-opacity="0" fill-rule="evenodd" d="M 451.88418,350.7952 319.97866,269.2519"/><path id="path4721" fill-rule="evenodd" stroke="#424242" stroke-linecap="butt" stroke-linejoin="round" stroke-width="1" d="M 451.88418,350.7952 319.97866,269.2519"/><path id="path4723" fill="#000" fill-opacity="0" fill-rule="evenodd" d="m 451.88418,350.7952 -97.5433,-81.5433"/><path id="path4725" fill-rule="evenodd" stroke="#424242" stroke-linecap="butt" stroke-linejoin="round" stroke-width="1" d="m 451.88418,350.7952 -97.5433,-81.5433"/><path id="path4727" fill="#000" fill-opacity="0" fill-rule="evenodd" d="M 451.88418,350.7952 388.70306,269.2519"/><path id="path4729" fill-rule="evenodd" stroke="#424242" stroke-linecap="butt" stroke-linejoin="round" stroke-width="1" d="M 451.88418,350.7952 388.70306,269.2519"/><path id="path4731" fill="#cfe2f3" fill-rule="evenodd" d="m 395.49212,350.71659 v 0 c 0,-1.87 1.5159,-3.38589 3.38589,-3.38589 h 40.25183 c 0.89798,0 1.75919,0.35672 2.39417,0.99169 0.63498,0.63498 0.99173,1.49619 0.99173,2.3942 v 13.54315 c 0,1.87 -1.51593,3.3859 -3.3859,3.3859 h -40.25183 v 0 c -1.86999,0 -3.38589,-1.5159 -3.38589,-3.3859 z"/><path id="path4733" fill-rule="evenodd" stroke="#424242" stroke-linecap="butt" stroke-linejoin="round" stroke-width="1" d="m 395.49212,350.71659 v 0 c 0,-1.87 1.5159,-3.38589 3.38589,-3.38589 h 40.25183 c 0.89798,0 1.75919,0.35672 2.39417,0.99169 0.63498,0.63498 0.99173,1.49619 0.99173,2.3942 v 13.54315 c 0,1.87 -1.51593,3.3859 -3.3859,3.3859 h -40.25183 v 0 c -1.86999,0 -3.38589,-1.5159 -3.38589,-3.3859 z"/><path id="path4735" fill="#d9ead3" fill-rule="evenodd" d="m 147.83068,150.22045 v 0 c 0,-5.6881 4.61111,-10.29921 10.29922,-10.29921 h 66.77429 v 0 h 33.03148 11.7218 c 2.7315,0 5.35116,1.0851 7.28262,3.01657 1.93149,1.93147 3.01657,4.55112 3.01657,7.28264 v 25.74803 0 15.44882 0 c 0,5.68811 -4.61111,10.29923 -10.29919,10.29923 h -11.7218 l 49.30768,39.79245 -82.33916,-39.79245 h -66.77428 c -5.68812,0 -10.29923,-4.61112 -10.29923,-10.29923 v 0 -15.44882 0 z"/><path id="path4737" fill-rule="evenodd" stroke="#424242" stroke-linecap="butt" stroke-linejoin="round" stroke-width="1" d="m 147.83068,150.22045 v 0 c 0,-5.6881 4.61111,-10.29921 10.29922,-10.29921 h 66.77429 v 0 h 33.03148 11.7218 c 2.7315,0 5.35116,1.0851 7.28262,3.01657 1.93149,1.93147 3.01657,4.55112 3.01657,7.28264 v 25.74803 0 15.44882 0 c 0,5.68811 -4.61111,10.29923 -10.29919,10.29923 h -11.7218 l 49.30768,39.79245 -82.33916,-39.79245 h -66.77428 c -5.68812,0 -10.29923,-4.61112 -10.29923,-10.29923 v 0 -15.44882 0 z"/><path id="path4739" fill="#cfe2f3" fill-rule="evenodd" d="m 66.967171,268.88056 v 0 c 0,-3.7428 3.034123,-6.77692 6.776901,-6.77692 h 32.120738 v 0 h 58.34646 129.36484 c 1.79733,0 3.52105,0.71399 4.79199,1.98493 1.2709,1.2709 1.98489,2.99463 1.98489,4.79199 v 16.94226 0 10.16534 0 c 0,3.74277 -3.03412,6.77692 -6.77688,6.77692 H 164.21127 l 17.32267,23.78082 -75.66913,-23.78082 H 73.744074 c -3.742779,0 -6.776901,-3.03415 -6.776901,-6.77692 v 0 -10.16534 0 z"/><path id="path4741" fill-rule="evenodd" stroke="#424242" stroke-linecap="butt" stroke-linejoin="round" stroke-width="1" d="m 66.967171,268.88056 v 0 c 0,-3.7428 3.034123,-6.77692 6.776901,-6.77692 h 32.120738 v 0 h 58.34646 129.36484 c 1.79733,0 3.52105,0.71399 4.79199,1.98493 1.2709,1.2709 1.98489,2.99463 1.98489,4.79199 v 16.94226 0 10.16534 0 c 0,3.74277 -3.03412,6.77692 -6.77688,6.77692 H 164.21127 l 17.32267,23.78082 -75.66913,-23.78082 H 73.744074 c -3.742779,0 -6.776901,-3.03415 -6.776901,-6.77692 v 0 -10.16534 0 z"/><path id="path4747" fill="#000" fill-opacity="0" fill-rule="evenodd" d="M 671.63116,357.54065 483.66268,196.78476"/><path id="path4749" fill-rule="evenodd" stroke="#424242" stroke-linecap="butt" stroke-linejoin="round" stroke-width=".957" d="M 661.50007,352.47359 483.66268,196.78476"/><path id="path4751" fill="#000" fill-opacity="0" fill-rule="evenodd" d="M 671.63906,357.54065 452.42647,196.78476"/><path id="path4753" fill-rule="evenodd" stroke="#424242" stroke-linecap="butt" stroke-linejoin="round" stroke-width=".961" d="M 661.50007,352.47359 452.42647,196.78476"/><path id="path4755" fill="#000" fill-opacity="0" fill-rule="evenodd" d="M 671.64696,357.54065 421.19029,196.78476"/><path id="path4757" fill-rule="evenodd" stroke="#424242" stroke-linecap="butt" stroke-linejoin="round" stroke-width=".964" d="M 661.50007,352.47359 421.19029,196.78476"/><path id="path4759" fill="#000" fill-opacity="0" fill-rule="evenodd" d="M 671.65481,357.54065 389.95403,196.78476"/><path id="path4761" fill-rule="evenodd" stroke="#424242" stroke-linecap="butt" stroke-linejoin="round" stroke-width=".966" d="M 661.50007,352.47359 389.94586,196.77036"/><path id="path4763" fill="#000" fill-opacity="0" fill-rule="evenodd" d="M 547.28736,349.53278 483.66532,196.77689"/><path id="path4765" fill-rule="evenodd" stroke="#424242" stroke-linecap="butt" stroke-linejoin="round" stroke-width="1" d="M 547.28736,349.53278 483.66532,196.77689"/><path id="path4767" fill="#000" fill-opacity="0" fill-rule="evenodd" d="M 547.28736,349.53278 452.42121,196.77689"/><path id="path4769" fill-rule="evenodd" stroke="#424242" stroke-linecap="butt" stroke-linejoin="round" stroke-width="1" d="M 547.28736,349.53278 452.42121,196.77689"/><path id="path4771" fill="#000" fill-opacity="0" fill-rule="evenodd" d="M 555.67246,353.00599 421.18427,196.78553"/><path id="path4773" fill-rule="evenodd" stroke="#424242" stroke-linecap="butt" stroke-linejoin="round" stroke-width="1" d="M 555.67246,353.00599 421.18427,196.78553"/><path id="path4775" fill="#000" fill-opacity="0" fill-rule="evenodd" d="M 547.28736,349.53278 389.96451,196.77689"/><path id="path4777" fill-rule="evenodd" stroke="#424242" stroke-linecap="butt" stroke-linejoin="round" stroke-width="1" d="M 547.28736,349.53278 389.96451,196.77689"/><path id="path4779" fill="#000" fill-opacity="0" fill-rule="evenodd" d="m 388.70996,245.53278 94.96063,-48.75589"/><path id="path4781" fill-rule="evenodd" stroke="#424242" stroke-linecap="butt" stroke-linejoin="round" stroke-width="1" d="m 388.70996,245.53278 94.96063,-48.75589"/><path id="path4783" fill="#000" fill-opacity="0" fill-rule="evenodd" d="m 388.70996,245.53278 63.71652,-48.75589"/><path id="path4785" fill-rule="evenodd" stroke="#424242" stroke-linecap="butt" stroke-linejoin="round" stroke-width="1" d="m 388.70996,245.53278 63.71652,-48.75589"/><path id="path4787" fill="#000" fill-opacity="0" fill-rule="evenodd" d="M 388.70996,245.53278 421.1824,196.77689"/><path id="path4789" fill-rule="evenodd" stroke="#424242" stroke-linecap="butt" stroke-linejoin="round" stroke-width="1" d="M 388.70996,245.53278 421.1824,196.77689"/><path id="path4791" fill="#000" fill-opacity="0" fill-rule="evenodd" d="m 388.70996,245.53278 1.25983,-48.75589"/><path id="path4793" fill-rule="evenodd" stroke="#424242" stroke-linecap="butt" stroke-linejoin="round" stroke-width="1" d="m 388.70996,245.53278 1.25983,-48.75589"/><path id="path4795" fill="#000" fill-opacity="0" fill-rule="evenodd" d="M 354.34774,245.53278 483.67059,196.77689"/><path id="path4797" fill-rule="evenodd" stroke="#424242" stroke-linecap="butt" stroke-linejoin="round" stroke-width="1" d="M 354.34774,245.53278 483.67059,196.77689"/><path id="path4799" fill="#000" fill-opacity="0" fill-rule="evenodd" d="m 354.34774,245.53278 98.07873,-48.75589"/><path id="path4801" fill-rule="evenodd" stroke="#424242" stroke-linecap="butt" stroke-linejoin="round" stroke-width="1" d="m 354.34774,245.53278 98.07873,-48.75589"/><path id="path4803" fill="#000" fill-opacity="0" fill-rule="evenodd" d="M 354.34774,245.53278 421.1824,196.77689"/><path id="path4805" fill-rule="evenodd" stroke="#424242" stroke-linecap="butt" stroke-linejoin="round" stroke-width="1" d="M 354.34774,245.53278 421.1824,196.77689"/><path id="path4807" fill="#000" fill-opacity="0" fill-rule="evenodd" d="m 354.34774,245.53278 35.62204,-48.75589"/><path id="path4809" fill-rule="evenodd" stroke="#424242" stroke-linecap="butt" stroke-linejoin="round" stroke-width="1" d="m 354.34774,245.53278 35.62204,-48.75589"/><path id="path4811" fill="#000" fill-opacity="0" fill-rule="evenodd" d="m 319.98556,245.53278 69.98422,-48.75589"/><path id="path4813" fill-rule="evenodd" stroke="#424242" stroke-linecap="butt" stroke-linejoin="round" stroke-width="1" d="m 319.98556,245.53278 69.98422,-48.75589"/><path id="path4815" fill="#000" fill-opacity="0" fill-rule="evenodd" d="M 319.98556,245.53278 421.1824,196.77689"/><path id="path4817" fill-rule="evenodd" stroke="#424242" stroke-linecap="butt" stroke-linejoin="round" stroke-width="1" d="M 319.98556,245.53278 421.1824,196.77689"/><path id="path4819" fill="#000" fill-opacity="0" fill-rule="evenodd" d="M 319.98556,245.53278 452.42648,196.77689"/><path id="path4821" fill-rule="evenodd" stroke="#424242" stroke-linecap="butt" stroke-linejoin="round" stroke-width="1" d="M 319.98556,245.53278 452.42648,196.77689"/><path id="path4823" fill="#000" fill-opacity="0" fill-rule="evenodd" d="M 319.98556,245.53278 483.67059,196.77689"/><path id="path4825" fill-rule="evenodd" stroke="#424242" stroke-linecap="butt" stroke-linejoin="round" stroke-width="1" d="M 319.98556,245.53278 483.67059,196.77689"/><path id="path4827" fill="#000" fill-opacity="0" fill-rule="evenodd" d="m 389.95403,173.06822 17.44882,-20.91338"/><path id="path4829" fill-rule="evenodd" stroke="#424242" stroke-linecap="butt" stroke-linejoin="round" stroke-width="1" d="m 389.95403,173.06822 17.44882,-20.91338"/><path id="path4831" fill="#000" fill-opacity="0" fill-rule="evenodd" d="m 389.95403,173.06822 48.69293,-20.91338"/><path id="path4833" fill-rule="evenodd" stroke="#424242" stroke-linecap="butt" stroke-linejoin="round" stroke-width="1" d="m 389.95403,173.06822 48.69293,-20.91338"/><path id="path4835" fill="#000" fill-opacity="0" fill-rule="evenodd" d="m 389.95403,173.06822 79.93701,-20.91338"/><path id="path4837" fill-rule="evenodd" stroke="#424242" stroke-linecap="butt" stroke-linejoin="round" stroke-width="1" d="m 389.95403,173.06822 79.93701,-20.91338"/><path id="path4839" fill="#000" fill-opacity="0" fill-rule="evenodd" d="M 421.19026,173.06822 407.42647,152.15484"/><path id="path4841" fill-rule="evenodd" stroke="#424242" stroke-linecap="butt" stroke-linejoin="round" stroke-width="1" d="M 421.19026,173.06822 407.42647,152.15484"/><path id="path4843" fill="#000" fill-opacity="0" fill-rule="evenodd" d="m 421.19026,173.06822 18.4252,-20.91338"/><path id="path4845" fill-rule="evenodd" stroke="#424242" stroke-linecap="butt" stroke-linejoin="round" stroke-width="1" d="m 421.19026,173.06822 18.4252,-20.91338"/><path id="path4847" fill="#000" fill-opacity="0" fill-rule="evenodd" d="m 421.19026,173.06822 48.6929,-20.91338"/><path id="path4849" fill-rule="evenodd" stroke="#424242" stroke-linecap="butt" stroke-linejoin="round" stroke-width="1" d="m 421.19026,173.06822 48.6929,-20.91338"/><path id="path4851" fill="#000" fill-opacity="0" fill-rule="evenodd" d="M 452.42646,173.06822 407.41859,152.15484"/><path id="path4853" fill-rule="evenodd" stroke="#424242" stroke-linecap="butt" stroke-linejoin="round" stroke-width="1" d="M 452.42646,173.06822 407.41859,152.15484"/><path id="path4855" fill="#000" fill-opacity="0" fill-rule="evenodd" d="M 483.66271,173.06822 438.65484,152.15484"/><path id="path4857" fill-rule="evenodd" stroke="#424242" stroke-linecap="butt" stroke-linejoin="round" stroke-width="1" d="M 483.66271,173.06822 438.65484,152.15484"/><path id="path4859" fill="#000" fill-opacity="0" fill-rule="evenodd" d="M 483.66271,173.06822 469.89892,152.15484"/><path id="path4861" fill-rule="evenodd" stroke="#424242" stroke-linecap="butt" stroke-linejoin="round" stroke-width="1" d="M 483.66271,173.06822 469.89892,152.15484"/><path id="path4863" fill="#000" fill-opacity="0" fill-rule="evenodd" d="m 452.42646,173.06822 17.44882,-20.91338"/><path id="path4865" fill-rule="evenodd" stroke="#424242" stroke-linecap="butt" stroke-linejoin="round" stroke-width="1" d="m 452.42646,173.06822 17.44882,-20.91338"/><path id="path4871" fill="#000" fill-opacity="0" fill-rule="evenodd" d="M 452.42646,173.06822 438.6627,152.15484"/><path id="path4873" fill-rule="evenodd" stroke="#424242" stroke-linecap="butt" stroke-linejoin="round" stroke-width="1" d="M 452.42646,173.06822 438.6627,152.15484"/><path id="path4875" fill="#000" fill-opacity="0" fill-rule="evenodd" d="M 483.66271,173.06822 438.65484,152.15484"/><path id="path4877" fill-rule="evenodd" stroke="#424242" stroke-linecap="butt" stroke-linejoin="round" stroke-width="1" d="M 483.66271,173.06822 438.65484,152.15484"/><path id="path4879" fill="#b4a7d6" fill-rule="evenodd" d="m 260.83593,55.15183 v 0 c 0,-4.06457 3.29501,-7.35957 7.35959,-7.35957 h 33.46457 v 0 h 17.49606 4.30445 c 1.9519,0 3.82382,0.77537 5.204,2.15556 1.38019,1.38019 2.15558,3.25214 2.15558,5.20401 v 18.39896 l 36.53388,10.58262 -36.53388,0.45674 v 0 c 0,4.06459 -3.29498,7.35958 -7.35958,7.35958 h -4.30445 -17.49606 v 0 h -33.46457 c -4.06458,0 -7.35959,-3.29499 -7.35959,-7.35958 v 0 -11.03936 0 z"/><path id="path4881" fill-rule="evenodd" stroke="#424242" stroke-linecap="butt" stroke-linejoin="round" stroke-width="1" d="m 260.83593,55.15183 v 0 c 0,-4.06457 3.29501,-7.35957 7.35959,-7.35957 h 33.46457 v 0 h 17.49606 4.30445 c 1.9519,0 3.82382,0.77537 5.204,2.15556 1.38019,1.38019 2.15558,3.25214 2.15558,5.20401 v 18.39896 l 36.53388,10.58262 -36.53388,0.45674 v 0 c 0,4.06459 -3.29498,7.35958 -7.35958,7.35958 h -4.30445 -17.49606 v 0 h -33.46457 c -4.06458,0 -7.35959,-3.29499 -7.35959,-7.35958 v 0 -11.03936 0 z"/><path id="path4887" fill="#f9cb9c" fill-rule="evenodd" d="m 629.55506,256.5774 h 234.07366 v 45.39428 H 629.55506 Z"/><path id="path4889" fill-rule="evenodd" stroke="#424242" stroke-linecap="butt" stroke-linejoin="round" stroke-width="1.582" d="m 629.84607,256.86841 h 232.25292 v 46.05098 H 629.84607 Z"/><path id="path4891" fill="#f9cb9c" fill-rule="evenodd" d="m 651.55506,243.64562 v 0 c 0,-4.28781 3.47595,-7.76376 7.76379,-7.76376 v 0 c 2.05909,0 4.03382,0.81796 5.48981,2.27395 1.45599,1.456 2.27399,3.43073 2.27399,5.48981 v 0 c 0,4.28784 -3.47595,7.76379 -7.7638,7.76379 v 0 c -4.28784,0 -7.76379,-3.47595 -7.76379,-7.76379 z"/><path id="path4893" fill-rule="evenodd" stroke="#424242" stroke-linecap="butt" stroke-linejoin="round" stroke-width="1" d="m 651.55506,243.64562 v 0 c 0,-4.28781 3.47595,-7.76376 7.76379,-7.76376 v 0 c 2.05909,0 4.03382,0.81796 5.48981,2.27395 1.45599,1.456 2.27399,3.43073 2.27399,5.48981 v 0 c 0,4.28784 -3.47595,7.76379 -7.7638,7.76379 v 0 c -4.28784,0 -7.76379,-3.47595 -7.76379,-7.76379 z"/><path id="path4895" fill="#f9cb9c" fill-rule="evenodd" d="m 683.55506,243.64562 v 0 c 0,-4.28781 3.47595,-7.76376 7.76379,-7.76376 v 0 c 2.05909,0 4.03382,0.81796 5.48981,2.27395 1.45599,1.456 2.27399,3.43073 2.27399,5.48981 v 0 c 0,4.28784 -3.47595,7.76379 -7.7638,7.76379 v 0 c -4.28784,0 -7.76379,-3.47595 -7.76379,-7.76379 z"/><path id="path4897" fill-rule="evenodd" stroke="#424242" stroke-linecap="butt" stroke-linejoin="round" stroke-width="1" d="m 683.55506,243.64562 v 0 c 0,-4.28781 3.47595,-7.76376 7.76379,-7.76376 v 0 c 2.05909,0 4.03382,0.81796 5.48981,2.27395 1.45599,1.456 2.27399,3.43073 2.27399,5.48981 v 0 c 0,4.28784 -3.47595,7.76379 -7.7638,7.76379 v 0 c -4.28784,0 -7.76379,-3.47595 -7.76379,-7.76379 z"/><path id="path4899" fill="#f9cb9c" fill-rule="evenodd" d="m 715.55506,243.64562 v 0 c 0,-4.28781 3.47595,-7.76376 7.76379,-7.76376 v 0 c 2.05909,0 4.03382,0.81796 5.48981,2.27395 1.45599,1.456 2.27399,3.43073 2.27399,5.48981 v 0 c 0,4.28784 -3.47595,7.76379 -7.7638,7.76379 v 0 c -4.28784,0 -7.76379,-3.47595 -7.76379,-7.76379 z"/><path id="path4901" fill-rule="evenodd" stroke="#424242" stroke-linecap="butt" stroke-linejoin="round" stroke-width="1" d="m 715.55506,243.64562 v 0 c 0,-4.28781 3.47595,-7.76376 7.76379,-7.76376 v 0 c 2.05909,0 4.03382,0.81796 5.48981,2.27395 1.45599,1.456 2.27399,3.43073 2.27399,5.48981 v 0 c 0,4.28784 -3.47595,7.76379 -7.7638,7.76379 v 0 c -4.28784,0 -7.76379,-3.47595 -7.76379,-7.76379 z"/><path id="path4903" fill="#f9cb9c" fill-rule="evenodd" d="m 807.8832,244.14462 v 0 c 0,-4.28784 3.47595,-7.76379 7.76373,-7.76379 v 0 c 2.05908,0 4.03388,0.81796 5.48987,2.27395 1.45599,1.456 2.27393,3.43076 2.27393,5.48984 v 0 c 0,4.28781 -3.47596,7.76376 -7.7638,7.76376 v 0 c -4.28778,0 -7.76373,-3.47595 -7.76373,-7.76376 z"/><path id="path4905" fill-rule="evenodd" stroke="#424242" stroke-linecap="butt" stroke-linejoin="round" stroke-width="1" d="m 807.8832,244.14462 v 0 c 0,-4.28784 3.47595,-7.76379 7.76373,-7.76379 v 0 c 2.05908,0 4.03388,0.81796 5.48987,2.27395 1.45599,1.456 2.27393,3.43076 2.27393,5.48984 v 0 c 0,4.28781 -3.47596,7.76376 -7.7638,7.76376 v 0 c -4.28778,0 -7.76373,-3.47595 -7.76373,-7.76376 z"/><path id="path4907" fill="#f9cb9c" fill-rule="evenodd" d="m 667.55506,243.64562 v 0 c 0,-4.28781 3.47595,-7.76376 7.76379,-7.76376 v 0 c 2.05909,0 4.03382,0.81796 5.48981,2.27395 1.45599,1.456 2.27399,3.43073 2.27399,5.48981 v 0 c 0,4.28784 -3.47595,7.76379 -7.7638,7.76379 v 0 c -4.28784,0 -7.76379,-3.47595 -7.76379,-7.76379 z"/><path id="path4909" fill-rule="evenodd" stroke="#424242" stroke-linecap="butt" stroke-linejoin="round" stroke-width="1" d="m 667.55506,243.64562 v 0 c 0,-4.28781 3.47595,-7.76376 7.76379,-7.76376 v 0 c 2.05909,0 4.03382,0.81796 5.48981,2.27395 1.45599,1.456 2.27399,3.43073 2.27399,5.48981 v 0 c 0,4.28784 -3.47595,7.76379 -7.7638,7.76379 v 0 c -4.28784,0 -7.76379,-3.47595 -7.76379,-7.76379 z"/><path id="path4911" fill="#f9cb9c" fill-rule="evenodd" d="m 699.55506,243.64562 v 0 c 0,-4.28781 3.47595,-7.76376 7.76379,-7.76376 v 0 c 2.05909,0 4.03382,0.81796 5.48981,2.27395 1.45599,1.456 2.27399,3.43073 2.27399,5.48981 v 0 c 0,4.28784 -3.47595,7.76379 -7.7638,7.76379 v 0 c -4.28784,0 -7.76379,-3.47595 -7.76379,-7.76379 z"/><path id="path4913" fill-rule="evenodd" stroke="#424242" stroke-linecap="butt" stroke-linejoin="round" stroke-width="1" d="m 699.55506,243.64562 v 0 c 0,-4.28781 3.47595,-7.76376 7.76379,-7.76376 v 0 c 2.05909,0 4.03382,0.81796 5.48981,2.27395 1.45599,1.456 2.27399,3.43073 2.27399,5.48981 v 0 c 0,4.28784 -3.47595,7.76379 -7.7638,7.76379 v 0 c -4.28784,0 -7.76379,-3.47595 -7.76379,-7.76379 z"/><path id="path4915" fill="#f9cb9c" fill-rule="evenodd" d="m 731.55506,243.64562 v 0 c 0,-4.28781 3.47595,-7.76376 7.76379,-7.76376 v 0 c 2.05909,0 4.03382,0.81796 5.48981,2.27395 1.45599,1.456 2.27399,3.43073 2.27399,5.48981 v 0 c 0,4.28784 -3.47595,7.76379 -7.7638,7.76379 v 0 c -4.28784,0 -7.76379,-3.47595 -7.76379,-7.76379 z"/><path id="path4917" fill-rule="evenodd" stroke="#424242" stroke-linecap="butt" stroke-linejoin="round" stroke-width="1" d="m 731.55506,243.64562 v 0 c 0,-4.28781 3.47595,-7.76376 7.76379,-7.76376 v 0 c 2.05909,0 4.03382,0.81796 5.48981,2.27395 1.45599,1.456 2.27399,3.43073 2.27399,5.48981 v 0 c 0,4.28784 -3.47595,7.76379 -7.7638,7.76379 v 0 c -4.28784,0 -7.76379,-3.47595 -7.76379,-7.76379 z"/><path id="path4919" fill="#d9ead3" fill-rule="evenodd" d="m 481.74406,23.41205 v 0 c 0,-10.22814 44.15109,-18.51968 98.61417,-18.51968 v 0 c 54.46314,0 98.6142,8.29154 98.6142,18.51968 v 0 c 0,10.22813 -44.15106,18.51968 -98.6142,18.51968 v 0 c -54.46307,0 -98.61417,-8.29155 -98.61417,-18.51968 z"/><path id="path4921" fill-rule="evenodd" stroke="#424242" stroke-linecap="butt" stroke-linejoin="round" stroke-width="1" d="m 481.74406,23.41205 v 0 c 0,-10.22814 44.15109,-18.51968 98.61417,-18.51968 v 0 c 54.46314,0 98.6142,8.29154 98.6142,18.51968 v 0 c 0,10.22813 -44.15106,18.51968 -98.6142,18.51968 v 0 c -54.46307,0 -98.61417,-8.29155 -98.61417,-18.51968 z"/><path id="path4925" fill="#f9cb9c" fill-rule="evenodd" d="m 808.5472,149.66402 v 0 c 0,-5.3808 4.362,-9.74278 9.7428,-9.74278 h 10.48822 v 0 h 30.34643 61.06562 c 2.58392,0 5.06207,1.02647 6.88916,2.85359 1.82715,1.82713 2.85363,4.30524 2.85363,6.88919 v 24.35695 0 14.61416 0 c 0,5.3808 -4.36199,9.7428 -9.74279,9.7428 h -61.06562 l -46.81933,28.57715 16.4729,-28.57715 H 818.29 c -5.3808,0 -9.7428,-4.362 -9.7428,-9.7428 v 0 -14.61416 0 z"/><path id="path4927" fill-rule="evenodd" stroke="#424242" stroke-linecap="butt" stroke-linejoin="round" stroke-width="1" d="m 808.5472,149.66402 v 0 c 0,-5.3808 4.362,-9.74278 9.7428,-9.74278 h 10.48822 v 0 h 30.34643 61.06562 c 2.58392,0 5.06207,1.02647 6.88916,2.85359 1.82715,1.82713 2.85363,4.30524 2.85363,6.88919 v 24.35695 0 14.61416 0 c 0,5.3808 -4.36199,9.7428 -9.74279,9.7428 h -61.06562 l -46.81933,28.57715 16.4729,-28.57715 H 818.29 c -5.3808,0 -9.7428,-4.362 -9.7428,-9.7428 v 0 -14.61416 0 z"/><path id="path4935" fill="#f9cb9c" fill-rule="evenodd" d="m 747.55506,243.64562 v 0 c 0,-4.28781 3.47595,-7.76376 7.76379,-7.76376 v 0 c 2.05909,0 4.03382,0.81796 5.48981,2.27395 1.45599,1.456 2.27399,3.43073 2.27399,5.48981 v 0 c 0,4.28784 -3.47595,7.76379 -7.7638,7.76379 v 0 c -4.28784,0 -7.76379,-3.47595 -7.76379,-7.76379 z"/><path id="path4937" fill-rule="evenodd" stroke="#424242" stroke-linecap="butt" stroke-linejoin="round" stroke-width="1" d="m 747.55506,243.64562 v 0 c 0,-4.28781 3.47595,-7.76376 7.76379,-7.76376 v 0 c 2.05909,0 4.03382,0.81796 5.48981,2.27395 1.45599,1.456 2.27399,3.43073 2.27399,5.48981 v 0 c 0,4.28784 -3.47595,7.76379 -7.7638,7.76379 v 0 c -4.28784,0 -7.76379,-3.47595 -7.76379,-7.76379 z"/><path id="path4939" fill="#f9cb9c" fill-rule="evenodd" d="m 763.55506,243.64562 v 0 c 0,-4.28781 3.47595,-7.76376 7.76379,-7.76376 v 0 c 2.05909,0 4.03382,0.81796 5.48981,2.27395 1.45599,1.456 2.27399,3.43073 2.27399,5.48981 v 0 c 0,4.28784 -3.47595,7.76379 -7.7638,7.76379 v 0 c -4.28784,0 -7.76379,-3.47595 -7.76379,-7.76379 z"/><path id="path4941" fill-rule="evenodd" stroke="#424242" stroke-linecap="butt" stroke-linejoin="round" stroke-width="1" d="m 763.55506,243.64562 v 0 c 0,-4.28781 3.47595,-7.76376 7.76379,-7.76376 v 0 c 2.05909,0 4.03382,0.81796 5.48981,2.27395 1.45599,1.456 2.27399,3.43073 2.27399,5.48981 v 0 c 0,4.28784 -3.47595,7.76379 -7.7638,7.76379 v 0 c -4.28784,0 -7.76379,-3.47595 -7.76379,-7.76379 z"/><path id="path4943" fill="#000" fill-opacity="0" fill-rule="evenodd" d="M 659.31886,235.88187 580.35823,41.92911"/><path id="path4945" fill-rule="evenodd" stroke="#424242" stroke-linecap="butt" stroke-linejoin="round" stroke-width="1" d="M 659.31886,235.88187 580.35823,41.92911"/><path id="path4947" fill="#000" fill-opacity="0" fill-rule="evenodd" d="M 675.31886,235.88187 580.35823,41.92911"/><path id="path4949" fill-rule="evenodd" stroke="#424242" stroke-linecap="butt" stroke-linejoin="round" stroke-width="1" d="M 675.31886,235.88187 580.35823,41.92911"/><path id="path4951" fill="#000" fill-opacity="0" fill-rule="evenodd" d="M 691.31886,235.88187 580.35823,41.92911"/><path id="path4953" fill-rule="evenodd" stroke="#424242" stroke-linecap="butt" stroke-linejoin="round" stroke-width="1" d="M 691.31886,235.88187 580.35823,41.92911"/><path id="path4955" fill="#000" fill-opacity="0" fill-rule="evenodd" d="M 707.31886,235.88187 580.35823,41.92911"/><path id="path4957" fill-rule="evenodd" stroke="#424242" stroke-linecap="butt" stroke-linejoin="round" stroke-width="1" d="M 707.31886,235.88187 580.35823,41.92911"/><path id="path4959" fill="#000" fill-opacity="0" fill-rule="evenodd" d="M 739.31886,235.88187 580.35823,41.92911"/><path id="path4961" fill-rule="evenodd" stroke="#424242" stroke-linecap="butt" stroke-linejoin="round" stroke-width="1" d="M 739.31886,235.88187 580.35823,41.92911"/><path id="path4963" fill="#000" fill-opacity="0" fill-rule="evenodd" d="M 755.31886,235.88187 580.35823,41.92911"/><path id="path4965" fill-rule="evenodd" stroke="#424242" stroke-linecap="butt" stroke-linejoin="round" stroke-width="1" d="M 755.31886,235.88187 580.35823,41.92911"/><path id="path4967" fill="#000" fill-opacity="0" fill-rule="evenodd" d="M 723.31886,235.88187 580.35823,41.92911"/><path id="path4969" fill-rule="evenodd" stroke="#424242" stroke-linecap="butt" stroke-linejoin="round" stroke-width="1" d="M 723.31886,235.88187 580.35823,41.92911"/><path id="path4971" fill="#000" fill-opacity="0" fill-rule="evenodd" d="M 771.31886,235.88187 580.35823,41.92911"/><path id="path4973" fill-rule="evenodd" stroke="#424242" stroke-linecap="butt" stroke-linejoin="round" stroke-width="1" d="M 771.31886,235.88187 580.35823,41.92911"/><path id="path4975" fill="#000" fill-opacity="0" fill-rule="evenodd" d="M 800.15713,238.65479 580.34609,41.93038"/><path id="path4977" fill-rule="evenodd" stroke="#424242" stroke-linecap="butt" stroke-linejoin="round" stroke-width="1.029" d="M 815.64693,236.38083 580.34609,41.93038"/><path id="path4979" fill="#000" fill-opacity="0" fill-rule="evenodd" d="M 510.62749,36.50744 355.32039,91.87752"/><path id="path4981" fill-rule="evenodd" stroke="#424242" stroke-linecap="butt" stroke-linejoin="round" stroke-width="1" d="M 510.62749,36.50744 355.32039,91.87752"/><path id="path4983" fill="#000" fill-opacity="0" fill-rule="evenodd" d="M 510.62749,36.50744 371.32039,91.87752"/><path id="path4985" fill-rule="evenodd" stroke="#424242" stroke-linecap="butt" stroke-linejoin="round" stroke-width="1" d="M 510.62749,36.50744 371.32039,91.87752"/><path id="path4987" fill="#000" fill-opacity="0" fill-rule="evenodd" d="M 510.62749,36.50744 387.32039,91.87752"/><path id="path4989" fill-rule="evenodd" stroke="#424242" stroke-linecap="butt" stroke-linejoin="round" stroke-width="1" d="M 510.62749,36.50744 387.32039,91.87752"/><path id="path4991" fill="#000" fill-opacity="0" fill-rule="evenodd" d="M 510.62749,36.50744 403.32039,91.87752"/><path id="path4993" fill-rule="evenodd" stroke="#424242" stroke-linecap="butt" stroke-linejoin="round" stroke-width="1" d="M 510.62749,36.50744 403.32039,91.87752"/><path id="path4995" fill="#000" fill-opacity="0" fill-rule="evenodd" d="m 510.62749,36.50744 -91.3071,55.37008"/><path id="path4997" fill-rule="evenodd" stroke="#424242" stroke-linecap="butt" stroke-linejoin="round" stroke-width="1" d="m 510.62749,36.50744 -91.3071,55.37008"/><path id="path4999" fill="#000" fill-opacity="0" fill-rule="evenodd" d="m 510.62749,36.50744 -75.3071,55.37008"/><path id="path5001" fill-rule="evenodd" stroke="#424242" stroke-linecap="butt" stroke-linejoin="round" stroke-width="1" d="m 510.62749,36.50744 -75.3071,55.37008"/><path id="path5003" fill="#000" fill-opacity="0" fill-rule="evenodd" d="m 510.62749,36.50744 -59.3071,55.37008"/><path id="path5005" fill-rule="evenodd" stroke="#424242" stroke-linecap="butt" stroke-linejoin="round" stroke-width="1" d="m 510.62749,36.50744 -59.3071,55.37008"/><path id="path5007" fill="#000" fill-opacity="0" fill-rule="evenodd" d="m 510.62749,36.50744 -43.3071,55.37008"/><path id="path5009" fill-rule="evenodd" stroke="#424242" stroke-linecap="butt" stroke-linejoin="round" stroke-width="1" d="m 510.62749,36.50744 -43.3071,55.37008"/><path id="path5011" fill="#000" fill-opacity="0" fill-rule="evenodd" d="M 510.62749,36.50744 482.72197,92.035"/><path id="path5013" fill-rule="evenodd" stroke="#424242" stroke-linecap="butt" stroke-linejoin="round" stroke-width="1" d="M 510.62749,36.50744 482.72197,92.035"/><path id="path5015" fill="#b4a7d6" fill-rule="evenodd" d="m 347.55511,99.64565 v 0 c 0,-4.28783 3.47595,-7.76378 7.76376,-7.76378 v 0 c 2.05909,0 4.03385,0.81796 5.48984,2.27396 1.45599,1.45599 2.27396,3.43074 2.27396,5.48982 v 0 c 0,4.28781 -3.47599,7.76378 -7.7638,7.76378 v 0 c -4.28781,0 -7.76376,-3.47597 -7.76376,-7.76378 z"/><path id="path5017" fill-rule="evenodd" stroke="#000" stroke-linecap="butt" stroke-linejoin="round" stroke-width="1" d="m 347.55511,99.64565 v 0 c 0,-4.28783 3.47595,-7.76378 7.76376,-7.76378 v 0 c 2.05909,0 4.03385,0.81796 5.48984,2.27396 1.45599,1.45599 2.27396,3.43074 2.27396,5.48982 v 0 c 0,4.28781 -3.47599,7.76378 -7.7638,7.76378 v 0 c -4.28781,0 -7.76376,-3.47597 -7.76376,-7.76378 z"/><path id="path5019" fill="#b4a7d6" fill-rule="evenodd" d="m 379.55511,99.64565 v 0 c 0,-4.28783 3.47595,-7.76378 7.76376,-7.76378 v 0 c 2.05909,0 4.03385,0.81796 5.48984,2.27396 1.45599,1.45599 2.27396,3.43074 2.27396,5.48982 v 0 c 0,4.28781 -3.47599,7.76378 -7.7638,7.76378 v 0 c -4.28781,0 -7.76376,-3.47597 -7.76376,-7.76378 z"/><path id="path5021" fill-rule="evenodd" stroke="#000" stroke-linecap="butt" stroke-linejoin="round" stroke-width="1" d="m 379.55511,99.64565 v 0 c 0,-4.28783 3.47595,-7.76378 7.76376,-7.76378 v 0 c 2.05909,0 4.03385,0.81796 5.48984,2.27396 1.45599,1.45599 2.27396,3.43074 2.27396,5.48982 v 0 c 0,4.28781 -3.47599,7.76378 -7.7638,7.76378 v 0 c -4.28781,0 -7.76376,-3.47597 -7.76376,-7.76378 z"/><path id="path5023" fill="#b4a7d6" fill-rule="evenodd" d="m 411.55511,99.64565 v 0 c 0,-4.28783 3.47595,-7.76378 7.76376,-7.76378 v 0 c 2.05909,0 4.03385,0.81796 5.48984,2.27396 1.45599,1.45599 2.27396,3.43074 2.27396,5.48982 v 0 c 0,4.28781 -3.47599,7.76378 -7.7638,7.76378 v 0 c -4.28781,0 -7.76376,-3.47597 -7.76376,-7.76378 z"/><path id="path5025" fill-rule="evenodd" stroke="#000" stroke-linecap="butt" stroke-linejoin="round" stroke-width="1" d="m 411.55511,99.64565 v 0 c 0,-4.28783 3.47595,-7.76378 7.76376,-7.76378 v 0 c 2.05909,0 4.03385,0.81796 5.48984,2.27396 1.45599,1.45599 2.27396,3.43074 2.27396,5.48982 v 0 c 0,4.28781 -3.47599,7.76378 -7.7638,7.76378 v 0 c -4.28781,0 -7.76376,-3.47597 -7.76376,-7.76378 z"/><path id="path5027" fill="#b4a7d6" fill-rule="evenodd" d="m 474.95009,99.7916 v 0 c 0,-4.28783 3.47598,-7.76378 7.76379,-7.76378 v 0 c 2.05909,0 4.03385,0.81796 5.48981,2.27396 1.45599,1.45599 2.27396,3.43074 2.27396,5.48982 v 0 c 0,4.28781 -3.47595,7.76378 -7.76377,7.76378 v 0 c -4.28781,0 -7.76379,-3.47597 -7.76379,-7.76378 z"/><path id="path5029" fill-rule="evenodd" stroke="#000" stroke-linecap="butt" stroke-linejoin="round" stroke-width="1" d="m 474.95009,99.7916 v 0 c 0,-4.28783 3.47598,-7.76378 7.76379,-7.76378 v 0 c 2.05909,0 4.03385,0.81796 5.48981,2.27396 1.45599,1.45599 2.27396,3.43074 2.27396,5.48982 v 0 c 0,4.28781 -3.47595,7.76378 -7.76377,7.76378 v 0 c -4.28781,0 -7.76379,-3.47597 -7.76379,-7.76378 z"/><path id="path5031" fill="#b4a7d6" fill-rule="evenodd" d="m 363.55511,99.64565 v 0 c 0,-4.28783 3.47595,-7.76378 7.76376,-7.76378 v 0 c 2.05909,0 4.03385,0.81796 5.48984,2.27396 1.45599,1.45599 2.27396,3.43074 2.27396,5.48982 v 0 c 0,4.28781 -3.47599,7.76378 -7.7638,7.76378 v 0 c -4.28781,0 -7.76376,-3.47597 -7.76376,-7.76378 z"/><path id="path5033" fill-rule="evenodd" stroke="#000" stroke-linecap="butt" stroke-linejoin="round" stroke-width="1" d="m 363.55511,99.64565 v 0 c 0,-4.28783 3.47595,-7.76378 7.76376,-7.76378 v 0 c 2.05909,0 4.03385,0.81796 5.48984,2.27396 1.45599,1.45599 2.27396,3.43074 2.27396,5.48982 v 0 c 0,4.28781 -3.47599,7.76378 -7.7638,7.76378 v 0 c -4.28781,0 -7.76376,-3.47597 -7.76376,-7.76378 z"/><path id="path5035" fill="#b4a7d6" fill-rule="evenodd" d="m 395.55511,99.64565 v 0 c 0,-4.28783 3.47595,-7.76378 7.76376,-7.76378 v 0 c 2.05909,0 4.03385,0.81796 5.48984,2.27396 1.45599,1.45599 2.27396,3.43074 2.27396,5.48982 v 0 c 0,4.28781 -3.47599,7.76378 -7.7638,7.76378 v 0 c -4.28781,0 -7.76376,-3.47597 -7.76376,-7.76378 z"/><path id="path5037" fill-rule="evenodd" stroke="#000" stroke-linecap="butt" stroke-linejoin="round" stroke-width="1" d="m 395.55511,99.64565 v 0 c 0,-4.28783 3.47595,-7.76378 7.76376,-7.76378 v 0 c 2.05909,0 4.03385,0.81796 5.48984,2.27396 1.45599,1.45599 2.27396,3.43074 2.27396,5.48982 v 0 c 0,4.28781 -3.47599,7.76378 -7.7638,7.76378 v 0 c -4.28781,0 -7.76376,-3.47597 -7.76376,-7.76378 z"/><path id="path5039" fill="#b4a7d6" fill-rule="evenodd" d="m 427.55511,99.64565 v 0 c 0,-4.28783 3.47595,-7.76378 7.76376,-7.76378 v 0 c 2.05909,0 4.03385,0.81796 5.48984,2.27396 1.45599,1.45599 2.27396,3.43074 2.27396,5.48982 v 0 c 0,4.28781 -3.47599,7.76378 -7.7638,7.76378 v 0 c -4.28781,0 -7.76376,-3.47597 -7.76376,-7.76378 z"/><path id="path5041" fill-rule="evenodd" stroke="#000" stroke-linecap="butt" stroke-linejoin="round" stroke-width="1" d="m 427.55511,99.64565 v 0 c 0,-4.28783 3.47595,-7.76378 7.76376,-7.76378 v 0 c 2.05909,0 4.03385,0.81796 5.48984,2.27396 1.45599,1.45599 2.27396,3.43074 2.27396,5.48982 v 0 c 0,4.28781 -3.47599,7.76378 -7.7638,7.76378 v 0 c -4.28781,0 -7.76376,-3.47597 -7.76376,-7.76378 z"/><path id="path5043" fill="#b4a7d6" fill-rule="evenodd" d="m 443.55511,99.64565 v 0 c 0,-4.28783 3.47595,-7.76378 7.76376,-7.76378 v 0 c 2.05909,0 4.03385,0.81796 5.48984,2.27396 1.45599,1.45599 2.27396,3.43074 2.27396,5.48982 v 0 c 0,4.28781 -3.47599,7.76378 -7.7638,7.76378 v 0 c -4.28781,0 -7.76376,-3.47597 -7.76376,-7.76378 z"/><path id="path5045" fill-rule="evenodd" stroke="#000" stroke-linecap="butt" stroke-linejoin="round" stroke-width="1" d="m 443.55511,99.64565 v 0 c 0,-4.28783 3.47595,-7.76378 7.76376,-7.76378 v 0 c 2.05909,0 4.03385,0.81796 5.48984,2.27396 1.45599,1.45599 2.27396,3.43074 2.27396,5.48982 v 0 c 0,4.28781 -3.47599,7.76378 -7.7638,7.76378 v 0 c -4.28781,0 -7.76376,-3.47597 -7.76376,-7.76378 z"/><path id="path5047" fill="#b4a7d6" fill-rule="evenodd" d="m 459.55511,99.64565 v 0 c 0,-4.28783 3.47595,-7.76378 7.76376,-7.76378 v 0 c 2.05909,0 4.03385,0.81796 5.48984,2.27396 1.45599,1.45599 2.27396,3.43074 2.27396,5.48982 v 0 c 0,4.28781 -3.47599,7.76378 -7.7638,7.76378 v 0 c -4.28781,0 -7.76376,-3.47597 -7.76376,-7.76378 z"/><path id="path5049" fill-rule="evenodd" stroke="#000" stroke-linecap="butt" stroke-linejoin="round" stroke-width="1" d="m 459.55511,99.64565 v 0 c 0,-4.28783 3.47595,-7.76378 7.76376,-7.76378 v 0 c 2.05909,0 4.03385,0.81796 5.48984,2.27396 1.45599,1.45599 2.27396,3.43074 2.27396,5.48982 v 0 c 0,4.28781 -3.47599,7.76378 -7.7638,7.76378 v 0 c -4.28781,0 -7.76376,-3.47597 -7.76376,-7.76378 z"/><path id="path5053" fill="#000" fill-opacity="0" fill-rule="evenodd" d="m 355.31886,107.40943 52.09448,21.03937"/><path id="path5055" fill-rule="evenodd" stroke="#424242" stroke-linecap="butt" stroke-linejoin="round" stroke-width="1" d="m 355.31886,107.40943 52.09448,21.03937"/><path id="path5057" fill="#000" fill-opacity="0" fill-rule="evenodd" d="m 387.31886,107.40943 20.09448,21.03937"/><path id="path5059" fill-rule="evenodd" stroke="#424242" stroke-linecap="butt" stroke-linejoin="round" stroke-width="1" d="m 387.31886,107.40943 20.09448,21.03937"/><path id="path5061" fill="#000" fill-opacity="0" fill-rule="evenodd" d="m 371.31886,107.40943 36.09448,21.03937"/><path id="path5063" fill-rule="evenodd" stroke="#424242" stroke-linecap="butt" stroke-linejoin="round" stroke-width="1" d="m 371.31886,107.40943 36.09448,21.03937"/><path id="path5065" fill="#000" fill-opacity="0" fill-rule="evenodd" d="m 403.31886,107.40943 4.09448,21.03937"/><path id="path5067" fill-rule="evenodd" stroke="#424242" stroke-linecap="butt" stroke-linejoin="round" stroke-width="1" d="m 403.31886,107.40943 4.09448,21.03937"/><path id="path5069" fill="#000" fill-opacity="0" fill-rule="evenodd" d="M 419.31886,107.40943 407.41334,128.4488"/><path id="path5071" fill-rule="evenodd" stroke="#424242" stroke-linecap="butt" stroke-linejoin="round" stroke-width="1" d="M 419.31886,107.40943 407.41334,128.4488"/><path id="path5073" fill="#000" fill-opacity="0" fill-rule="evenodd" d="M 435.31886,107.40943 407.41334,128.4488"/><path id="path5075" fill-rule="evenodd" stroke="#424242" stroke-linecap="butt" stroke-linejoin="round" stroke-width="1" d="M 435.31886,107.40943 407.41334,128.4488"/><path id="path5077" fill="#000" fill-opacity="0" fill-rule="evenodd" d="M 435.31886,107.40943 407.41334,128.4488"/><path id="path5079" fill-rule="evenodd" stroke="#424242" stroke-linecap="butt" stroke-linejoin="round" stroke-width="1" d="M 435.31886,107.40943 407.41334,128.4488"/><path id="path5081" fill="#000" fill-opacity="0" fill-rule="evenodd" d="M 451.31886,107.40943 407.41334,128.4488"/><path id="path5083" fill-rule="evenodd" stroke="#424242" stroke-linecap="butt" stroke-linejoin="round" stroke-width="1" d="M 451.31886,107.40943 407.41334,128.4488"/><path id="path5085" fill="#000" fill-opacity="0" fill-rule="evenodd" d="M 467.31886,107.40943 407.41334,128.4488"/><path id="path5087" fill-rule="evenodd" stroke="#424242" stroke-linecap="butt" stroke-linejoin="round" stroke-width="1" d="M 467.31886,107.40943 407.41334,128.4488"/><path id="path5089" fill="#000" fill-opacity="0" fill-rule="evenodd" d="m 482.71389,107.55538 -75.3071,20.91338"/><path id="path5091" fill-rule="evenodd" stroke="#424242" stroke-linecap="butt" stroke-linejoin="round" stroke-width="1" d="m 482.71389,107.55538 -75.3071,20.91338"/><path id="path5093" fill="#000" fill-opacity="0" fill-rule="evenodd" d="m 355.311,107.41468 83.33859,21.03937"/><path id="path5095" fill-rule="evenodd" stroke="#424242" stroke-linecap="butt" stroke-linejoin="round" stroke-width="1" d="m 355.311,107.41468 83.33859,21.03937"/><path id="path5097" fill="#000" fill-opacity="0" fill-rule="evenodd" d="m 387.311,107.41468 51.33859,21.03937"/><path id="path5099" fill-rule="evenodd" stroke="#424242" stroke-linecap="butt" stroke-linejoin="round" stroke-width="1" d="m 387.311,107.41468 51.33859,21.03937"/><path id="path5101" fill="#000" fill-opacity="0" fill-rule="evenodd" d="m 371.90941,107.41468 66.74017,21.03937"/><path id="path5103" fill-rule="evenodd" stroke="#424242" stroke-linecap="butt" stroke-linejoin="round" stroke-width="1" d="m 371.90941,107.41468 66.74017,21.03937"/><path id="path5105" fill="#000" fill-opacity="0" fill-rule="evenodd" d="m 403.311,107.41468 35.33859,21.03937"/><path id="path5107" fill-rule="evenodd" stroke="#424242" stroke-linecap="butt" stroke-linejoin="round" stroke-width="1" d="m 403.311,107.41468 35.33859,21.03937"/><path id="path5109" fill="#000" fill-opacity="0" fill-rule="evenodd" d="m 419.311,107.41468 19.33859,21.03937"/><path id="path5111" fill-rule="evenodd" stroke="#424242" stroke-linecap="butt" stroke-linejoin="round" stroke-width="1" d="m 419.311,107.41468 19.33859,21.03937"/><path id="path5113" fill="#000" fill-opacity="0" fill-rule="evenodd" d="m 435.311,107.41468 3.33859,21.03937"/><path id="path5115" fill-rule="evenodd" stroke="#424242" stroke-linecap="butt" stroke-linejoin="round" stroke-width="1" d="m 435.311,107.41468 3.33859,21.03937"/><path id="path5117" fill="#000" fill-opacity="0" fill-rule="evenodd" d="m 451.311,107.41468 -12.66141,21.03937"/><path id="path5119" fill-rule="evenodd" stroke="#424242" stroke-linecap="butt" stroke-linejoin="round" stroke-width="1" d="m 451.311,107.41468 -12.66141,21.03937"/><path id="path5121" fill="#000" fill-opacity="0" fill-rule="evenodd" d="m 467.311,107.41468 -28.66141,21.03937"/><path id="path5123" fill-rule="evenodd" stroke="#424242" stroke-linecap="butt" stroke-linejoin="round" stroke-width="1" d="m 467.311,107.41468 -28.66141,21.03937"/><path id="path5125" fill="#000" fill-opacity="0" fill-rule="evenodd" d="m 355.30312,107.41468 114.58267,21.03937"/><path id="path5127" fill-rule="evenodd" stroke="#424242" stroke-linecap="butt" stroke-linejoin="round" stroke-width="1" d="m 355.30312,107.41468 114.58267,21.03937"/><path id="path5129" fill="#000" fill-opacity="0" fill-rule="evenodd" d="m 387.31886,107.40943 20.09448,21.03937"/><path id="path5131" fill-rule="evenodd" stroke="#424242" stroke-linecap="butt" stroke-linejoin="round" stroke-width="1" d="m 387.31886,107.40943 20.09448,21.03937"/><path id="path5133" fill="#000" fill-opacity="0" fill-rule="evenodd" d="m 371.30312,107.41468 98.58267,21.03937"/><path id="path5135" fill-rule="evenodd" stroke="#424242" stroke-linecap="butt" stroke-linejoin="round" stroke-width="1" d="m 371.30312,107.41468 98.58267,21.03937"/><path id="path5137" fill="#000" fill-opacity="0" fill-rule="evenodd" d="m 403.30312,107.41468 66.58267,21.03937"/><path id="path5139" fill-rule="evenodd" stroke="#424242" stroke-linecap="butt" stroke-linejoin="round" stroke-width="1" d="m 403.30312,107.41468 66.58267,21.03937"/><path id="path5141" fill="#000" fill-opacity="0" fill-rule="evenodd" d="m 419.33462,107.41468 50.55118,21.03937"/><path id="path5143" fill-rule="evenodd" stroke="#424242" stroke-linecap="butt" stroke-linejoin="round" stroke-width="1" d="m 419.33462,107.41468 50.55118,21.03937"/><path id="path5145" fill="#000" fill-opacity="0" fill-rule="evenodd" d="m 435.30312,107.41468 34.58267,21.03937"/><path id="path5147" fill-rule="evenodd" stroke="#424242" stroke-linecap="butt" stroke-linejoin="round" stroke-width="1" d="m 435.30312,107.41468 34.58267,21.03937"/><path id="path5149" fill="#000" fill-opacity="0" fill-rule="evenodd" d="m 451.30312,107.41468 18.58267,21.03937"/><path id="path5151" fill-rule="evenodd" stroke="#424242" stroke-linecap="butt" stroke-linejoin="round" stroke-width="1" d="m 451.30312,107.41468 18.58267,21.03937"/><path id="path5153" fill="#000" fill-opacity="0" fill-rule="evenodd" d="m 467.30312,107.41468 2.58267,21.03937"/><path id="path5155" fill-rule="evenodd" stroke="#424242" stroke-linecap="butt" stroke-linejoin="round" stroke-width="1" d="m 467.30312,107.41468 2.58267,21.03937"/><path id="path5157" fill="#000" fill-opacity="0" fill-rule="evenodd" d="M 482.71389,107.55538 438.6509,128.46876"/><path id="path5159" fill-rule="evenodd" stroke="#424242" stroke-linecap="butt" stroke-linejoin="round" stroke-width="1" d="M 482.71389,107.55538 438.6509,128.46876"/><path id="path5161" fill="#000" fill-opacity="0" fill-rule="evenodd" d="m 482.71389,107.55538 -81.66928,19.93701"/><path id="path5163" fill-rule="evenodd" stroke="#424242" stroke-linecap="butt" stroke-linejoin="round" stroke-width="1" d="m 482.71389,107.55538 -81.66928,19.93701"/><path id="path5165" fill="#000" fill-opacity="0" fill-rule="evenodd" d="m 342.35692,81.9278 h 20.66144 v 23.71654 h -20.66144 z"/><path id="path5169" fill="#000" fill-opacity="0" fill-rule="evenodd" d="m 356.85692,81.4278 h 20.66144 v 23.71654 h -20.66144 z"/><path id="path5173" fill="#000" fill-opacity="0" fill-rule="evenodd" d="m 646.35696,225.4278 h 20.66138 v 23.71652 h -20.66138 z"/><path id="path5177" fill="#000" fill-opacity="0" fill-rule="evenodd" d="m 660.78213,225.81495 h 20.66144 v 23.71652 h -20.66144 z"/><path id="path5181" fill="#000" fill-opacity="0" fill-rule="evenodd" d="m 678.35696,225.4278 h 20.66138 v 23.71652 h -20.66138 z"/><path id="path5185" fill="#000" fill-opacity="0" fill-rule="evenodd" d="m 694.35696,225.4278 h 20.66138 v 23.71652 h -20.66138 z"/><path id="path5189" fill="#000" fill-opacity="0" fill-rule="evenodd" d="m 710.35696,225.4278 h 20.66138 v 23.71652 h -20.66138 z"/><path id="path5193" fill="#000" fill-opacity="0" fill-rule="evenodd" d="m 726.35696,225.4278 h 20.66138 v 23.71652 h -20.66138 z"/><path id="path5197" fill="#000" fill-opacity="0" fill-rule="evenodd" d="m 742.35696,226.4278 h 20.66138 v 23.71652 h -20.66138 z"/><path id="path5201" fill="#000" fill-opacity="0" fill-rule="evenodd" d="m 758.35696,225.4278 h 20.66138 v 23.71652 h -20.66138 z"/><path id="path5209" fill="#000" fill-opacity="0" fill-rule="evenodd" d="m 774.85696,224.9278 h 20.66138 v 23.71652 h -20.66138 z"/><path id="path5213" fill="#000" fill-opacity="0" fill-rule="evenodd" d="m 790.35696,209.9278 h 20.66138 v 23.71652 h -20.66138 z"/><path id="path5217" fill="#000" fill-opacity="0" fill-rule="evenodd" d="m 342.35692,81.9278 h 20.66144 v 23.71654 h -20.66144 z"/><path id="path5221" fill="#000" fill-opacity="0" fill-rule="evenodd" d="m 374.35692,81.9278 h 20.66144 v 23.71654 h -20.66144 z"/><path id="path5225" fill="#000" fill-opacity="0" fill-rule="evenodd" d="m 390.35692,81.9278 h 20.66144 v 23.71654 h -20.66144 z"/><path id="path5229" fill="#000" fill-opacity="0" fill-rule="evenodd" d="m 406.35692,81.9278 h 20.66144 v 23.71654 h -20.66144 z"/><path id="path5233" fill="#000" fill-opacity="0" fill-rule="evenodd" d="m 422.35692,81.9278 h 20.66144 v 23.71654 h -20.66144 z"/><path id="path5237" fill="#000" fill-opacity="0" fill-rule="evenodd" d="m 438.35692,81.9278 h 20.66144 v 23.71654 h -20.66144 z"/><path id="path5241" fill="#000" fill-opacity="0" fill-rule="evenodd" d="m 454.35692,81.9278 h 20.66144 v 23.71654 h -20.66144 z"/><path id="path5245" fill="#000" fill-opacity="0" fill-rule="evenodd" d="m 470.85692,81.4278 h 20.66144 v 23.71654 h -20.66144 z"/><path id="path5249" fill="#000" fill-opacity="0" fill-rule="evenodd" d="M 510.62749,36.50744 498.72197,92.035"/><path id="path5251" fill-rule="evenodd" stroke="#424242" stroke-linecap="butt" stroke-linejoin="round" stroke-width="1" d="M 510.62749,36.50744 498.72197,92.035"/><path id="path5253" fill="#000" fill-opacity="0" fill-rule="evenodd" d="m 486.85692,81.4278 h 20.66144 v 23.71654 h -20.66144 z"/><text id="text5257" x="175.785" y="175.392" fill="#000" fill-opacity="1" stroke="none" stroke-linecap="butt" stroke-linejoin="miter" stroke-opacity="1" stroke-width="1" font-family="sans-serif" font-size="40" font-style="normal" font-weight="normal" letter-spacing="0" word-spacing="0" xml:space="preserve" style="line-height:0%"><tspan style="-inkscape-font-specification:Roboto" id="tspan5259" x="175.785" y="175.392" font-family="Roboto" font-size="17.5" font-stretch="normal" font-style="normal" font-variant="normal" font-weight="normal">三维嵌入</tspan></text><text id="text5263" x="136.992" y="287.763" fill="#000" fill-opacity="1" stroke="none" stroke-linecap="butt" stroke-linejoin="miter" stroke-opacity="1" stroke-width="1" font-family="sans-serif" font-size="40" font-style="normal" font-weight="normal" letter-spacing="0" word-spacing="0" xml:space="preserve" style="line-height:0%"><tspan id="tspan5265" x="136.992" y="287.763" font-family="Roboto" font-size="17.5" font-stretch="normal" font-style="normal" font-variant="normal" font-weight="normal" style="-inkscape-font-specification:Roboto">稀疏矢量编码</tspan></text><text id="text5267" x="153.513" y="405.034" fill="#000" fill-opacity="1" stroke="none" stroke-linecap="butt" stroke-linejoin="miter" stroke-opacity="1" stroke-width="1" font-family="sans-serif" font-size="40.888" font-style="normal" font-weight="normal" letter-spacing="0" transform="scale(1.0222118,0.97827085)" word-spacing="0" xml:space="preserve" style="line-height:0%"><tspan id="tspan5269" x="153.513" y="405.034" font-family="Roboto" font-size="17.889" font-stretch="normal" font-style="normal" font-variant="normal" font-weight="normal" style="-inkscape-font-specification:Roboto">用户影片（用作输入特征的子集</tspan></text><g id="g1789"><path id="path4867" fill="#fff2cc" fill-rule="evenodd" d="m 586.23513,354.55146 v 0 c 0,-1.86996 1.51593,-3.38589 3.38586,-3.38589 h 40.25183 c 0.89801,0 1.75922,0.35675 2.39423,0.99172 0.63495,0.63498 0.9917,1.49619 0.9917,2.39417 v 13.54318 c 0,1.86997 -1.51593,3.3859 -3.38593,3.3859 h -40.25183 v 0 c -1.86993,0 -3.38586,-1.51593 -3.38586,-3.3859 z"/><path id="path4869" fill-rule="evenodd" stroke="#424242" stroke-linecap="butt" stroke-linejoin="round" stroke-width="1" d="m 586.23513,354.55146 v 0 c 0,-1.86996 1.51593,-3.38589 3.38586,-3.38589 h 40.25183 c 0.89801,0 1.75922,0.35675 2.39423,0.99172 0.63495,0.63498 0.9917,1.49619 0.9917,2.39417 v 13.54318 c 0,1.86997 -1.51593,3.3859 -3.38593,3.3859 h -40.25183 v 0 c -1.86993,0 -3.38586,-1.51593 -3.38586,-3.3859 z"/><text id="text5275" x="568.23" y="-379.24" fill="#000" fill-opacity="1" stroke="none" stroke-linecap="butt" stroke-linejoin="miter" stroke-opacity="1" stroke-width="1" font-family="sans-serif" font-size="39.745" font-style="normal" font-weight="normal" letter-spacing="0" transform="scale(1.0516227,-0.95091138)" word-spacing="0" xml:space="preserve" style="line-height:0%"><tspan style="-inkscape-font-specification:Roboto" id="tspan5277" x="568.23" y="-379.24" font-family="Roboto" font-size="29.161" font-stretch="normal" font-style="normal" font-variant="normal" font-weight="normal">...</tspan></text></g><text id="text5279" x="386.073" y="-377.2" fill="#000" fill-opacity="1" stroke="none" stroke-linecap="butt" stroke-linejoin="miter" stroke-opacity="1" stroke-width="1" font-family="sans-serif" font-size="39.745" font-style="normal" font-weight="normal" letter-spacing="0" transform="scale(1.0516227,-0.95091138)" word-spacing="0" xml:space="preserve" style="line-height:0%"><tspan style="-inkscape-font-specification:Roboto" id="tspan5281" x="386.073" y="-377.2" font-family="Roboto" font-size="29.161" font-stretch="normal" font-style="normal" font-variant="normal" font-weight="normal">...</tspan></text><text id="text5283" x="728.549" y="279.674" fill="#000" fill-opacity="1" stroke="none" stroke-linecap="butt" stroke-linejoin="miter" stroke-opacity="1" stroke-width="1" font-family="Roboto" font-stretch="normal" font-style="normal" font-variant="normal" font-weight="normal" letter-spacing="0" text-anchor="middle" transform="scale(1.0222118,0.97827085)" word-spacing="0" writing-mode="lr-tb" xml:space="preserve" style="line-height:0%;-inkscape-font-specification:'Roboto, Normal';text-align:center"><tspan id="tspan3810" x="728.549" y="279.674" font-size="17.889" style="line-height:1.25">用户影片</tspan></text><text id="text5493" x="802.887" y="168.739" fill="#000" fill-opacity="1" stroke="none" stroke-linecap="butt" stroke-linejoin="miter" stroke-opacity="1" stroke-width="1" font-family="Roboto" font-stretch="normal" font-style="normal" font-variant="normal" font-weight="normal" letter-spacing="0" text-anchor="start" transform="scale(1.0222118,0.97827085)" word-spacing="0" writing-mode="lr-tb" xml:space="preserve" style="line-height:0%;-inkscape-font-specification:'Roboto, Normal';text-align:start"><tspan id="tspan3802" x="802.887" y="168.739" font-size="15" style="line-height:1.25">目标概率分布</tspan></text><text id="text5507" x="269.653" y="74.259" fill="#000" fill-opacity="1" stroke="none" stroke-linecap="butt" stroke-linejoin="miter" stroke-opacity="1" stroke-width="1" font-family="sans-serif" font-size="17.5" font-stretch="normal" font-style="normal" font-variant="normal" font-weight="normal" letter-spacing="0" text-anchor="start" word-spacing="0" writing-mode="lr-tb" xml:space="preserve" style="line-height:0%;-inkscape-font-specification:'sans-serif, Normal';text-align:start"><tspan id="tspan1298" font-size="17.5">对数层</tspan></text><text id="text5650" x="524.295" y="29.471" fill="#000" fill-opacity="1" stroke="none" stroke-linecap="butt" stroke-linejoin="miter" stroke-opacity="1" stroke-width="1" font-family="sans-serif" font-size="22.5" font-stretch="normal" font-style="normal" font-variant="normal" font-weight="normal" letter-spacing="0" text-anchor="start" word-spacing="0" writing-mode="lr-tb" xml:space="preserve" style="line-height:0%;-inkscape-font-specification:'sans-serif, Normal';text-align:start"><tspan id="tspan5654" x="524.295" y="29.471" font-family="Roboto" font-size="17.5" font-stretch="normal" font-style="normal" font-variant="normal" font-weight="normal" text-anchor="start" writing-mode="lr-tb" style="line-height:125%;-inkscape-font-specification:Roboto;text-align:start">Softmax 损失</tspan></text><path id="path4743" fill="#fff2cc" fill-rule="evenodd" d="m 498.88522,384.69391 h 232.45149 v 31.3071 H 498.88522 Z"/><path id="path4745" fill-rule="evenodd" stroke="#424242" stroke-linecap="butt" stroke-linejoin="round" stroke-width="1.166" d="m 498.96809,384.77678 h 231.40984 v 31.14136 H 498.96809 Z"/><text id="text5271" x="530.741" y="415.047" fill="#000" fill-opacity="1" stroke="none" stroke-linecap="butt" stroke-linejoin="miter" stroke-opacity="1" stroke-width="1" font-family="sans-serif" font-style="normal" font-weight="normal" letter-spacing="0" transform="scale(1.0222118,0.97827085)" word-spacing="0" xml:space="preserve" style="line-height:0%"><tspan id="tspan5273" x="530.741" y="415.047" font-family="Roboto" font-size="17.889" font-stretch="normal" font-style="normal" font-variant="normal" font-weight="normal" style="line-height:1.25;-inkscape-font-specification:Roboto">其他特征（可选）</tspan></text><path id="path4618" fill="#b4a7d6" fill-opacity="1" fill-rule="evenodd" stroke="#000" stroke-opacity="1" d="m 512.86641,105.20067 v 0 c 0,1.86996 1.51593,3.38589 3.38586,3.38589 h 40.25183 c 0.89801,0 1.75922,-0.35675 2.39423,-0.99172 0.63495,-0.63498 0.9917,-1.49619 0.9917,-2.39417 V 91.65749 c 0,-1.86997 -1.51593,-3.3859 -3.38593,-3.3859 h -40.25183 v 0 c -1.86993,0 -3.38586,1.51593 -3.38586,3.3859 z"/><text id="text4622" x="496.561" y="-102.775" fill="#000" fill-opacity="1" stroke="none" stroke-linecap="butt" stroke-linejoin="miter" stroke-opacity="1" stroke-width="1" font-family="sans-serif" font-size="39.745" font-style="normal" font-weight="normal" letter-spacing="0" transform="scale(1.0516227,-0.95091138)" word-spacing="0" xml:space="preserve" style="line-height:0%"><tspan style="-inkscape-font-specification:Roboto" id="tspan4624" x="496.561" y="-102.775" font-family="Roboto" font-size="29.161" font-stretch="normal" font-style="normal" font-variant="normal" font-weight="normal">...</tspan></text><path id="path4644" fill="#b4a7d6" fill-opacity="1" fill-rule="evenodd" stroke="#424242" stroke-linecap="butt" stroke-linejoin="round" stroke-width="1" d="m 569.61022,102.28504 v 0 c 0,4.28783 3.47595,7.76378 7.76376,7.76378 v 0 c 2.05909,0 4.03385,-0.81796 5.48984,-2.27396 1.45599,-1.45599 2.27396,-3.43074 2.27396,-5.48982 v 0 c 0,-4.28781 -3.47599,-7.76378 -7.7638,-7.76378 v 0 c -4.28781,0 -7.76376,3.47597 -7.76376,7.76378 z"/><path id="path4668" fill-rule="evenodd" stroke="#424242" stroke-linecap="butt" stroke-linejoin="round" stroke-width="1" d="m 510.89804,35.88808 64.2762,59.24374"/><path id="path4670" fill-rule="evenodd" stroke="#424242" stroke-linecap="butt" stroke-linejoin="round" stroke-width="1" d="m 510.89804,35.88808 64.2762,59.24374"/><path id="path4672" fill-rule="evenodd" stroke="#424242" stroke-linecap="butt" stroke-linejoin="round" stroke-width="1" d="m 574.69249,108.35362 -166.74642,20.8432"/><path id="path4674" fill-rule="evenodd" stroke="#424242" stroke-linecap="butt" stroke-linejoin="round" stroke-width="1" d="m 574.69249,108.35362 -166.74642,20.8432"/><path id="path4676" fill-rule="evenodd" stroke="#424242" stroke-linecap="butt" stroke-linejoin="round" stroke-width="1" d="m 574.69249,108.35362 -132.68142,20.8432"/><path id="path4678" fill-rule="evenodd" stroke="#424242" stroke-linecap="butt" stroke-linejoin="round" stroke-width="1" d="m 574.69249,108.35362 -101.71324,20.8432"/><path id="path4612" fill-rule="evenodd" stroke="#424242" stroke-linecap="butt" stroke-linejoin="round" stroke-width="1.479" d="M 97.292637,374.7529 H 473.61163 v 30.82802 H 97.292637 Z"/><g id="g1799" transform="matrix(0.50392068,0,0,0.68796902,486.55995,-4.3754483)"><path id="path1791" fill="#f9cb9c" fill-rule="evenodd" d="m 586.23513,354.55146 v 0 c 0,-1.86996 1.51593,-3.38589 3.38586,-3.38589 h 40.25183 c 0.89801,0 1.75922,0.35675 2.39423,0.99172 0.63495,0.63498 0.9917,1.49619 0.9917,2.39417 v 13.54318 c 0,1.86997 -1.51593,3.3859 -3.38593,3.3859 h -40.25183 v 0 c -1.86993,0 -3.38586,-1.51593 -3.38586,-3.3859 z"/><path id="path1793" fill-rule="evenodd" stroke="#424242" stroke-linecap="butt" stroke-linejoin="round" stroke-width="1" d="m 586.23513,354.55146 v 0 c 0,-1.86996 1.51593,-3.38589 3.38586,-3.38589 h 40.25183 c 0.89801,0 1.75922,0.35675 2.39423,0.99172 0.63495,0.63498 0.9917,1.49619 0.9917,2.39417 v 13.54318 c 0,1.86997 -1.51593,3.3859 -3.38593,3.3859 h -40.25183 v 0 c -1.86993,0 -3.38586,-1.51593 -3.38586,-3.3859 z"/><text id="text1797" x="568.23" y="-379.24" fill="#000" fill-opacity="1" stroke="none" stroke-linecap="butt" stroke-linejoin="miter" stroke-opacity="1" stroke-width="1" font-family="sans-serif" font-size="39.745" font-style="normal" font-weight="normal" letter-spacing="0" transform="scale(1.0516227,-0.95091138)" word-spacing="0" xml:space="preserve" style="line-height:0%"><tspan id="tspan1795" x="568.23" y="-379.24" font-family="Roboto" font-size="29.161" font-stretch="normal" font-style="normal" font-variant="normal" font-weight="normal" style="-inkscape-font-specification:Roboto">...</tspan></text></g><text id="text1302" x="728.549" y="300.118" fill="#000" fill-opacity="1" stroke="none" stroke-linecap="butt" stroke-linejoin="miter" stroke-opacity="1" stroke-width="1" font-family="Roboto" font-stretch="normal" font-style="normal" font-variant="normal" font-weight="normal" letter-spacing="0" text-anchor="middle" transform="scale(1.0222118,0.97827085)" word-spacing="0" writing-mode="lr-tb" xml:space="preserve" style="line-height:0%;-inkscape-font-specification:'Roboto, Normal';text-align:center"><tspan style="line-height:1.25" id="tspan1300" x="728.549" y="300.118" font-size="17.889">（用作“标签”的子集）</tspan></text><text id="text1306" x="818.539" y="187.139" fill="#000" fill-opacity="1" stroke="none" stroke-linecap="butt" stroke-linejoin="miter" stroke-opacity="1" stroke-width="1" font-family="Roboto" font-stretch="normal" font-style="normal" font-variant="normal" font-weight="normal" letter-spacing="0" text-anchor="start" transform="scale(1.0222118,0.97827085)" word-spacing="0" writing-mode="lr-tb" xml:space="preserve" style="line-height:0%;-inkscape-font-specification:'Roboto, Normal';text-align:start"><tspan style="line-height:1.25" id="tspan1304" x="818.539" y="187.139" font-size="15">（稀疏）</tspan></text></svg>