<svg xmlns="http://www.w3.org/2000/svg" xmlns:svg="http://www.w3.org/2000/svg" id="Layer_1" width="960" height="400" x="0" y="0" version="1.1" viewBox="174 127 960 400" xml:space="preserve"><desc id="desc2">将原始整数 (6) 映射到浮点特征 (6.0)。</desc><metadata id="metadata47"/><style id="style3" type="text/css">.fpf-st0{fill:#f4ff5f}.fpf-st1{fill:#fff2cc;stroke:#424242;stroke-miterlimit:10}.fpf-st2{fill:#bebebe}.fpf-st3{font-family:&apos;RobotoMono-Regular&apos;}.fpf-st4{font-size:21px}.fpf-st5{font-family:&apos;Roboto-Regular&apos;}</style><rect id="rect5" width="155" height="26.9" x="213.7" y="331" fill="#f4ff5f" class="fpf-st0"/><g id="g7" transform="matrix(1.1846127,0,0,1,-76.55888,20)"><path id="path9" fill="#fff2cc" stroke="#424242" stroke-miterlimit="10" d="m 423.9,263.9 v 0 c 0,6.6 8.4,11.9 18.7,11.9 h 22.5 L 414.7,308 526.8,275.7 h 125.5 c 5,0 9.7,-1.3 13.2,-3.5 3.5,-2.2 5.5,-5.3 5.5,-8.4 v 0 0 -17.8 -29.7 c 0,-6.6 -8.4,-11.9 -18.7,-11.9 H 526.9 465.1 v 0 h -22.5 c -10.3,0 -18.7,5.3 -18.7,11.9 V 246 Z" class="fpf-st1"/></g><text style="line-height:0%" id="text11" x="204.43" y="299.382"><tspan id="tspan13" x="204.43" y="299.382" fill="#bebebe" class="fpf-st2 fpf-st3 fpf-st4" font-family="RobotoMono-Regular" font-size="21">0 : {</tspan><tspan id="tspan15" x="204.43" y="324.582" fill="#bebebe" class="fpf-st2 fpf-st3 fpf-st4" font-family="RobotoMono-Regular" font-size="21"> house_info : {</tspan><tspan id="tspan17" x="204.43" y="349.782" class="fpf-st3 fpf-st4" font-family="RobotoMono-Regular" font-size="21"> num_rooms: 6</tspan><tspan id="tspan19" x="204.43" y="374.982" fill="#bebebe" class="fpf-st2 fpf-st3 fpf-st4" font-family="RobotoMono-Regular" font-size="21"> num_bedrooms: 3</tspan><tspan id="tspan21" x="204.43" y="400.182" fill="#bebebe" class="fpf-st2 fpf-st3 fpf-st4" font-family="RobotoMono-Regular" font-size="21"> street_name: &quot;Shorebird Way&quot;</tspan><tspan id="tspan23" x="204.43" y="425.382" fill="#bebebe" class="fpf-st2 fpf-st3 fpf-st4" font-family="RobotoMono-Regular" font-size="21"> num_basement_rooms: -1</tspan><tspan id="tspan25" x="204.43" y="450.582" fill="#bebebe" class="fpf-st2 fpf-st3 fpf-st4" font-family="RobotoMono-Regular" font-size="21"> ...</tspan><tspan id="tspan27" x="204.43" y="475.782" fill="#bebebe" class="fpf-st2 fpf-st3 fpf-st4" font-family="RobotoMono-Regular" font-size="21"> }</tspan><tspan id="tspan29" x="204.43" y="500.982" fill="#bebebe" class="fpf-st2 fpf-st3 fpf-st4" font-family="RobotoMono-Regular" font-size="21">}</tspan></text><text style="line-height:0%" id="text37" x="771.313" y="345.645" class="fpf-st3 fpf-st4" font-family="RobotoMono-Regular" font-size="21">num_rooms_feature = [ 6.0 ]</text><g id="g27" transform="matrix(2.2353645,0,0,1.5044679,-484.40028,-37.68972)"><path id="path29" fill="#d9ead3" stroke="#424242" stroke-miterlimit="10" d="m 454.4,240 h 69.4 v -15.6 l 28.1,31.2 -28.1,31.2 v -15.6 h -69.4 z" class="fpf-st5" font-family="Roboto-Regular"/></g><text id="text842" x="577.853" y="352.43" fill="#000" fill-opacity="1" stroke="none" stroke-linecap="butt" stroke-linejoin="miter" stroke-opacity="1" stroke-width="1" font-family="sans-serif" font-size="40" font-style="normal" font-weight="normal" letter-spacing="0" word-spacing="0" xml:space="preserve" style="line-height:125%"><tspan id="tspan840" x="577.853" y="352.43" font-size="18.667">特征工程</tspan></text><g id="g890" transform="translate(157.03704,144.2963)"><rect id="rect858" width="221.593" height="55.926" x="48.539" y="9.98" fill="#c4eaf9" fill-opacity="1" stroke="#000" stroke-dasharray="none" stroke-miterlimit="4" stroke-opacity="1" stroke-width="1" ry="15.828"/><text id="text856" x="67.539" y="50.753" fill="#000" fill-opacity="1" stroke="none" stroke-linecap="butt" stroke-linejoin="miter" stroke-opacity="1" stroke-width="1" font-family="sans-serif" font-size="40" font-style="normal" font-weight="normal" letter-spacing="0" word-spacing="0" xml:space="preserve" style="line-height:125%"><tspan id="tspan854" x="67.539" y="50.753">原始数据</tspan></text></g><rect id="rect892" width="203.66" height="56.061" x="827.637" y="154.209" fill="#c4eaf9" fill-opacity="1" stroke="#000" stroke-dasharray="none" stroke-miterlimit="4" stroke-opacity="1" stroke-width=".96" ry="15.866"/><text id="text896" x="888.896" y="195.049" fill="#000" fill-opacity="1" stroke="none" stroke-linecap="butt" stroke-linejoin="miter" stroke-opacity="1" stroke-width="1" font-family="sans-serif" font-size="40" font-style="normal" font-weight="normal" letter-spacing="0" word-spacing="0" xml:space="preserve" style="line-height:125%"><tspan id="tspan894" x="888.896" y="195.049">特征</tspan></text><g id="g854" transform="translate(-0.81481466,92.962963)"><text id="text844" x="459.926" y="172.926" fill="#000" fill-opacity="1" stroke="none" stroke-linecap="butt" stroke-linejoin="miter" stroke-opacity="1" stroke-width="1" font-family="sans-serif" font-size="40" font-style="normal" font-weight="normal" letter-spacing="0" word-spacing="0" xml:space="preserve" style="line-height:125%"><tspan id="tspan842" x="459.926" y="172.926" font-size="21.333">可以直接复制实值特征</tspan></text></g></svg>