<svg xmlns="http://www.w3.org/2000/svg" xmlns:svg="http://www.w3.org/2000/svg" id="svg2" width="583.551" height="309.705" version="1.1" viewBox="0 0 583.551 309.705" xml:space="preserve"><metadata id="metadata8"/><desc id="desc3">相同的 U 形曲线。很多点都相互非常接近，它们的轨迹朝着 U 形底部缓慢前进。</desc><defs id="defs6"><clipPath id="clipPath22" clipPathUnits="userSpaceOnUse"><path id="path20" d="M 0,0 H 365760 V 205740 H 0 Z"/></clipPath></defs><path id="path36" fill="#000" fill-opacity="0" fill-rule="evenodd" stroke="none" stroke-width=".003" d="M 210.63999,252.64384 209.28566,10.43961"/><path id="path38" fill="none" stroke="#595959" stroke-dasharray="none" stroke-linecap="butt" stroke-linejoin="round" stroke-miterlimit="14.336" stroke-opacity="1" stroke-width="3" d="M 210.58249,242.36276 209.34317,20.72069"/><path id="path40" fill="#595959" fill-opacity="1" fill-rule="evenodd" stroke="#595959" stroke-dasharray="none" stroke-linecap="butt" stroke-linejoin="miter" stroke-miterlimit="11.474" stroke-opacity="1" stroke-width="3" d="m 210.58249,242.36276 -3.39254,-3.35482 3.42552,9.25026 3.32187,-9.288 z"/><path id="path42" fill="#595959" fill-opacity="1" fill-rule="evenodd" stroke="#595959" stroke-dasharray="none" stroke-linecap="butt" stroke-linejoin="miter" stroke-miterlimit="11.474" stroke-opacity="1" stroke-width="3" d="m 209.34317,20.72069 3.39254,3.354826 -3.42553,-9.25028 -3.32185,9.288 z"/><path id="path50" fill="#000" fill-opacity="0" fill-rule="evenodd" stroke="none" stroke-width=".003" d="M 226.76463,271.21335 H 583.55132"/><path id="path52" fill="none" stroke="#595959" stroke-dasharray="none" stroke-linecap="butt" stroke-linejoin="round" stroke-miterlimit="14.336" stroke-opacity="1" stroke-width="3" d="M 237.04587,271.21335 H 573.27008"/><path id="path54" fill="#595959" fill-opacity="1" fill-rule="evenodd" stroke="#595959" stroke-dasharray="none" stroke-linecap="butt" stroke-linejoin="miter" stroke-miterlimit="11.474" stroke-opacity="1" stroke-width="3" d="m 237.04587,271.21335 3.37375,-3.37375 -9.26931,3.37375 9.26931,3.37375 z"/><path id="path56" fill="#595959" fill-opacity="1" fill-rule="evenodd" stroke="#595959" stroke-dasharray="none" stroke-linecap="butt" stroke-linejoin="miter" stroke-miterlimit="11.474" stroke-opacity="1" stroke-width="3" d="m 573.27008,271.21335 -3.37375,3.37375 9.2693,-3.37375 -9.2693,-3.37375 z"/><path id="path64" fill="#000" fill-opacity="0" fill-rule="evenodd" stroke="none" stroke-width=".003" d="m 274.50994,275.78552 h 239.77905 v 30.20467 H 274.50994 Z"/><text id="text74" x="360.944" y="302.705" fill="#000" fill-opacity="1" fill-rule="nonzero" stroke="none" stroke-width="1" font-family="Arial" font-size="18.667" font-variant="normal" font-weight="normal" writing-mode="lr-tb" style="-inkscape-font-specification:ArialMT"><tspan id="tspan72" x="360.944" y="302.705" stroke-width="1" font-family="sans-serif" font-stretch="normal" font-style="normal" font-variant="normal" font-weight="normal" style="-inkscape-font-specification:sans-serif">权重值 (</tspan></text><text stroke-width="1" style="-inkscape-font-specification:Arial-BoldItalicMT" id="text78" x="430.581" y="302.705" fill="#000" fill-opacity="1" fill-rule="nonzero" stroke="none" font-family="Arial" font-size="18.667" font-style="italic" font-variant="normal" font-weight="bold" writing-mode="lr-tb"><tspan id="tspan76" x="430.581" y="302.705" stroke-width="1" font-family="Times New Roman" font-size="18.667" font-stretch="normal" font-style="italic" font-variant="normal" font-weight="normal" text-anchor="start" writing-mode="lr-tb" style="-inkscape-font-specification:'Times New Roman, Italic';font-variant-ligatures:normal;font-variant-caps:normal;font-variant-numeric:normal;font-feature-settings:normal;text-align:start">w<tspan id="tspan902" baseline-shift="sub" font-size="65%">i</tspan></tspan></text><text id="text25" x="452.944" y="302.705" fill="#000" fill-opacity="1" fill-rule="nonzero" stroke="none" stroke-width="1" font-family="Arial" font-size="18.667" font-variant="normal" font-weight="normal" writing-mode="lr-tb" style="-inkscape-font-specification:ArialMT"><tspan id="tspan23" x="452.944" y="302.705" stroke-width="1" font-family="sans-serif" font-stretch="normal" font-style="normal" font-variant="normal" font-weight="normal" style="-inkscape-font-specification:sans-serif">)</tspan></text><path id="path92" fill="#000" fill-opacity="0" fill-rule="evenodd" stroke="none" stroke-width=".003" d="m 145.12176,125.35014 h 60.44082 v 30.20465 h -60.44082 z"/><text id="text102" x="158.754" y="152.27" fill="#000" fill-opacity="1" fill-rule="nonzero" stroke="none" stroke-width="1" font-family="Arial" font-size="18.667" font-variant="normal" font-weight="normal" writing-mode="lr-tb" style="-inkscape-font-specification:ArialMT"><tspan id="tspan100" x="158.754" y="152.27" stroke-width="1" font-family="sans-serif" font-stretch="normal" font-style="normal" font-variant="normal" font-weight="normal" style="-inkscape-font-specification:sans-serif">损失</tspan></text><path id="path112" fill="#000" fill-opacity="0" fill-rule="evenodd" stroke="none" stroke-width=".003" d="m 250.64946,33.007823 c 6.86928,26.300386 13.48748,122.586877 41.21572,157.802367 27.72824,35.21545 89.29985,62.40605 125.15374,53.49044 35.85387,-8.91565 69.78093,-70.54285 89.96948,-106.98426 20.18848,-36.44142 25.968,-93.053494 31.16159,-111.664201"/><path id="path114" fill="none" stroke="#595959" stroke-dasharray="none" stroke-linecap="butt" stroke-linejoin="round" stroke-miterlimit="14.336" stroke-opacity="1" stroke-width="8" d="m 250.64946,33.007823 c 6.86928,26.300386 13.48748,122.586877 41.21572,157.802367 27.72824,35.21545 89.29985,62.40605 125.15374,53.49044 35.85387,-8.91565 69.78093,-70.54285 89.96948,-106.98426 20.18848,-36.44142 25.968,-93.053494 31.16159,-111.664201"/><path id="path120" fill="#fff2cc" fill-opacity="1" fill-rule="evenodd" stroke="none" stroke-width=".003" d="m 262.41547,131.1559 v 0 c 0,-3.60941 2.92602,-6.53543 6.53543,-6.53543 v 0 c 1.73331,0 3.39561,0.68856 4.62125,1.91419 1.22562,1.22563 1.91416,2.88793 1.91416,4.62124 v 0 c 0,3.60941 -2.926,6.53541 -6.53541,6.53541 v 0 c -3.60941,0 -6.53543,-2.926 -6.53543,-6.53541 z"/><path id="path122" fill="none" stroke="#595959" stroke-dasharray="none" stroke-linecap="butt" stroke-linejoin="round" stroke-miterlimit="14.336" stroke-opacity="1" stroke-width="1" d="m 262.41547,131.1559 v 0 c 0,-3.60941 2.92602,-6.53543 6.53543,-6.53543 v 0 c 1.73331,0 3.39561,0.68856 4.62125,1.91419 1.22562,1.22563 1.91416,2.88793 1.91416,4.62124 v 0 c 0,3.60941 -2.926,6.53541 -6.53541,6.53541 v 0 c -3.60941,0 -6.53543,-2.926 -6.53543,-6.53541 z"/><path id="path128" fill="#fff2cc" fill-opacity="1" fill-rule="evenodd" stroke="none" stroke-width=".003" d="m 306.17917,13.639076 v 0 c 0,-7.2565195 5.88258,-13.13907931 13.13907,-13.13907931 h 17.83199 v 0 h 46.4566 95.25965 c 3.48469,0 6.82668,1.38429331 9.29075,3.84834661 2.46404,2.4640532 3.84833,5.8060267 3.84833,9.2907327 v 32.847706 0 19.708613 0 c 0,7.25652 -5.88259,13.13908 -13.13908,13.13908 H 383.60683 L 278.73818,145.28426 337.15023,79.334475 h -17.83199 c -7.25649,0 -13.13907,-5.88256 -13.13907,-13.13908 v 0 -19.708613 0 z"/><path id="path130" fill="none" stroke="#595959" stroke-dasharray="none" stroke-linecap="butt" stroke-linejoin="round" stroke-miterlimit="14.336" stroke-opacity="1" stroke-width="1" d="m 306.17917,13.639076 v 0 c 0,-7.2565195 5.88258,-13.13907931 13.13907,-13.13907931 h 17.83199 v 0 h 46.4566 95.25965 c 3.48469,0 6.82668,1.38429331 9.29075,3.84834661 2.46404,2.4640532 3.84833,5.8060267 3.84833,9.2907327 v 32.847706 0 19.708613 0 c 0,7.25652 -5.88259,13.13908 -13.13908,13.13908 H 383.60683 L 278.73818,145.28426 337.15023,79.334475 h -17.83199 c -7.25649,0 -13.13907,-5.88256 -13.13907,-13.13908 v 0 -19.708613 0 z"/><text id="text140" x="337.32" y="35.837" fill="#000" fill-opacity="1" fill-rule="nonzero" stroke="none" stroke-width="1" font-family="Arial" font-size="18.667" font-variant="normal" font-weight="normal" writing-mode="lr-tb" style="-inkscape-font-specification:ArialMT"><tspan id="tspan138" x="337.32" y="35.837" stroke-width="1" font-family="sans-serif" font-stretch="normal" font-style="normal" font-variant="normal" font-weight="normal" style="-inkscape-font-specification:sans-serif">低学习速率会花</tspan></text><text id="text144" x="337.248" y="57.837" fill="#000" fill-opacity="1" fill-rule="nonzero" stroke="none" stroke-width="1" font-family="Arial" font-size="18.667" font-variant="normal" font-weight="normal" writing-mode="lr-tb" style="-inkscape-font-specification:ArialMT"><tspan id="tspan142" x="337.248" y="57.837" stroke-width="1" font-family="sans-serif" font-stretch="normal" font-style="normal" font-variant="normal" font-weight="normal" style="-inkscape-font-specification:sans-serif">费很长的时间</tspan></text><path id="path152" fill="#fff2cc" fill-opacity="1" fill-rule="evenodd" stroke="none" stroke-width=".003" d="m 262.41547,135.84881 v 0 c 0,-3.60942 2.92602,-6.53543 6.53543,-6.53543 v 0 c 1.73331,0 3.39561,0.68856 4.62125,1.91419 1.22562,1.22562 1.91416,2.88793 1.91416,4.62124 v 0 c 0,3.6094 -2.926,6.53541 -6.53541,6.53541 v 0 c -3.60941,0 -6.53543,-2.92601 -6.53543,-6.53541 z"/><path id="path154" fill="none" stroke="#595959" stroke-dasharray="none" stroke-linecap="butt" stroke-linejoin="round" stroke-miterlimit="14.336" stroke-opacity="1" stroke-width="1" d="m 262.41547,135.84881 v 0 c 0,-3.60942 2.92602,-6.53543 6.53543,-6.53543 v 0 c 1.73331,0 3.39561,0.68856 4.62125,1.91419 1.22562,1.22562 1.91416,2.88793 1.91416,4.62124 v 0 c 0,3.6094 -2.926,6.53541 -6.53541,6.53541 v 0 c -3.60941,0 -6.53543,-2.92601 -6.53543,-6.53541 z"/><path id="path160" fill="#fff2cc" fill-opacity="1" fill-rule="evenodd" stroke="none" stroke-width=".003" d="m 263.89842,140.95903 v 0 c 0,-3.60941 2.926,-6.53542 6.53541,-6.53542 v 0 c 1.73331,0 3.39562,0.68856 4.62126,1.91418 1.22561,1.22563 1.91417,2.88794 1.91417,4.62124 v 0 c 0,3.6094 -2.92601,6.53542 -6.53543,6.53542 v 0 c -3.60941,0 -6.53541,-2.92602 -6.53541,-6.53542 z"/><path id="path162" fill="none" stroke="#595959" stroke-dasharray="none" stroke-linecap="butt" stroke-linejoin="round" stroke-miterlimit="14.336" stroke-opacity="1" stroke-width="1" d="m 263.89842,140.95903 v 0 c 0,-3.60941 2.926,-6.53542 6.53541,-6.53542 v 0 c 1.73331,0 3.39562,0.68856 4.62126,1.91418 1.22561,1.22563 1.91417,2.88794 1.91417,4.62124 v 0 c 0,3.6094 -2.92601,6.53542 -6.53543,6.53542 v 0 c -3.60941,0 -6.53541,-2.92602 -6.53541,-6.53542 z"/><path id="path168" fill="#fff2cc" fill-opacity="1" fill-rule="evenodd" stroke="none" stroke-width=".003" d="m 263.89842,144.22674 v 0 c 0,-3.60941 2.926,-6.53543 6.53541,-6.53543 v 0 c 1.73331,0 3.39562,0.68856 4.62126,1.91419 1.22561,1.22563 1.91417,2.88793 1.91417,4.62124 v 0 c 0,3.60941 -2.92601,6.53541 -6.53543,6.53541 v 0 c -3.60941,0 -6.53541,-2.926 -6.53541,-6.53541 z"/><path id="path170" fill="none" stroke="#595959" stroke-dasharray="none" stroke-linecap="butt" stroke-linejoin="round" stroke-miterlimit="14.336" stroke-opacity="1" stroke-width="1" d="m 263.89842,144.22674 v 0 c 0,-3.60941 2.926,-6.53543 6.53541,-6.53543 v 0 c 1.73331,0 3.39562,0.68856 4.62126,1.91419 1.22561,1.22563 1.91417,2.88793 1.91417,4.62124 v 0 c 0,3.60941 -2.92601,6.53541 -6.53543,6.53541 v 0 c -3.60941,0 -6.53541,-2.926 -6.53541,-6.53541 z"/><path id="path176" fill="#fce5cd" fill-opacity="1" fill-rule="evenodd" stroke="none" stroke-width=".003" d="m 0.49999897,52.736102 v 0 c 0,-7.256506 5.88256683,-13.13908 13.13908203,-13.13908 h 77.585144 v 0 h 38.881815 12.78212 c 3.48469,0 6.82668,1.384294 9.29074,3.848347 2.46404,2.464067 3.84835,5.80604 3.84835,9.290733 V 85.583808 L 256.27077,127.9697 156.02725,105.29243 v 0 c 0,7.25652 -5.88256,13.13908 -13.13909,13.13908 H 130.10604 91.224225 v 0 H 13.639081 c -7.2565152,0 -13.13908203,-5.88256 -13.13908203,-13.13908 v 0 -19.708622 0 z"/><path id="path178" fill="none" stroke="#595959" stroke-dasharray="none" stroke-linecap="butt" stroke-linejoin="round" stroke-miterlimit="14.336" stroke-opacity="1" stroke-width="1" d="m 0.49999897,52.736102 v 0 c 0,-7.256506 5.88256683,-13.13908 13.13908203,-13.13908 h 77.585144 v 0 h 38.881815 12.78212 c 3.48469,0 6.82668,1.384294 9.29074,3.848347 2.46404,2.464067 3.84835,5.80604 3.84835,9.290733 V 85.583808 L 256.27077,127.9697 156.02725,105.29243 v 0 c 0,7.25652 -5.88256,13.13908 -13.13909,13.13908 H 130.10604 91.224225 v 0 H 13.639081 c -7.2565152,0 -13.13908203,-5.88256 -13.13908203,-13.13908 v 0 -19.708622 0 z"/><text id="text188" x="24.855" y="85.934" fill="#000" fill-opacity="1" fill-rule="nonzero" stroke="none" stroke-width="1" font-family="Arial" font-size="18.667" font-variant="normal" font-weight="normal" writing-mode="lr-tb" style="-inkscape-font-specification:ArialMT"><tspan id="tspan186" x="51.521" y="85.934" stroke-width="1" font-family="sans-serif" font-stretch="normal" font-style="normal" font-variant="normal" font-weight="normal" style="-inkscape-font-specification:sans-serif">起点</tspan></text></svg>