<svg xmlns="http://www.w3.org/2000/svg" xmlns:svg="http://www.w3.org/2000/svg" id="svg2" width="582.488" height="299.266" version="1.1" viewBox="0 0 582.488 299.266" xml:space="preserve"><metadata id="metadata8"/><desc id="desc3">相同的 U 形曲线。点的轨迹大约需要 8 步达到最低点。</desc><defs id="defs6"><clipPath id="clipPath22" clipPathUnits="userSpaceOnUse"><path id="path20" d="M 0,0 H 365760 V 205740 H 0 Z"/></clipPath></defs><path id="path36" fill="#000" fill-opacity="0" fill-rule="evenodd" stroke="none" stroke-width=".003" d="M 209.577,242.20423 208.22268,-3.272572e-6"/><path id="path38" fill="none" stroke="#595959" stroke-dasharray="none" stroke-linecap="butt" stroke-linejoin="round" stroke-miterlimit="14.336" stroke-opacity="1" stroke-width="3" d="M 209.51949,231.92315 208.28019,10.281076"/><path id="path40" fill="#595959" fill-opacity="1" fill-rule="evenodd" stroke="#595959" stroke-dasharray="none" stroke-linecap="butt" stroke-linejoin="miter" stroke-miterlimit="11.474" stroke-opacity="1" stroke-width="3" d="m 209.51949,231.92315 -3.39253,-3.35483 3.42553,9.25027 3.32186,-9.28799 z"/><path id="path42" fill="#595959" fill-opacity="1" fill-rule="evenodd" stroke="#595959" stroke-dasharray="none" stroke-linecap="butt" stroke-linejoin="miter" stroke-miterlimit="11.474" stroke-opacity="1" stroke-width="3" d="m 208.28019,10.281076 3.39253,3.354827 -3.42553,-9.2502797 -3.32186,9.2879997 z"/><path id="path50" fill="#000" fill-opacity="0" fill-rule="evenodd" stroke="none" stroke-width=".003" d="m 249.58648,22.568209 c 6.86928,26.3004 13.48748,122.586881 41.21572,157.802371 27.72823,35.21545 89.29984,62.40605 125.15373,53.49044 35.85387,-8.91566 69.78093,-70.54285 89.96948,-106.98427 20.18849,-36.441396 25.968,-93.053487 31.16158,-111.66418"/><path id="path52" fill="none" stroke="#595959" stroke-dasharray="none" stroke-linecap="butt" stroke-linejoin="round" stroke-miterlimit="14.336" stroke-opacity="1" stroke-width="8" d="m 249.58648,22.568209 c 6.86928,26.3004 13.48748,122.586881 41.21572,157.802371 27.72823,35.21545 89.29984,62.40605 125.15373,53.49044 35.85387,-8.91566 69.78093,-70.54285 89.96948,-106.98427 20.18849,-36.441396 25.968,-93.053487 31.16158,-111.66418"/><path id="path58" fill="#fff2cc" fill-opacity="1" fill-rule="evenodd" stroke="none" stroke-width=".003" d="m 262.83543,134.06797 v 0 c 0,-3.60942 2.926,-6.53543 6.53541,-6.53543 v 0 c 1.73331,0 3.39561,0.68856 4.62125,1.91419 1.22562,1.22562 1.91418,2.88793 1.91418,4.62124 v 0 c 0,3.60941 -2.926,6.53541 -6.53543,6.53541 v 0 c -3.60941,0 -6.53541,-2.926 -6.53541,-6.53541 z"/><path id="path60" fill="none" stroke="#595959" stroke-dasharray="none" stroke-linecap="butt" stroke-linejoin="round" stroke-miterlimit="14.336" stroke-opacity="1" stroke-width="1" d="m 262.83543,134.06797 v 0 c 0,-3.60942 2.926,-6.53543 6.53541,-6.53543 v 0 c 1.73331,0 3.39561,0.68856 4.62125,1.91419 1.22562,1.22562 1.91418,2.88793 1.91418,4.62124 v 0 c 0,3.60941 -2.926,6.53541 -6.53543,6.53541 v 0 c -3.60941,0 -6.53541,-2.926 -6.53541,-6.53541 z"/><path id="path66" fill="#fce5cd" fill-opacity="1" fill-rule="evenodd" stroke="none" stroke-width=".003" d="m 0.49999899,40.385742 v 0 c 0,-7.256519 5.88256681,-13.139079 13.13908201,-13.139079 h 77.585144 v 0 h 38.881805 12.78213 c 3.4847,0 6.82668,1.384293 9.29074,3.848346 2.46405,2.464054 3.84834,5.806027 3.84834,9.290733 V 73.233448 L 259.89767,130.04446 156.02724,92.942061 v 0 c 0,7.256519 -5.88256,13.139079 -13.13908,13.139079 H 130.10603 91.224225 v 0 H 13.639081 c -7.2565152,0 -13.13908201,-5.88256 -13.13908201,-13.139079 v 0 -19.708613 0 z"/><path id="path68" fill="none" stroke="#595959" stroke-dasharray="none" stroke-linecap="butt" stroke-linejoin="round" stroke-miterlimit="14.336" stroke-opacity="1" stroke-width="1" d="m 0.49999899,40.385742 v 0 c 0,-7.256519 5.88256681,-13.139079 13.13908201,-13.139079 h 77.585144 v 0 h 38.881805 12.78213 c 3.4847,0 6.82668,1.384293 9.29074,3.848346 2.46405,2.464054 3.84834,5.806027 3.84834,9.290733 V 73.233448 L 259.89767,130.04446 156.02724,92.942061 v 0 c 0,7.256519 -5.88256,13.139079 -13.13908,13.139079 H 130.10603 91.224225 v 0 H 13.639081 c -7.2565152,0 -13.13908201,-5.88256 -13.13908201,-13.139079 v 0 -19.708613 0 z"/><text id="text78" x="24.855" y="73.584" fill="#000" fill-opacity="1" fill-rule="nonzero" stroke="none" stroke-width="1" font-family="Arial" font-size="18.667" font-variant="normal" font-weight="normal" writing-mode="lr-tb" style="-inkscape-font-specification:ArialMT"><tspan id="tspan76" x="51.521" y="73.584" stroke-width="1" font-family="sans-serif" font-stretch="normal" font-style="normal" font-variant="normal" font-weight="normal" style="-inkscape-font-specification:sans-serif">起点</tspan></text><path id="path88" fill="#000" fill-opacity="0" fill-rule="evenodd" stroke="none" stroke-width=".003" d="m 275.90627,134.06797 h 14.89761"/><path id="path90" fill="none" stroke="red" stroke-dasharray="none" stroke-linecap="butt" stroke-linejoin="round" stroke-miterlimit="14.336" stroke-opacity="1" stroke-width="1" d="m 275.90627,134.06797 h 8.89761"/><path id="path92" fill="red" fill-opacity="1" fill-rule="evenodd" stroke="red" stroke-dasharray="none" stroke-linecap="butt" stroke-linejoin="miter" stroke-miterlimit="11.474" stroke-opacity="1" stroke-width="1" d="m 284.80388,135.7197 4.53811,-1.65173 -4.53811,-1.65174 z"/><path id="path98" fill="#fff2cc" fill-opacity="1" fill-rule="evenodd" stroke="none" stroke-width=".003" d="m 284.27633,181.92877 v 0 c 0,-3.60943 2.926,-6.53543 6.53542,-6.53543 v 0 c 1.7333,0 3.39561,0.68855 4.62125,1.91419 1.22561,1.22562 1.91417,2.88793 1.91417,4.62124 v 0 c 0,3.60941 -2.92601,6.53541 -6.53542,6.53541 v 0 c -3.60942,0 -6.53542,-2.926 -6.53542,-6.53541 z"/><path id="path100" fill="none" stroke="#595959" stroke-dasharray="none" stroke-linecap="butt" stroke-linejoin="round" stroke-miterlimit="14.336" stroke-opacity="1" stroke-width="1" d="m 284.27633,181.92877 v 0 c 0,-3.60943 2.926,-6.53543 6.53542,-6.53543 v 0 c 1.7333,0 3.39561,0.68855 4.62125,1.91419 1.22561,1.22562 1.91417,2.88793 1.91417,4.62124 v 0 c 0,3.60941 -2.92601,6.53541 -6.53542,6.53541 v 0 c -3.60942,0 -6.53542,-2.926 -6.53542,-6.53541 z"/><path id="path108" fill="#000" fill-opacity="0" fill-rule="evenodd" stroke="none" stroke-width=".003" d="m 297.34717,181.92877 h 14.8976"/><path id="path110" fill="none" stroke="red" stroke-dasharray="none" stroke-linecap="butt" stroke-linejoin="round" stroke-miterlimit="14.336" stroke-opacity="1" stroke-width="1" d="m 297.34717,181.92877 h 8.89762"/><path id="path112" fill="red" fill-opacity="1" fill-rule="evenodd" stroke="red" stroke-dasharray="none" stroke-linecap="butt" stroke-linejoin="miter" stroke-miterlimit="11.474" stroke-opacity="1" stroke-width="1" d="m 306.24479,183.58049 4.5381,-1.65172 -4.5381,-1.65174 z"/><path id="path118" fill="#fff2cc" fill-opacity="1" fill-rule="evenodd" stroke="none" stroke-width=".003" d="m 305.70936,203.43266 v 0 c 0,-3.60941 2.926,-6.53543 6.53541,-6.53543 v 0 c 1.73331,0 3.39562,0.68855 4.62126,1.91419 1.22561,1.22563 1.91417,2.88793 1.91417,4.62124 v 0 c 0,3.60941 -2.92601,6.53541 -6.53543,6.53541 v 0 c -3.60941,0 -6.53541,-2.926 -6.53541,-6.53541 z"/><path id="path120" fill="none" stroke="#595959" stroke-dasharray="none" stroke-linecap="butt" stroke-linejoin="round" stroke-miterlimit="14.336" stroke-opacity="1" stroke-width="1" d="m 305.70936,203.43266 v 0 c 0,-3.60941 2.926,-6.53543 6.53541,-6.53543 v 0 c 1.73331,0 3.39562,0.68855 4.62126,1.91419 1.22561,1.22563 1.91417,2.88793 1.91417,4.62124 v 0 c 0,3.60941 -2.92601,6.53541 -6.53543,6.53541 v 0 c -3.60941,0 -6.53541,-2.926 -6.53541,-6.53541 z"/><path id="path128" fill="#000" fill-opacity="0" fill-rule="evenodd" stroke="none" stroke-width=".003" d="m 318.7802,203.43266 h 14.8976"/><path id="path130" fill="none" stroke="red" stroke-dasharray="none" stroke-linecap="butt" stroke-linejoin="round" stroke-miterlimit="14.336" stroke-opacity="1" stroke-width="1" d="m 318.7802,203.43266 h 8.89761"/><path id="path132" fill="red" fill-opacity="1" fill-rule="evenodd" stroke="red" stroke-dasharray="none" stroke-linecap="butt" stroke-linejoin="miter" stroke-miterlimit="11.474" stroke-opacity="1" stroke-width="1" d="m 327.67781,205.08438 4.53811,-1.65172 -4.53811,-1.65173 z"/><path id="path138" fill="#fff2cc" fill-opacity="1" fill-rule="evenodd" stroke="none" stroke-width=".003" d="m 326.00065,216.5035 v 0 c 0,-3.60942 2.926,-6.53543 6.53543,-6.53543 v 0 c 1.73329,0 3.3956,0.68855 4.62124,1.91419 1.22561,1.22562 1.91417,2.88793 1.91417,4.62124 v 0 c 0,3.60941 -2.926,6.53541 -6.53541,6.53541 v 0 c -3.60943,0 -6.53543,-2.926 -6.53543,-6.53541 z"/><path id="path140" fill="none" stroke="#595959" stroke-dasharray="none" stroke-linecap="butt" stroke-linejoin="round" stroke-miterlimit="14.336" stroke-opacity="1" stroke-width="1" d="m 326.00065,216.5035 v 0 c 0,-3.60942 2.926,-6.53543 6.53543,-6.53543 v 0 c 1.73329,0 3.3956,0.68855 4.62124,1.91419 1.22561,1.22562 1.91417,2.88793 1.91417,4.62124 v 0 c 0,3.60941 -2.926,6.53541 -6.53541,6.53541 v 0 c -3.60943,0 -6.53543,-2.926 -6.53543,-6.53541 z"/><path id="path148" fill="#000" fill-opacity="0" fill-rule="evenodd" stroke="none" stroke-width=".003" d="M 339.07149,216.5035 H 353.9691"/><path id="path150" fill="none" stroke="red" stroke-dasharray="none" stroke-linecap="butt" stroke-linejoin="round" stroke-miterlimit="14.336" stroke-opacity="1" stroke-width="1" d="m 339.07149,216.5035 h 8.89763"/><path id="path152" fill="red" fill-opacity="1" fill-rule="evenodd" stroke="red" stroke-dasharray="none" stroke-linecap="butt" stroke-linejoin="miter" stroke-miterlimit="11.474" stroke-opacity="1" stroke-width="1" d="m 347.96912,218.15522 4.53809,-1.65172 -4.53809,-1.65174 z"/><path id="path160" fill="#000" fill-opacity="0" fill-rule="evenodd" stroke="none" stroke-width=".003" d="m 290.81175,134.07059 v 41.32275"/><path id="path162" fill="none" stroke="#15c" stroke-dasharray="none" stroke-linecap="butt" stroke-linejoin="round" stroke-miterlimit="14.336" stroke-opacity="1" stroke-width="1" d="m 290.81175,134.07059 v 37.89567"/><path id="path164" fill="#15c" fill-opacity="1" fill-rule="evenodd" stroke="#15c" stroke-dasharray="none" stroke-linecap="butt" stroke-linejoin="miter" stroke-miterlimit="11.474" stroke-opacity="1" stroke-width="1" d="m 290.81175,171.96626 -1.12459,-1.12459 1.12459,3.08978 1.12458,-3.08978 z"/><path id="path172" fill="#000" fill-opacity="0" fill-rule="evenodd" stroke="none" stroke-width=".003" d="m 313.06367,182.06262 -0.8189,14.83461"/><path id="path174" fill="none" stroke="#15c" stroke-dasharray="none" stroke-linecap="butt" stroke-linejoin="round" stroke-miterlimit="14.336" stroke-opacity="1" stroke-width="1" d="m 313.06367,182.06262 -0.63,11.41275"/><path id="path176" fill="#15c" fill-opacity="1" fill-rule="evenodd" stroke="#15c" stroke-dasharray="none" stroke-linecap="butt" stroke-linejoin="miter" stroke-miterlimit="11.474" stroke-opacity="1" stroke-width="1" d="m 312.43367,193.47537 -1.06088,-1.18486 0.95256,3.14704 1.29317,-3.02309 z"/><path id="path184" fill="#000" fill-opacity="0" fill-rule="evenodd" stroke="none" stroke-width=".003" d="m 332.94552,203.4484 -0.40944,6.51967"/><path id="path186" fill="none" stroke="#15c" stroke-dasharray="none" stroke-linecap="butt" stroke-linejoin="round" stroke-miterlimit="14.336" stroke-opacity="1" stroke-width="1" d="m 332.94552,203.4484 -0.19464,3.09931"/><path id="path188" fill="#15c" fill-opacity="1" fill-rule="evenodd" stroke="#15c" stroke-dasharray="none" stroke-linecap="butt" stroke-linejoin="miter" stroke-miterlimit="11.474" stroke-opacity="1" stroke-width="1" d="m 332.75088,206.54771 -1.0519,-1.19283 0.92872,3.15416 1.31603,-3.01318 z"/><path id="path196" fill="#000" fill-opacity="0" fill-rule="evenodd" stroke="none" stroke-width=".003" d="M 225.70164,260.77375 H 582.48833"/><path id="path198" fill="none" stroke="#595959" stroke-dasharray="none" stroke-linecap="butt" stroke-linejoin="round" stroke-miterlimit="14.336" stroke-opacity="1" stroke-width="3" d="M 235.98288,260.77375 H 572.20709"/><path id="path200" fill="#595959" fill-opacity="1" fill-rule="evenodd" stroke="#595959" stroke-dasharray="none" stroke-linecap="butt" stroke-linejoin="miter" stroke-miterlimit="11.474" stroke-opacity="1" stroke-width="3" d="m 235.98288,260.77375 3.37375,-3.37375 -9.2693,3.37375 9.2693,3.37375 z"/><path id="path202" fill="#595959" fill-opacity="1" fill-rule="evenodd" stroke="#595959" stroke-dasharray="none" stroke-linecap="butt" stroke-linejoin="miter" stroke-miterlimit="11.474" stroke-opacity="1" stroke-width="3" d="m 572.20709,260.77375 -3.37375,3.37375 9.26929,-3.37375 -9.26929,-3.37375 z"/><path id="path210" fill="#000" fill-opacity="0" fill-rule="evenodd" stroke="none" stroke-width=".003" d="m 273.44696,265.34591 h 239.77903 v 30.20467 H 273.44696 Z"/><text id="text220" x="319.881" y="292.266" fill="#000" fill-opacity="1" fill-rule="nonzero" stroke="none" stroke-width="1" font-family="Arial" font-size="18.667" font-variant="normal" font-weight="normal" writing-mode="lr-tb" style="-inkscape-font-specification:ArialMT"><tspan id="tspan218" x="333.214" y="292.266" stroke-width="1" font-family="sans-serif" font-stretch="normal" font-style="normal" font-variant="normal" font-weight="normal" style="-inkscape-font-specification:sans-serif">权重值 (</tspan></text><text stroke-width="1" style="-inkscape-font-specification:Arial-BoldItalicMT" id="text224" x="404.184" y="292.266" fill="#000" fill-opacity="1" fill-rule="nonzero" stroke="none" font-family="Arial" font-size="18.667" font-style="italic" font-variant="normal" font-weight="bold" writing-mode="lr-tb"><tspan id="tspan222" x="404.184" y="292.266" stroke-width="1" font-family="Times New Roman" font-size="18.667" font-stretch="normal" font-style="italic" font-variant="normal" font-weight="normal" text-anchor="start" writing-mode="lr-tb" style="-inkscape-font-specification:'Times New Roman, Italic';font-variant-ligatures:normal;font-variant-caps:normal;font-variant-numeric:normal;font-feature-settings:normal;text-align:start">w<tspan id="tspan944" baseline-shift="sub" font-size="65%">i</tspan></tspan></text><text id="text60" x="426.547" y="292.266" fill="#000" fill-opacity="1" fill-rule="nonzero" stroke="none" stroke-width="1" font-family="Arial" font-size="18.667" font-variant="normal" font-weight="normal" writing-mode="lr-tb" style="-inkscape-font-specification:ArialMT"><tspan id="tspan58" x="426.547" y="292.266" stroke-width="1" font-family="sans-serif" font-stretch="normal" font-style="normal" font-variant="normal" font-weight="normal" style="-inkscape-font-specification:sans-serif">)</tspan></text><path id="path238" fill="#000" fill-opacity="0" fill-rule="evenodd" stroke="none" stroke-width=".003" d="m 144.05876,114.91053 h 60.44083 v 30.20466 h -60.44083 z"/><text id="text248" x="157.691" y="141.83" fill="#000" fill-opacity="1" fill-rule="nonzero" stroke="none" stroke-width="1" font-family="Arial" font-size="18.667" font-variant="normal" font-weight="normal" writing-mode="lr-tb" style="-inkscape-font-specification:ArialMT"><tspan id="tspan246" x="157.691" y="141.83" stroke-width="1" font-family="sans-serif" font-stretch="normal" font-style="normal" font-variant="normal" font-weight="normal" style="-inkscape-font-specification:sans-serif">损失</tspan></text><path id="path256" fill="#d9ead3" fill-opacity="1" fill-rule="evenodd" stroke="none" stroke-width=".003" d="m 312.24477,80.472275 v 0 c 0,-5.563427 4.51004,-10.073467 10.07348,-10.073467 h 19.33329 v 0 h 44.11015 92.8502 c 2.67165,0 5.23388,1.061307 7.12304,2.950454 1.88912,1.889133 2.95044,4.451359 2.95044,7.123013 v 25.183675 0 15.1102 0 c 0,5.56343 -4.51006,10.07347 -10.07348,10.07347 h -92.8502 l 9.01848,101.47773 -53.12863,-101.47773 h -19.33329 c -5.56344,0 -10.07348,-4.51004 -10.07348,-10.07347 v 0 -15.1102 0 z"/><path id="path258" fill="none" stroke="#595959" stroke-dasharray="none" stroke-linecap="butt" stroke-linejoin="round" stroke-miterlimit="14.336" stroke-opacity="1" stroke-width="1" d="m 312.24477,80.472275 v 0 c 0,-5.563427 4.51004,-10.073467 10.07348,-10.073467 h 19.33329 v 0 h 44.11015 92.8502 c 2.67165,0 5.23388,1.061307 7.12304,2.950454 1.88912,1.889133 2.95044,4.451359 2.95044,7.123013 v 25.183675 0 15.1102 0 c 0,5.56343 -4.51006,10.07347 -10.07348,10.07347 h -92.8502 l 9.01848,101.47773 -53.12863,-101.47773 h -19.33329 c -5.56344,0 -10.07348,-4.51004 -10.07348,-10.07347 v 0 -15.1102 0 z"/><text id="text268" x="344.844" y="96.539" fill="#000" fill-opacity="1" fill-rule="nonzero" stroke="none" stroke-width="1" font-family="Arial" font-size="18.667" font-variant="normal" font-weight="normal" writing-mode="lr-tb" style="-inkscape-font-specification:ArialMT"><tspan id="tspan266" x="344.844" y="96.539" stroke-width="1" font-family="sans-serif" font-stretch="normal" font-style="normal" font-variant="normal" font-weight="normal" style="-inkscape-font-specification:sans-serif">我们将高效地</tspan></text><text id="text272" x="353.656" y="118.539" fill="#000" fill-opacity="1" fill-rule="nonzero" stroke="none" stroke-width="1" font-family="Arial" font-size="18.667" font-variant="normal" font-weight="normal" writing-mode="lr-tb" style="-inkscape-font-specification:ArialMT"><tspan id="tspan270" x="353.656" y="118.539" stroke-width="1" font-family="sans-serif" font-stretch="normal" font-style="normal" font-variant="normal" font-weight="normal" style="-inkscape-font-specification:sans-serif">到达最低点。</tspan></text></svg>