<svg xmlns="http://www.w3.org/2000/svg" xmlns:svg="http://www.w3.org/2000/svg" id="svg2" width="718.193" height="299.266" version="1.1" viewBox="0 0 718.193 299.266" xml:space="preserve"><metadata id="metadata8"/><desc id="desc3">相同的 U 形曲线。这条曲线包含的点非常少。点的轨迹会跳过 U 形底部，然后再次跳回。</desc><defs id="defs6"><clipPath id="clipPath22" clipPathUnits="userSpaceOnUse"><path id="path20" d="M 0,0 H 365760 V 205740 H 0 Z"/></clipPath></defs><path id="path36" fill="#000" fill-opacity="0" fill-rule="evenodd" stroke="none" stroke-width=".003" d="M 210.64,242.20423 209.28567,-3.272572e-6"/><path id="path38" fill="none" stroke="#595959" stroke-dasharray="none" stroke-linecap="butt" stroke-linejoin="round" stroke-miterlimit="14.336" stroke-opacity="1" stroke-width="3" d="M 210.58249,231.92315 209.34317,10.281076"/><path id="path40" fill="#595959" fill-opacity="1" fill-rule="evenodd" stroke="#595959" stroke-dasharray="none" stroke-linecap="butt" stroke-linejoin="miter" stroke-miterlimit="11.474" stroke-opacity="1" stroke-width="3" d="m 210.58249,231.92315 -3.39254,-3.35483 3.42553,9.25027 3.32185,-9.28799 z"/><path id="path42" fill="#595959" fill-opacity="1" fill-rule="evenodd" stroke="#595959" stroke-dasharray="none" stroke-linecap="butt" stroke-linejoin="miter" stroke-miterlimit="11.474" stroke-opacity="1" stroke-width="3" d="m 209.34317,10.281076 3.39254,3.354827 -3.42552,-9.2502797 -3.32187,9.2879997 z"/><path id="path50" fill="#000" fill-opacity="0" fill-rule="evenodd" stroke="none" stroke-width=".003" d="M 226.76464,260.77375 H 583.55131"/><path id="path52" fill="none" stroke="#595959" stroke-dasharray="none" stroke-linecap="butt" stroke-linejoin="round" stroke-miterlimit="14.336" stroke-opacity="1" stroke-width="3" d="m 237.04587,260.77375 h 336.2242"/><path id="path54" fill="#595959" fill-opacity="1" fill-rule="evenodd" stroke="#595959" stroke-dasharray="none" stroke-linecap="butt" stroke-linejoin="miter" stroke-miterlimit="11.474" stroke-opacity="1" stroke-width="3" d="m 237.04587,260.77375 3.37374,-3.37375 -9.26929,3.37375 9.26929,3.37375 z"/><path id="path56" fill="#595959" fill-opacity="1" fill-rule="evenodd" stroke="#595959" stroke-dasharray="none" stroke-linecap="butt" stroke-linejoin="miter" stroke-miterlimit="11.474" stroke-opacity="1" stroke-width="3" d="m 573.27007,260.77375 -3.37375,3.37375 9.26931,-3.37375 -9.26931,-3.37375 z"/><path id="path64" fill="#000" fill-opacity="0" fill-rule="evenodd" stroke="none" stroke-width=".003" d="m 274.50994,265.34591 h 239.77905 v 30.20467 H 274.50994 Z"/><text id="text74" x="347.61" y="292.266" fill="#000" fill-opacity="1" fill-rule="nonzero" stroke="none" stroke-width="1" font-family="Arial" font-size="18.667" font-variant="normal" font-weight="normal" writing-mode="lr-tb" style="-inkscape-font-specification:ArialMT"><tspan style="-inkscape-font-specification:sans-serif" id="tspan72" x="347.61" y="292.266" stroke-width="1" font-family="sans-serif" font-stretch="normal" font-style="normal" font-variant="normal" font-weight="normal">权重值 (</tspan></text><text id="text78" x="414.581" y="292.266" fill="#000" fill-opacity="1" fill-rule="nonzero" stroke="none" stroke-width="1" font-family="Arial" font-size="18.667" font-style="italic" font-variant="normal" font-weight="bold" writing-mode="lr-tb" style="-inkscape-font-specification:Arial-BoldItalicMT"><tspan font-stretch="normal" style="-inkscape-font-specification:'Times New Roman, Italic';font-variant-ligatures:normal;font-variant-caps:normal;font-variant-numeric:normal;font-feature-settings:normal;text-align:start" id="tspan76" x="414.581" y="292.266" stroke-width="1" font-family="Times New Roman" font-size="18.667" font-style="italic" font-variant="normal" font-weight="normal" text-anchor="start" writing-mode="lr-tb">w<tspan id="tspan968" baseline-shift="sub" font-size="65%">i</tspan></tspan></text><text id="text25" x="435.61" y="292.266" fill="#000" fill-opacity="1" fill-rule="nonzero" stroke="none" stroke-width="1" font-family="Arial" font-size="18.667" font-variant="normal" font-weight="normal" writing-mode="lr-tb" style="-inkscape-font-specification:ArialMT"><tspan style="-inkscape-font-specification:sans-serif" id="tspan23" x="435.61" y="292.266" stroke-width="1" font-family="sans-serif" font-stretch="normal" font-style="normal" font-variant="normal" font-weight="normal">)</tspan></text><path id="path92" fill="#000" fill-opacity="0" fill-rule="evenodd" stroke="none" stroke-width=".003" d="m 145.12175,114.91053 h 60.44082 v 30.20466 h -60.44082 z"/><text id="text102" x="158.754" y="141.83" fill="#000" fill-opacity="1" fill-rule="nonzero" stroke="none" stroke-width="1" font-family="Arial" font-size="18.667" font-variant="normal" font-weight="normal" writing-mode="lr-tb" style="-inkscape-font-specification:ArialMT"><tspan style="-inkscape-font-specification:sans-serif" id="tspan100" x="158.754" y="141.83" stroke-width="1" font-family="sans-serif" font-stretch="normal" font-style="normal" font-variant="normal" font-weight="normal">损失</tspan></text><path id="path112" fill="#000" fill-opacity="0" fill-rule="evenodd" stroke="none" stroke-width=".003" d="m 250.64946,22.568209 c 6.86928,26.3004 13.48748,122.586881 41.21572,157.802371 27.72824,35.21545 89.29985,62.40605 125.15373,53.49044 35.85387,-8.91566 69.78095,-70.54285 89.96948,-106.98427 20.18849,-36.441396 25.96801,-93.053487 31.1616,-111.66418"/><path id="path114" fill="none" stroke="#595959" stroke-dasharray="none" stroke-linecap="butt" stroke-linejoin="round" stroke-miterlimit="14.336" stroke-opacity="1" stroke-width="8" d="m 250.64946,22.568209 c 6.86928,26.3004 13.48748,122.586881 41.21572,157.802371 27.72824,35.21545 89.29985,62.40605 125.15373,53.49044 35.85387,-8.91566 69.78095,-70.54285 89.96948,-106.98427 20.18849,-36.441396 25.96801,-93.053487 31.1616,-111.66418"/><path id="path120" fill="#fff2cc" fill-opacity="1" fill-rule="evenodd" stroke="none" stroke-width=".003" d="m 263.89841,126.06798 v 0 c 0,-3.60941 2.92601,-6.53541 6.53543,-6.53541 v 0 c 1.7333,0 3.39561,0.68854 4.62125,1.91417 1.22561,1.22563 1.91416,2.88793 1.91416,4.62124 v 0 c 0,3.60941 -2.926,6.53543 -6.53541,6.53543 v 0 c -3.60942,0 -6.53543,-2.92602 -6.53543,-6.53543 z"/><path id="path122" fill="none" stroke="#595959" stroke-dasharray="none" stroke-linecap="butt" stroke-linejoin="round" stroke-miterlimit="14.336" stroke-opacity="1" stroke-width="1" d="m 263.89841,126.06798 v 0 c 0,-3.60941 2.92601,-6.53541 6.53543,-6.53541 v 0 c 1.7333,0 3.39561,0.68854 4.62125,1.91417 1.22561,1.22563 1.91416,2.88793 1.91416,4.62124 v 0 c 0,3.60941 -2.926,6.53543 -6.53541,6.53543 v 0 c -3.60942,0 -6.53543,-2.92602 -6.53543,-6.53543 z"/><path id="path128" fill="#fff2cc" fill-opacity="1" fill-rule="evenodd" stroke="none" stroke-width=".003" d="m 354.81162,228.19616 v 0 c 0,-3.6094 2.926,-6.53542 6.53542,-6.53542 v 0 c 1.7333,0 3.39561,0.68854 4.62125,1.91418 1.22561,1.22564 1.91417,2.88792 1.91417,4.62124 v 0 c 0,3.6094 -2.92601,6.53542 -6.53542,6.53542 v 0 c -3.60942,0 -6.53542,-2.92602 -6.53542,-6.53542 z"/><path id="path130" fill="none" stroke="#595959" stroke-dasharray="none" stroke-linecap="butt" stroke-linejoin="round" stroke-miterlimit="14.336" stroke-opacity="1" stroke-width="1" d="m 354.81162,228.19616 v 0 c 0,-3.6094 2.926,-6.53542 6.53542,-6.53542 v 0 c 1.7333,0 3.39561,0.68854 4.62125,1.91418 1.22561,1.22564 1.91417,2.88792 1.91417,4.62124 v 0 c 0,3.6094 -2.92601,6.53542 -6.53542,6.53542 v 0 c -3.60942,0 -6.53542,-2.92602 -6.53542,-6.53542 z"/><path id="path138" fill="#000" fill-opacity="0" fill-rule="evenodd" stroke="none" stroke-width=".003" d="m 362.23156,125.81077 v 97.16515"/><path id="path140" fill="none" stroke="#15c" stroke-dasharray="none" stroke-linecap="butt" stroke-linejoin="round" stroke-miterlimit="14.336" stroke-opacity="1" stroke-width="2" d="m 362.23156,125.81077 v 90.31099"/><path id="path142" fill="#15c" fill-opacity="1" fill-rule="evenodd" stroke="#15c" stroke-dasharray="none" stroke-linecap="butt" stroke-linejoin="miter" stroke-miterlimit="11.474" stroke-opacity="1" stroke-width="2" d="m 362.23156,216.12176 -2.24919,-2.24917 2.24919,6.17953 2.24917,-6.17953 z"/><path id="path150" fill="#000" fill-opacity="0" fill-rule="evenodd" stroke="none" stroke-width=".003" d="M 454.06023,228.96646 V 212.872"/><path id="path152" fill="none" stroke="#15c" stroke-dasharray="none" stroke-linecap="butt" stroke-linejoin="round" stroke-miterlimit="14.336" stroke-opacity="1" stroke-width="2" d="m 454.06023,228.96646 v -9.24031"/><path id="path154" fill="#15c" fill-opacity="1" fill-rule="evenodd" stroke="#15c" stroke-dasharray="none" stroke-linecap="butt" stroke-linejoin="miter" stroke-miterlimit="11.474" stroke-opacity="1" stroke-width="2" d="m 454.06023,219.72615 2.24916,2.24917 -2.24916,-6.17952 -2.24917,6.17952 z"/><path id="path160" fill="#fff2cc" fill-opacity="1" fill-rule="evenodd" stroke="none" stroke-width=".003" d="m 447.05238,208.98891 v 0 c 0,-3.60941 2.926,-6.53541 6.53541,-6.53541 v 0 c 1.73331,0 3.39562,0.68852 4.6212,1.91417 1.22564,1.22564 1.91423,2.88795 1.91423,4.62124 v 0 c 0,3.60941 -2.92604,6.53543 -6.53543,6.53543 v 0 c -3.60941,0 -6.53541,-2.92602 -6.53541,-6.53543 z"/><path id="path162" fill="none" stroke="#595959" stroke-dasharray="none" stroke-linecap="butt" stroke-linejoin="round" stroke-miterlimit="14.336" stroke-opacity="1" stroke-width="1" d="m 447.05238,208.98891 v 0 c 0,-3.60941 2.926,-6.53541 6.53541,-6.53541 v 0 c 1.73331,0 3.39562,0.68852 4.6212,1.91417 1.22564,1.22564 1.91423,2.88795 1.91423,4.62124 v 0 c 0,3.60941 -2.92604,6.53543 -6.53543,6.53543 v 0 c -3.60941,0 -6.53541,-2.92602 -6.53541,-6.53543 z"/><path id="path168" fill="#f4cccc" fill-opacity="1" fill-rule="evenodd" stroke="none" stroke-width=".003" d="m 562.16619,195.68198 v 0 c 0,-4.40959 3.57463,-7.98424 7.98423,-7.98424 h 17.93697 v 0 h 38.88181 82.73999 c 2.11753,0 4.14837,0.84119 5.64566,2.33851 1.49738,1.49733 2.33858,3.52817 2.33858,5.64573 v 0 0 11.97634 19.96059 c 0,4.40956 -3.57472,7.98424 -7.98424,7.98424 H 626.9692 588.08739 v 0 h -17.93697 c -4.4096,0 -7.98423,-3.57468 -7.98423,-7.98424 v -19.96059 l -92.83733,1.2869 z"/><path id="path170" fill="none" stroke="#595959" stroke-dasharray="none" stroke-linecap="butt" stroke-linejoin="round" stroke-miterlimit="14.336" stroke-opacity="1" stroke-width="1" d="m 562.16619,195.68198 v 0 c 0,-4.40959 3.57463,-7.98424 7.98423,-7.98424 h 17.93697 v 0 h 38.88181 82.73999 c 2.11753,0 4.14837,0.84119 5.64566,2.33851 1.49738,1.49733 2.33858,3.52817 2.33858,5.64573 v 0 0 11.97634 19.96059 c 0,4.40956 -3.57472,7.98424 -7.98424,7.98424 H 626.9692 588.08739 v 0 h -17.93697 c -4.4096,0 -7.98423,-3.57468 -7.98423,-7.98424 v -19.96059 l -92.83733,1.2869 z"/><text id="text180" x="579.34" y="215.57" fill="#000" fill-opacity="1" fill-rule="nonzero" stroke="none" stroke-width="1" font-family="Arial" font-size="18.667" font-variant="normal" font-weight="normal" writing-mode="lr-tb" style="-inkscape-font-specification:ArialMT"><tspan style="-inkscape-font-specification:sans-serif" id="tspan178" x="579.34" y="215.57" stroke-width="1" font-family="sans-serif" font-stretch="normal" font-style="normal" font-variant="normal" font-weight="normal">越过了最低点！</tspan></text><path id="path192" fill="#fce5cd" fill-opacity="1" fill-rule="evenodd" stroke="none" stroke-width=".003" d="m 0.49999895,42.296502 v 0 c 0,-7.256519 5.88256735,-13.139079 13.13908105,-13.139079 h 77.585145 v 0 h 38.881815 12.78212 c 3.48469,0 6.82668,1.38428 9.29073,3.848346 2.46406,2.464054 3.84835,5.806027 3.84835,9.290733 V 75.144195 L 256.27077,117.53009 156.02724,94.852821 v 0 c 0,7.256519 -5.88256,13.139079 -13.13908,13.139079 H 130.10604 91.224225 v 0 H 13.63908 c -7.2565137,0 -13.13908105,-5.88256 -13.13908105,-13.139079 v 0 -19.708626 0 z"/><path id="path194" fill="none" stroke="#595959" stroke-dasharray="none" stroke-linecap="butt" stroke-linejoin="round" stroke-miterlimit="14.336" stroke-opacity="1" stroke-width="1" d="m 0.49999895,42.296502 v 0 c 0,-7.256519 5.88256735,-13.139079 13.13908105,-13.139079 h 77.585145 v 0 h 38.881815 12.78212 c 3.48469,0 6.82668,1.38428 9.29073,3.848346 2.46406,2.464054 3.84835,5.806027 3.84835,9.290733 V 75.144195 L 256.27077,117.53009 156.02724,94.852821 v 0 c 0,7.256519 -5.88256,13.139079 -13.13908,13.139079 H 130.10604 91.224225 v 0 H 13.63908 c -7.2565137,0 -13.13908105,-5.88256 -13.13908105,-13.139079 v 0 -19.708626 0 z"/><text id="text204" x="51.521" y="75.495" fill="#000" fill-opacity="1" fill-rule="nonzero" stroke="none" stroke-width="1" font-family="Arial" font-size="18.667" font-variant="normal" font-weight="normal" writing-mode="lr-tb" style="-inkscape-font-specification:ArialMT"><tspan style="-inkscape-font-specification:sans-serif" id="tspan202" x="51.521" y="75.495" stroke-width="1" font-family="sans-serif" font-stretch="normal" font-style="normal" font-variant="normal" font-weight="normal">起点</tspan></text><path id="path214" fill="#000" fill-opacity="0" fill-rule="evenodd" stroke="none" stroke-width=".003" d="m 276.96925,126.06798 h 85.76361"/><path id="path216" fill="none" stroke="red" stroke-dasharray="none" stroke-linecap="butt" stroke-linejoin="round" stroke-miterlimit="14.336" stroke-opacity="1" stroke-width="2" d="M 276.96925,126.06798 H 355.8787"/><path id="path218" fill="red" fill-opacity="1" fill-rule="evenodd" stroke="red" stroke-dasharray="none" stroke-linecap="butt" stroke-linejoin="miter" stroke-miterlimit="11.474" stroke-opacity="1" stroke-width="2" d="m 355.8787,126.06798 -2.24918,2.24917 6.17954,-2.24917 -6.17954,-2.24916 z"/><path id="path226" fill="#000" fill-opacity="0" fill-rule="evenodd" stroke="none" stroke-width=".003" d="m 368.30765,229.01528 h 85.76361"/><path id="path228" fill="none" stroke="red" stroke-dasharray="none" stroke-linecap="butt" stroke-linejoin="round" stroke-miterlimit="14.336" stroke-opacity="1" stroke-width="2" d="M 368.30765,229.01528 H 447.2171"/><path id="path230" fill="red" fill-opacity="1" fill-rule="evenodd" stroke="red" stroke-dasharray="none" stroke-linecap="butt" stroke-linejoin="miter" stroke-miterlimit="11.474" stroke-opacity="1" stroke-width="2" d="m 447.2171,229.01528 -2.24919,2.24915 6.17955,-2.24915 -6.17955,-2.24916 z"/></svg>