<svg xmlns="http://www.w3.org/2000/svg" xmlns:svg="http://www.w3.org/2000/svg" id="Layer_1" width="1050" height="450" x="0" y="0" version="1.1" viewBox="174 127 1050 450" xml:space="preserve"><desc id="desc2">通过独热编码映射字符串值。</desc><metadata id="metadata93"/><style id="style3" type="text/css">.ohe-st0{fill:#f4ff5f}.ohe-st1{fill:#fff2cc}.ohe-st1,.ohe-st2{stroke:#424242;stroke-miterlimit:10}.ohe-st3{fill:#bebebe}.ohe-st4{font-family:&apos;RobotoMono-Regular&apos;}.ohe-st5{font-size:21px}.ohe-st6{font-family:&apos;Roboto-Regular&apos;}.ohe-st7{font-size:18px}.ohe-st10,.ohe-st9{stroke-miterlimit:10}.ohe-st9{fill:#28c3ff;stroke:#28c3ff}.ohe-st10{fill:none;stroke:#424242;stroke-width:2}.ohe-st11{fill:#424242}</style><g id="g27" transform="matrix(2.2353645,0,0,1.5044679,-404.40028,-37.68972)"><path id="path29" fill="#d9ead3" stroke="#424242" stroke-miterlimit="10" d="m 454.4,240 h 69.4 v -15.6 l 28.1,31.2 -28.1,31.2 v -15.6 h -69.4 z" class="ohe-st5" font-family="Roboto-Regular" font-size="21"/></g><text id="text842" x="652.562" y="352.43" fill="#000" fill-opacity="1" stroke="none" stroke-linecap="butt" stroke-linejoin="miter" stroke-opacity="1" stroke-width="1" font-family="sans-serif" font-size="40" font-style="normal" font-weight="normal" letter-spacing="0" word-spacing="0" xml:space="preserve" style="line-height:125%"><tspan id="tspan840" x="652.562" y="352.43" font-size="18.667">特征工程</tspan></text><rect id="rect5" width="356.7" height="26.9" x="214" y="370.5" fill="#f4ff5f" class="ohe-st0"/><g id="g15" transform="matrix(1.1480216,0,0,1,-19.337283,22)"><path id="path13" fill="#fff2cc" stroke="#424242" stroke-miterlimit="10" d="m 423.9,263.9 v 0 c 0,6.6 8.4,11.9 18.7,11.9 h 22.5 l 24.9,65.7 36.9,-65.7 h 125.5 c 5,0 9.7,-1.3 13.2,-3.5 3.5,-2.2 5.5,-5.3 5.5,-8.4 v 0 0 -17.9 -29.7 c 0,-6.6 -8.4,-11.9 -18.7,-11.9 H 526.9 465.1 v 0 h -22.5 c -10.3,0 -18.7,5.3 -18.7,11.9 V 246 Z" class="ohe-st1"/></g><g id="g11" transform="matrix(1.1480216,0,0,1,-19.337283,22)"><path id="path17" stroke="#424242" stroke-miterlimit="10" d="m 423.9,263.9 v 0 c 0,6.6 8.4,11.9 18.7,11.9 h 22.5 l 24.9,65.7 36.9,-65.7 h 125.5 c 5,0 9.7,-1.3 13.2,-3.5 3.5,-2.2 5.5,-5.3 5.5,-8.4 v 0 0 -17.9 -29.7 c 0,-6.6 -8.4,-11.9 -18.7,-11.9 H 526.9 465.1 v 0 h -22.5 c -10.3,0 -18.7,5.3 -18.7,11.9 V 246 Z" class="ohe-st2"/></g><g id="g22" transform="matrix(1.1480216,0,0,1,-19.337283,22)"><path id="path20" fill="#fff2cc" stroke="#424242" stroke-miterlimit="10" d="m 423.9,263.9 v 0 c 0,6.6 8.4,11.9 18.7,11.9 h 22.5 l 24.9,65.7 36.9,-65.7 h 125.5 c 5,0 9.7,-1.3 13.2,-3.5 3.5,-2.2 5.5,-5.3 5.5,-8.4 v 0 0 -17.9 -29.7 c 0,-6.6 -8.4,-11.9 -18.7,-11.9 H 526.9 465.1 v 0 h -22.5 c -10.3,0 -18.7,5.3 -18.7,11.9 V 246 Z" class="ohe-st1"/></g><text style="line-height:0%" id="text19" x="204.43" y="289.382"><tspan id="tspan21" x="204.43" y="289.382" fill="#bebebe" class="ohe-st3 ohe-st4 ohe-st5" font-family="RobotoMono-Regular" font-size="21">0 : {</tspan><tspan id="tspan23" x="204.43" y="314.582" fill="#bebebe" class="ohe-st3 ohe-st4 ohe-st5" font-family="RobotoMono-Regular" font-size="21"> house_info : {</tspan><tspan id="tspan25" x="204.43" y="339.782" fill="#bebebe" class="ohe-st3 ohe-st4 ohe-st5" font-family="RobotoMono-Regular" font-size="21"> num_rooms: 6</tspan><tspan id="tspan27" x="204.43" y="364.982" fill="#bebebe" class="ohe-st3 ohe-st4 ohe-st5" font-family="RobotoMono-Regular" font-size="21"> num_bedrooms: 3</tspan><tspan id="tspan29" x="204.43" y="390.182" class="ohe-st4 ohe-st5" font-family="RobotoMono-Regular" font-size="21"> street_name: &quot;Shorebird Way&quot;</tspan><tspan id="tspan31" x="204.43" y="415.382" fill="#bebebe" class="ohe-st3 ohe-st4 ohe-st5" font-family="RobotoMono-Regular" font-size="21"> num_basement_rooms: -1</tspan><tspan id="tspan33" x="204.43" y="440.582" fill="#bebebe" class="ohe-st3 ohe-st4 ohe-st5" font-family="RobotoMono-Regular" font-size="21"> ...</tspan><tspan id="tspan35" x="204.43" y="465.782" fill="#bebebe" class="ohe-st3 ohe-st4 ohe-st5" font-family="RobotoMono-Regular" font-size="21"> }</tspan><tspan id="tspan37" x="204.43" y="490.982" fill="#bebebe" class="ohe-st3 ohe-st4 ohe-st5" font-family="RobotoMono-Regular" font-size="21">}</tspan></text><rect id="rect53" width="300" height="26.9" x="848" y="267" fill="#feff5f" fill-opacity="1" stroke="none" stroke-miterlimit="10" class="ohe-st9"/><text style="line-height:0%" id="text55" x="846.313" y="261.645"><tspan id="tspan57" x="846.313" y="261.645" class="ohe-st4 ohe-st5" font-family="RobotoMono-Regular" font-size="21">street_name</tspan><tspan id="tspan32" font-family="sans-serif" font-size="21"> 特征 = </tspan><tspan id="tspan59" x="846.313" y="286.845" class="ohe-st4 ohe-st5" font-family="RobotoMono-Regular" font-size="21"> [0, 0, ..., 0, <tspan id="tspan887" font-family="sans-serif" font-stretch="normal" font-style="normal" font-variant="normal" font-weight="normal" style="-inkscape-font-specification:sans-serif">1, 0, ...,</tspan> 0]</tspan></text><g id="g61" transform="translate(130,22)"><g id="g63"><line id="line65" x1="735.4" x2="1052.6" y1="315" y2="315" fill="none" stroke="#424242" stroke-miterlimit="10" stroke-width="2" class="ohe-st10"/><g id="g67"><polygon id="polygon69" fill="#424242" points="738.3 325 721 315 738.3 305" class="ohe-st11"/></g><g id="g71"><polygon id="polygon73" fill="#424242" points="1049.7 325 1067 315 1049.7 305" class="ohe-st11"/></g></g></g><text id="text75" x="966.06" y="349.679" stroke-width=".961" class="ohe-st6 ohe-st7" font-family="Roboto-Regular" font-size="17.299" transform="scale(0.96104112,1.0405382)" style="line-height:0%">V: 唯一街道名称的数量</text><g id="g77" transform="translate(130,22)"><path id="path79" fill="#fff2cc" stroke="#424242" stroke-miterlimit="10" d="m 774.7,456.1 v 0 c 0,-6.7 -8.4,-12.2 -18.7,-12.2 l -38.1,0.3 19.4,-185.7 -37.4,184.7 -153.6,0.7 c -5,0 -9.7,1.3 -13.2,3.6 -3.5,2.3 -5.5,5.4 -5.5,8.6 v 0 0 18.3 30.5 c 0,6.7 8.4,12.2 18.7,12.2 h 125.5 61.8 v 0 h 22.5 c 10.3,0 18.7,-5.5 18.7,-12.2 v -30.5 -18.3 z" class="ohe-st1"/></g><text style="line-height:0%" id="text81" x="695.372" y="468.027" font-size="11.532" transform="scale(0.96104112,1.0405382)"><tspan id="tspan83" x="695.372" y="468.027" class="ohe-st6 ohe-st7" font-family="Roboto-Regular" font-size="17.299" font-weight="bold">独热编码</tspan></text><g id="g890" transform="translate(157.03704,136.2963)"><rect id="rect858" width="221.593" height="55.926" x="48.539" y="9.98" fill="#c4eaf9" fill-opacity="1" stroke="#000" stroke-dasharray="none" stroke-miterlimit="4" stroke-opacity="1" stroke-width="1" ry="15.828"/><text id="text856" x="73.268" y="50.753" fill="#000" fill-opacity="1" stroke="none" stroke-linecap="butt" stroke-linejoin="miter" stroke-opacity="1" stroke-width="1" font-family="sans-serif" font-size="40" font-style="normal" font-weight="normal" letter-spacing="0" word-spacing="0" xml:space="preserve" style="line-height:0%"><tspan id="tspan854" x="73.268" y="50.753">原始数据</tspan></text></g><rect id="rect892" width="203.66" height="56.061" x="877.637" y="146.209" fill="#c4eaf9" fill-opacity="1" stroke="#000" stroke-dasharray="none" stroke-miterlimit="4" stroke-opacity="1" stroke-width=".96" ry="15.866"/><text id="text896" x="935.684" y="187.049" fill="#000" fill-opacity="1" stroke="none" stroke-linecap="butt" stroke-linejoin="miter" stroke-opacity="1" stroke-width="1" font-family="sans-serif" font-size="40" font-style="normal" font-weight="normal" letter-spacing="0" word-spacing="0" xml:space="preserve" style="line-height:0%"><tspan id="tspan894" x="935.684" y="187.049">特征</tspan></text><text style="line-height:0%" id="text39" x="494.425" y="254.835" font-size="18.667" transform="scale(0.96104112,1.0405382)">可以使用独热编码处理字符串特征</text><text id="text876" x="695.372" y="487.248" font-size="11.532" transform="scale(0.96104112,1.0405382)" style="line-height:0%"><tspan id="tspan874" x="695.372" y="487.248" class="ohe-st6 ohe-st7" font-family="Roboto-Regular" font-size="17.299" font-stretch="normal" font-style="normal" font-variant="normal" font-weight="normal" style="-inkscape-font-specification:Roboto-Regular">其中 1 表示“<tspan font-family="monospace">Shorebird Way</tspan>”，</tspan></text><text style="line-height:0%" id="text880" x="695.372" y="506.469" font-size="11.532" transform="scale(0.96104112,1.0405382)"><tspan id="tspan878" x="695.372" y="506.469" class="ohe-st6 ohe-st7" font-family="Roboto-Regular" font-size="17.299" font-stretch="normal" font-style="normal" font-variant="normal" font-weight="normal" style="-inkscape-font-specification:Roboto-Regular">0 表示所有其他街道。</tspan></text></svg>