<svg xmlns="http://www.w3.org/2000/svg" xmlns:svg="http://www.w3.org/2000/svg" id="svg87" fill="none" stroke="none" stroke-linecap="square" stroke-miterlimit="10" version="1.1" viewBox="0 0 960 540"><desc>与图 2 类似的工作流程，不同之处在于该工作流程使用验证集而不是测试集来评估模型。然后，在训练集和验证集大致达成一致后，使用测试集确认模型效果。</desc><metadata id="metadata93"/><clipPath id="g3265f266ac_0_158.0"><path id="path2" d="m0 0l960.0 0l0 540.0l-960.0 0l0 -540.0z" clip-rule="nonzero"/></clipPath><g id="g85" clip-path="url(#g3265f266ac_0_158.0)"><path id="path5" fill="#fff" fill-rule="evenodd" d="m0 0l960.0 0l0 540.0l-960.0 0z"/><path id="path7" fill="#000" fill-opacity="0" fill-rule="evenodd" d="m5.5091863 4.5905514l945.0079 0l0 274.83466l-945.0079 0z"/><path id="path9" fill-rule="evenodd" stroke="#999" stroke-dasharray="8 6" stroke-linecap="butt" stroke-linejoin="round" stroke-width="2" d="m5.5091863 4.5905514l945.0079 0l0 274.83466l-945.0079 0z"/><path id="path11" fill="#4285f4" fill-rule="evenodd" d="m47.065617 15.099737l378.07874 0l0 113.54331l-378.07874 0z"/><path id="path15" fill="#4fc3f7" fill-rule="evenodd" d="m469.2152 15.107612l437.88977 0l0 113.54331l-437.88977 0z"/><path id="path19" fill="#000" fill-opacity="0" fill-rule="evenodd" d="m425.14435 71.87139l44.06299 0"/><path id="path21" fill-rule="evenodd" stroke="#424242" stroke-linecap="butt" stroke-linejoin="round" stroke-width="3" d="m425.14435 71.87139l33.78174 0"/><path id="path23" fill="#424242" fill-rule="evenodd" stroke="#424242" stroke-linecap="butt" stroke-width="3" d="m458.9261 71.87139l-3.3737488 3.3737488l9.269318 -3.3737488l-9.269318 -3.3737488z"/><path id="path25" fill="#000" fill-opacity="0" fill-rule="evenodd" d="m907.105 71.879265l24.999634 0l0 146.07874l-274.32245 0"/><path id="path27" fill-rule="evenodd" stroke="#424242" stroke-linecap="butt" stroke-linejoin="round" stroke-width="3" d="m907.105 71.879265l24.999573 0l0 146.07874l-264.04114 0"/><path id="path29" fill="#424242" fill-rule="evenodd" stroke="#424242" stroke-linecap="butt" stroke-width="3" d="m668.0634 217.95801l3.3737183 -3.3737488l-9.269287 3.3737488l9.269287 3.3737488z"/><path id="path31" fill="#000" fill-opacity="0" fill-rule="evenodd" d="m259.66928 167.13387l398.11026 0l0 101.6693l-398.11026 0z"/><path id="path35" fill="#4fc3f7" fill-rule="nonzero" stroke-width=".7" d="m 421.24222,178.51045 h 103.69452 v 38.39999 H 421.24222 Z"/><path id="path41" fill="#000" fill-opacity="0" fill-rule="evenodd" d="m47.065617 71.87139l-24.999449 0l0 146.11023l237.59787 0"/><path id="path43" fill-rule="evenodd" stroke="#424242" stroke-linecap="butt" stroke-linejoin="round" stroke-width="3" d="m36.784355 71.87139l-14.718187 0l0 146.11023l237.59787 0"/><path id="path45" fill="#424242" fill-rule="evenodd" stroke="#424242" stroke-linecap="butt" stroke-width="3" d="m36.78436 71.87139l-3.3737526 3.3737488l9.269302 -3.3737488l-9.269302 -3.3737488z"/><path id="path47" fill="#000" fill-opacity="0" fill-rule="evenodd" d="m31.68504 346.59198l402.23624 0l0 101.66928l-402.23624 0z"/><path id="path49" fill-rule="evenodd" stroke="#000" stroke-linecap="butt" stroke-linejoin="round" stroke-width="2" d="m31.68504 346.59198l402.23624 0l0 101.66928l-402.23624 0z"/><path id="path51" fill="#000" fill-opacity="0" fill-rule="evenodd" d="m31.065617 347.1286l391.1496 0l0 54.015747l-391.1496 0z"/><path id="path55" fill="#4fc3f7" fill-rule="nonzero" stroke-width=".66" d="m 198.6067,355.36867 h 92.17127 v 38.39999 H 198.6067 Z"/><path id="path61" fill="#000" fill-opacity="0" fill-rule="evenodd" d="m278.95398 279.41208l-0.4409485 60.59842"/><path id="path63" fill-rule="evenodd" stroke="#424242" stroke-linecap="butt" stroke-linejoin="round" stroke-width="3" d="m278.95398 279.41208l-0.3661499 50.317444"/><path id="path65" fill="#424242" fill-rule="evenodd" stroke="#424242" stroke-linecap="butt" stroke-width="3" d="m278.58786 329.72952l-3.349121 -3.3982239l3.3062134 9.29361l3.441101 -9.244507z"/><path id="path67" fill="#000" fill-opacity="0" fill-rule="evenodd" d="m533.2746 346.5944l318.32977 0l0 101.66928l-318.32977 0z"/><path id="path69" fill-rule="evenodd" stroke="#000" stroke-linecap="butt" stroke-linejoin="round" stroke-width="2" d="m533.2746 346.5944l318.32977 0l0 101.66928l-318.32977 0z"/><path id="path71" fill="#000" fill-opacity="0" fill-rule="evenodd" d="m532.78436 347.131l309.55585 0l0 54.015747l-309.55585 0z"/><path id="path75" fill="#f4b400" fill-rule="nonzero" stroke-width=".883" d="m 675.12458,356.41863 h 92.96711 v 38.4 h -92.96711 z"/><path id="path79" fill="#000" fill-opacity="0" fill-rule="evenodd" d="m439.76642 397.42783l89.22833 0"/><path id="path81" fill-rule="evenodd" stroke="#424242" stroke-linecap="butt" stroke-linejoin="round" stroke-width="3" d="m439.76642 397.42783l78.94708 0"/><path id="path83" fill="#424242" fill-rule="evenodd" stroke="#424242" stroke-linecap="butt" stroke-width="3" d="m518.7135 397.42783l-3.3737793 3.3737488l9.269348 -3.3737488l-9.269348 -3.3737488z"/><text font-size="26.667" style="line-height:1.25" id="text3786" x="103.709" y="82.315" fill="#000" fill-opacity="1" stroke="none" font-family="sans-serif" font-style="normal" font-weight="normal" letter-spacing="0" word-spacing="0" xml:space="preserve"><tspan id="tspan3784" x="103.709" y="82.315" font-size="29.333">使用训练集训练模型</tspan></text><text font-size="26.667" style="line-height:1.25" id="text3790" x="554.162" y="82.329" fill="#000" fill-opacity="1" stroke="none" font-family="sans-serif" font-style="normal" font-weight="normal" letter-spacing="0" word-spacing="0" xml:space="preserve"><tspan id="tspan3788" x="554.162" y="82.329" font-size="29.333">使用验证集评估模型</tspan></text><text font-size="26.667" style="line-height:1.25" id="text3794" x="456.701" y="210.017" fill="#000" fill-opacity="1" stroke="none" font-family="sans-serif" font-style="normal" font-weight="normal" letter-spacing="0" word-spacing="0" xml:space="preserve"><tspan id="tspan3796" x="456.701" y="210.017" font-size="32" text-anchor="middle" style="text-align:center">根据在验证集上获</tspan><tspan style="text-align:center" id="tspan58" x="456.701" y="246.684" font-size="32" text-anchor="middle">得的效果调整模型</tspan></text><text font-size="26.667" style="line-height:1.25" id="text3804" x="231.437" y="387.055" fill="#000" fill-opacity="1" stroke="none" font-family="sans-serif" font-style="normal" font-weight="normal" letter-spacing="0" word-spacing="0" xml:space="preserve"><tspan id="tspan3806" x="231.437" y="387.055" font-size="29.333" text-anchor="middle" style="text-align:center">选择在验证集上获</tspan><tspan style="text-align:center" id="tspan62" x="231.437" y="423.722" font-size="29.333" text-anchor="middle">得最佳效果的模型</tspan></text><text font-size="26.667" style="line-height:1.25" id="text3814" x="692.16" y="387.055" fill="#000" fill-opacity="1" stroke="none" font-family="sans-serif" font-style="normal" font-weight="normal" letter-spacing="0" word-spacing="0" xml:space="preserve"><tspan id="tspan3816" x="692.16" y="387.055" font-size="29.333" font-weight="bold" text-anchor="middle" style="text-align:center">使用测试集</tspan><tspan style="text-align:center" id="tspan68" x="692.16" y="423.722" font-size="29.333" font-weight="bold" text-anchor="middle">确认模型的效果</tspan></text></g></svg>